<svg width="322" height="507" viewBox="0 0 322 507" fill="none" xmlns="http://www.w3.org/2000/svg">
<rect x="0.5" y="0.5" width="321" height="506" rx="29.5" fill="white" stroke="black"/>
<path d="M162.607 232.594L255.401 187.84C257.663 186.749 257.664 183.528 255.403 182.436L162.626 137.623C161.81 137.229 160.859 137.225 160.039 137.613L66.6554 181.754C64.379 182.83 64.3608 186.062 66.6249 187.164L159.991 232.589C160.816 232.991 161.78 232.992 162.607 232.594Z" fill="#F32333"/>
<path d="M162.607 369.594L255.401 324.84C257.663 323.749 257.664 320.528 255.403 319.436L162.626 274.623C161.81 274.229 160.859 274.225 160.039 274.613L66.6554 318.754C64.379 319.83 64.3608 323.062 66.6249 324.164L159.991 369.589C160.816 369.991 161.78 369.992 162.607 369.594Z" fill="#F32333"/>
</svg>
