<svg width="322" height="507" viewBox="0 0 322 507" fill="none" xmlns="http://www.w3.org/2000/svg">
<rect x="0.5" y="0.5" width="321" height="506" rx="29.5" fill="white" stroke="black"/>
<path d="M162.607 299.594L255.401 254.84C257.663 253.749 257.664 250.528 255.403 249.436L162.626 204.623C161.81 204.229 160.859 204.225 160.039 204.613L66.6554 248.754C64.379 249.83 64.3608 253.062 66.6249 254.164L159.991 299.589C160.816 299.991 161.78 299.992 162.607 299.594Z" fill="#4D0B5E"/>
<path d="M162.607 157.594L255.401 112.84C257.663 111.749 257.664 108.528 255.403 107.436L162.626 62.6235C161.81 62.2292 160.859 62.2252 160.039 62.6126L66.6554 106.754C64.379 107.83 64.3608 111.062 66.6249 112.164L159.991 157.589C160.816 157.991 161.78 157.992 162.607 157.594Z" fill="#4D0B5E"/>
<path d="M162.607 444.594L255.401 399.84C257.663 398.749 257.664 395.528 255.403 394.436L162.626 349.623C161.81 349.229 160.859 349.225 160.039 349.613L66.6554 393.754C64.379 394.83 64.3608 398.062 66.6249 399.164L159.991 444.589C160.816 444.991 161.78 444.992 162.607 444.594Z" fill="#4D0B5E"/>
</svg>
