<svg width="322" height="507" viewBox="0 0 322 507" fill="none" xmlns="http://www.w3.org/2000/svg">
<rect x="0.5" y="0.5" width="321" height="506" rx="29.5" fill="white" stroke="black"/>
<path d="M254.315 185.588L161.521 230.342C161.383 230.408 161.222 230.408 161.085 230.341L159.991 232.589L161.085 230.341L67.7187 184.916C67.3413 184.732 67.3443 184.193 67.7237 184.014L161.107 139.873C161.244 139.808 161.403 139.809 161.539 139.875L254.316 184.687C254.693 184.869 254.692 185.406 254.315 185.588Z" stroke="#F32333" stroke-width="5"/>
<path d="M254.315 322.588L161.521 367.342C161.383 367.408 161.222 367.408 161.085 367.341L159.991 369.589L161.085 367.341L67.7187 321.916C67.3413 321.732 67.3443 321.193 67.7237 321.014L161.107 276.873C161.244 276.808 161.403 276.809 161.539 276.875L254.316 321.687C254.693 321.869 254.692 322.406 254.315 322.588Z" stroke="#F32333" stroke-width="5"/>
</svg>
