<svg width="322" height="507" viewBox="0 0 322 507" fill="none" xmlns="http://www.w3.org/2000/svg">
<rect x="0.5" y="0.5" width="321" height="506" rx="29.5" fill="white" stroke="black"/>
<path d="M254.315 252.588L161.521 297.342C161.383 297.408 161.222 297.408 161.085 297.341L159.991 299.589L161.085 297.341L67.7187 251.916C67.3413 251.732 67.3443 251.193 67.7237 251.014L161.107 206.873C161.244 206.808 161.403 206.809 161.539 206.875L254.316 251.687C254.693 251.869 254.692 252.406 254.315 252.588Z" stroke="#4D0B5E" stroke-width="5"/>
<path d="M254.315 110.588L161.521 155.342C161.383 155.408 161.222 155.408 161.085 155.341L159.991 157.589L161.085 155.341L67.7187 109.916C67.3413 109.732 67.3443 109.193 67.7237 109.014L161.107 64.8728C161.244 64.8083 161.403 64.8089 161.539 64.8746L254.316 109.687C254.693 109.869 254.692 110.406 254.315 110.588Z" stroke="#4D0B5E" stroke-width="5"/>
<path d="M254.315 397.588L161.521 442.342C161.383 442.408 161.222 442.408 161.085 442.341L159.991 444.589L161.085 442.341L67.7187 396.916C67.3413 396.732 67.3443 396.193 67.7237 396.014L161.107 351.873C161.244 351.808 161.403 351.809 161.539 351.875L254.316 396.687C254.693 396.869 254.692 397.406 254.315 397.588Z" fill="white" stroke="#4D0B5E" stroke-width="5"/>
</svg>
