<svg width="322" height="507" viewBox="0 0 322 507" fill="none" xmlns="http://www.w3.org/2000/svg">
<rect x="0.5" y="0.5" width="321" height="506" rx="29.5" fill="white" stroke="black"/>
<path d="M163.713 204.372L162.626 206.623L163.713 204.372C162.217 203.649 160.473 203.642 158.971 204.352L65.587 248.493C61.4136 250.466 61.3803 256.392 65.5312 258.412L158.897 303.837C160.41 304.573 162.177 304.577 163.693 303.846L256.487 259.092C260.634 257.092 260.636 251.187 256.49 249.185L163.713 204.372Z" stroke="#4D0B5E" stroke-width="5"/>
<mask id="mask0" mask-type="alpha" maskUnits="userSpaceOnUse" x="64" y="206" width="194" height="96">
<path d="M254.315 254.588L161.521 299.342C161.383 299.408 161.222 299.408 161.085 299.341L159.991 301.589L161.085 299.341L67.7187 253.916C67.3413 253.732 67.3443 253.193 67.7237 253.014L161.107 208.873C161.244 208.808 161.403 208.809 161.539 208.875L254.316 253.687C254.693 253.869 254.692 254.406 254.315 254.588Z" fill="#4D0B5E" stroke="#4D0B5E" stroke-width="5"/>
</mask>
<g mask="url(#mask0)">
<line x1="66.949" y1="178" x2="66.949" y2="270" stroke="#4D0B5E"/>
<line x1="71.5612" y1="178" x2="71.5612" y2="270" stroke="#4D0B5E"/>
<line x1="76.1734" y1="178" x2="76.1734" y2="270" stroke="#4D0B5E"/>
<line x1="80.7856" y1="178" x2="80.7856" y2="270" stroke="#4D0B5E"/>
<line x1="85.3981" y1="178" x2="85.3981" y2="270" stroke="#4D0B5E"/>
<line x1="90.0102" y1="178" x2="90.0102" y2="270" stroke="#4D0B5E"/>
<line x1="94.6227" y1="178" x2="94.6227" y2="270" stroke="#4D0B5E"/>
<line x1="99.2346" y1="178" x2="99.2346" y2="270" stroke="#4D0B5E"/>
<line x1="103.847" y1="178" x2="103.847" y2="270" stroke="#4D0B5E"/>
<line x1="108.459" y1="178" x2="108.459" y2="270" stroke="#4D0B5E"/>
<line x1="113.071" y1="178" x2="113.071" y2="270" stroke="#4D0B5E"/>
<line x1="117.684" y1="178" x2="117.684" y2="270" stroke="#4D0B5E"/>
<line x1="122.296" y1="178" x2="122.296" y2="270" stroke="#4D0B5E"/>
<line x1="126.908" y1="178" x2="126.908" y2="270" stroke="#4D0B5E"/>
<line x1="131.52" y1="178" x2="131.52" y2="270" stroke="#4D0B5E"/>
<line x1="136.133" y1="178" x2="136.133" y2="270" stroke="#4D0B5E"/>
<line x1="140.745" y1="178" x2="140.745" y2="270" stroke="#4D0B5E"/>
<line x1="145.357" y1="178" x2="145.357" y2="270" stroke="#4D0B5E"/>
<line x1="149.97" y1="178" x2="149.97" y2="270" stroke="#4D0B5E"/>
<line x1="154.581" y1="178" x2="154.581" y2="270" stroke="#4D0B5E"/>
<line x1="159.194" y1="178" x2="159.194" y2="270" stroke="#4D0B5E"/>
<line x1="163.806" y1="178" x2="163.806" y2="270" stroke="#4D0B5E"/>
<line x1="168.419" y1="178" x2="168.419" y2="270" stroke="#4D0B5E"/>
<line x1="173.03" y1="178" x2="173.03" y2="270" stroke="#4D0B5E"/>
<line x1="177.643" y1="178" x2="177.643" y2="270" stroke="#4D0B5E"/>
<line x1="182.255" y1="178" x2="182.255" y2="270" stroke="#4D0B5E"/>
<line x1="186.867" y1="178" x2="186.867" y2="270" stroke="#4D0B5E"/>
<line x1="191.48" y1="178" x2="191.48" y2="270" stroke="#4D0B5E"/>
<line x1="196.092" y1="178" x2="196.092" y2="270" stroke="#4D0B5E"/>
<line x1="200.704" y1="178" x2="200.704" y2="270" stroke="#4D0B5E"/>
<line x1="205.316" y1="178" x2="205.316" y2="270" stroke="#4D0B5E"/>
<line x1="209.929" y1="178" x2="209.929" y2="270" stroke="#4D0B5E"/>
<line x1="214.541" y1="178" x2="214.541" y2="270" stroke="#4D0B5E"/>
<line x1="219.153" y1="178" x2="219.153" y2="270" stroke="#4D0B5E"/>
<line x1="223.765" y1="178" x2="223.765" y2="270" stroke="#4D0B5E"/>
<line x1="228.377" y1="178" x2="228.377" y2="270" stroke="#4D0B5E"/>
<line x1="232.99" y1="178" x2="232.99" y2="270" stroke="#4D0B5E"/>
<line x1="237.602" y1="178" x2="237.602" y2="270" stroke="#4D0B5E"/>
<line x1="242.214" y1="178" x2="242.214" y2="270" stroke="#4D0B5E"/>
<line x1="246.827" y1="178" x2="246.827" y2="270" stroke="#4D0B5E"/>
<line x1="251.439" y1="178" x2="251.439" y2="270" stroke="#4D0B5E"/>
<line x1="256.051" y1="178" x2="256.051" y2="270" stroke="#4D0B5E"/>
<line x1="66.949" y1="183" x2="66.949" y2="275" stroke="#4D0B5E"/>
<line x1="71.5612" y1="183" x2="71.5612" y2="275" stroke="#4D0B5E"/>
<line x1="76.1734" y1="183" x2="76.1734" y2="275" stroke="#4D0B5E"/>
<line x1="80.7856" y1="183" x2="80.7856" y2="275" stroke="#4D0B5E"/>
<line x1="85.3981" y1="183" x2="85.3981" y2="275" stroke="#4D0B5E"/>
<line x1="90.0102" y1="183" x2="90.0102" y2="275" stroke="#4D0B5E"/>
<line x1="94.6227" y1="183" x2="94.6227" y2="275" stroke="#4D0B5E"/>
<line x1="99.2346" y1="183" x2="99.2346" y2="275" stroke="#4D0B5E"/>
<line x1="103.847" y1="183" x2="103.847" y2="275" stroke="#4D0B5E"/>
<line x1="108.459" y1="183" x2="108.459" y2="275" stroke="#4D0B5E"/>
<line x1="113.071" y1="183" x2="113.071" y2="275" stroke="#4D0B5E"/>
<line x1="117.684" y1="183" x2="117.684" y2="275" stroke="#4D0B5E"/>
<line x1="122.296" y1="183" x2="122.296" y2="275" stroke="#4D0B5E"/>
<line x1="126.908" y1="183" x2="126.908" y2="275" stroke="#4D0B5E"/>
<line x1="131.52" y1="183" x2="131.52" y2="275" stroke="#4D0B5E"/>
<line x1="136.133" y1="183" x2="136.133" y2="275" stroke="#4D0B5E"/>
<line x1="140.745" y1="183" x2="140.745" y2="275" stroke="#4D0B5E"/>
<line x1="145.357" y1="183" x2="145.357" y2="275" stroke="#4D0B5E"/>
<line x1="149.97" y1="183" x2="149.97" y2="275" stroke="#4D0B5E"/>
<line x1="154.581" y1="183" x2="154.581" y2="275" stroke="#4D0B5E"/>
<line x1="159.194" y1="183" x2="159.194" y2="275" stroke="#4D0B5E"/>
<line x1="163.806" y1="183" x2="163.806" y2="275" stroke="#4D0B5E"/>
<line x1="168.419" y1="183" x2="168.419" y2="275" stroke="#4D0B5E"/>
<line x1="173.03" y1="183" x2="173.03" y2="275" stroke="#4D0B5E"/>
<line x1="177.643" y1="183" x2="177.643" y2="275" stroke="#4D0B5E"/>
<line x1="182.255" y1="183" x2="182.255" y2="275" stroke="#4D0B5E"/>
<line x1="186.867" y1="183" x2="186.867" y2="275" stroke="#4D0B5E"/>
<line x1="191.48" y1="183" x2="191.48" y2="275" stroke="#4D0B5E"/>
<line x1="196.092" y1="183" x2="196.092" y2="275" stroke="#4D0B5E"/>
<line x1="200.704" y1="183" x2="200.704" y2="275" stroke="#4D0B5E"/>
<line x1="205.316" y1="183" x2="205.316" y2="275" stroke="#4D0B5E"/>
<line x1="209.929" y1="183" x2="209.929" y2="275" stroke="#4D0B5E"/>
<line x1="214.541" y1="183" x2="214.541" y2="275" stroke="#4D0B5E"/>
<line x1="219.153" y1="183" x2="219.153" y2="275" stroke="#4D0B5E"/>
<line x1="223.765" y1="183" x2="223.765" y2="275" stroke="#4D0B5E"/>
<line x1="228.377" y1="183" x2="228.377" y2="275" stroke="#4D0B5E"/>
<line x1="232.99" y1="183" x2="232.99" y2="275" stroke="#4D0B5E"/>
<line x1="237.602" y1="183" x2="237.602" y2="275" stroke="#4D0B5E"/>
<line x1="242.214" y1="183" x2="242.214" y2="275" stroke="#4D0B5E"/>
<line x1="246.827" y1="183" x2="246.827" y2="275" stroke="#4D0B5E"/>
<line x1="251.439" y1="183" x2="251.439" y2="275" stroke="#4D0B5E"/>
<line x1="256.051" y1="183" x2="256.051" y2="275" stroke="#4D0B5E"/>
<line x1="66.949" y1="188" x2="66.949" y2="280" stroke="#4D0B5E"/>
<line x1="71.5612" y1="188" x2="71.5612" y2="280" stroke="#4D0B5E"/>
<line x1="76.1734" y1="188" x2="76.1734" y2="280" stroke="#4D0B5E"/>
<line x1="80.7856" y1="188" x2="80.7856" y2="280" stroke="#4D0B5E"/>
<line x1="85.3981" y1="188" x2="85.3981" y2="280" stroke="#4D0B5E"/>
<line x1="90.0102" y1="188" x2="90.0102" y2="280" stroke="#4D0B5E"/>
<line x1="94.6227" y1="188" x2="94.6227" y2="280" stroke="#4D0B5E"/>
<line x1="99.2346" y1="188" x2="99.2346" y2="280" stroke="#4D0B5E"/>
<line x1="103.847" y1="188" x2="103.847" y2="280" stroke="#4D0B5E"/>
<line x1="108.459" y1="188" x2="108.459" y2="280" stroke="#4D0B5E"/>
<line x1="113.071" y1="188" x2="113.071" y2="280" stroke="#4D0B5E"/>
<line x1="117.684" y1="188" x2="117.684" y2="280" stroke="#4D0B5E"/>
<line x1="122.296" y1="188" x2="122.296" y2="280" stroke="#4D0B5E"/>
<line x1="126.908" y1="188" x2="126.908" y2="280" stroke="#4D0B5E"/>
<line x1="131.52" y1="188" x2="131.52" y2="280" stroke="#4D0B5E"/>
<line x1="136.133" y1="188" x2="136.133" y2="280" stroke="#4D0B5E"/>
<line x1="140.745" y1="188" x2="140.745" y2="280" stroke="#4D0B5E"/>
<line x1="145.357" y1="188" x2="145.357" y2="280" stroke="#4D0B5E"/>
<line x1="149.97" y1="188" x2="149.97" y2="280" stroke="#4D0B5E"/>
<line x1="154.581" y1="188" x2="154.581" y2="280" stroke="#4D0B5E"/>
<line x1="159.194" y1="188" x2="159.194" y2="280" stroke="#4D0B5E"/>
<line x1="163.806" y1="188" x2="163.806" y2="280" stroke="#4D0B5E"/>
<line x1="168.419" y1="188" x2="168.419" y2="280" stroke="#4D0B5E"/>
<line x1="173.03" y1="188" x2="173.03" y2="280" stroke="#4D0B5E"/>
<line x1="177.643" y1="188" x2="177.643" y2="280" stroke="#4D0B5E"/>
<line x1="182.255" y1="188" x2="182.255" y2="280" stroke="#4D0B5E"/>
<line x1="186.867" y1="188" x2="186.867" y2="280" stroke="#4D0B5E"/>
<line x1="191.48" y1="188" x2="191.48" y2="280" stroke="#4D0B5E"/>
<line x1="196.092" y1="188" x2="196.092" y2="280" stroke="#4D0B5E"/>
<line x1="200.704" y1="188" x2="200.704" y2="280" stroke="#4D0B5E"/>
<line x1="205.316" y1="188" x2="205.316" y2="280" stroke="#4D0B5E"/>
<line x1="209.929" y1="188" x2="209.929" y2="280" stroke="#4D0B5E"/>
<line x1="214.541" y1="188" x2="214.541" y2="280" stroke="#4D0B5E"/>
<line x1="219.153" y1="188" x2="219.153" y2="280" stroke="#4D0B5E"/>
<line x1="223.765" y1="188" x2="223.765" y2="280" stroke="#4D0B5E"/>
<line x1="228.377" y1="188" x2="228.377" y2="280" stroke="#4D0B5E"/>
<line x1="232.99" y1="188" x2="232.99" y2="280" stroke="#4D0B5E"/>
<line x1="237.602" y1="188" x2="237.602" y2="280" stroke="#4D0B5E"/>
<line x1="242.214" y1="188" x2="242.214" y2="280" stroke="#4D0B5E"/>
<line x1="246.827" y1="188" x2="246.827" y2="280" stroke="#4D0B5E"/>
<line x1="251.439" y1="188" x2="251.439" y2="280" stroke="#4D0B5E"/>
<line x1="256.051" y1="188" x2="256.051" y2="280" stroke="#4D0B5E"/>
<line x1="66.949" y1="193" x2="66.949" y2="285" stroke="#4D0B5E"/>
<line x1="71.5612" y1="193" x2="71.5612" y2="285" stroke="#4D0B5E"/>
<line x1="76.1734" y1="193" x2="76.1734" y2="285" stroke="#4D0B5E"/>
<line x1="80.7856" y1="193" x2="80.7856" y2="285" stroke="#4D0B5E"/>
<line x1="85.3981" y1="193" x2="85.3981" y2="285" stroke="#4D0B5E"/>
<line x1="90.0102" y1="193" x2="90.0102" y2="285" stroke="#4D0B5E"/>
<line x1="94.6227" y1="193" x2="94.6227" y2="285" stroke="#4D0B5E"/>
<line x1="99.2346" y1="193" x2="99.2346" y2="285" stroke="#4D0B5E"/>
<line x1="103.847" y1="193" x2="103.847" y2="285" stroke="#4D0B5E"/>
<line x1="108.459" y1="193" x2="108.459" y2="285" stroke="#4D0B5E"/>
<line x1="113.071" y1="193" x2="113.071" y2="285" stroke="#4D0B5E"/>
<line x1="117.684" y1="193" x2="117.684" y2="285" stroke="#4D0B5E"/>
<line x1="122.296" y1="193" x2="122.296" y2="285" stroke="#4D0B5E"/>
<line x1="126.908" y1="193" x2="126.908" y2="285" stroke="#4D0B5E"/>
<line x1="131.52" y1="193" x2="131.52" y2="285" stroke="#4D0B5E"/>
<line x1="136.133" y1="193" x2="136.133" y2="285" stroke="#4D0B5E"/>
<line x1="140.745" y1="193" x2="140.745" y2="285" stroke="#4D0B5E"/>
<line x1="145.357" y1="193" x2="145.357" y2="285" stroke="#4D0B5E"/>
<line x1="149.97" y1="193" x2="149.97" y2="285" stroke="#4D0B5E"/>
<line x1="154.581" y1="193" x2="154.581" y2="285" stroke="#4D0B5E"/>
<line x1="159.194" y1="193" x2="159.194" y2="285" stroke="#4D0B5E"/>
<line x1="163.806" y1="193" x2="163.806" y2="285" stroke="#4D0B5E"/>
<line x1="168.419" y1="193" x2="168.419" y2="285" stroke="#4D0B5E"/>
<line x1="173.03" y1="193" x2="173.03" y2="285" stroke="#4D0B5E"/>
<line x1="177.643" y1="193" x2="177.643" y2="285" stroke="#4D0B5E"/>
<line x1="182.255" y1="193" x2="182.255" y2="285" stroke="#4D0B5E"/>
<line x1="186.867" y1="193" x2="186.867" y2="285" stroke="#4D0B5E"/>
<line x1="191.48" y1="193" x2="191.48" y2="285" stroke="#4D0B5E"/>
<line x1="196.092" y1="193" x2="196.092" y2="285" stroke="#4D0B5E"/>
<line x1="200.704" y1="193" x2="200.704" y2="285" stroke="#4D0B5E"/>
<line x1="205.316" y1="193" x2="205.316" y2="285" stroke="#4D0B5E"/>
<line x1="209.929" y1="193" x2="209.929" y2="285" stroke="#4D0B5E"/>
<line x1="214.541" y1="193" x2="214.541" y2="285" stroke="#4D0B5E"/>
<line x1="219.153" y1="193" x2="219.153" y2="285" stroke="#4D0B5E"/>
<line x1="223.765" y1="193" x2="223.765" y2="285" stroke="#4D0B5E"/>
<line x1="228.377" y1="193" x2="228.377" y2="285" stroke="#4D0B5E"/>
<line x1="232.99" y1="193" x2="232.99" y2="285" stroke="#4D0B5E"/>
<line x1="237.602" y1="193" x2="237.602" y2="285" stroke="#4D0B5E"/>
<line x1="242.214" y1="193" x2="242.214" y2="285" stroke="#4D0B5E"/>
<line x1="246.827" y1="193" x2="246.827" y2="285" stroke="#4D0B5E"/>
<line x1="251.439" y1="193" x2="251.439" y2="285" stroke="#4D0B5E"/>
<line x1="256.051" y1="193" x2="256.051" y2="285" stroke="#4D0B5E"/>
<line x1="66.949" y1="198" x2="66.949" y2="290" stroke="#4D0B5E"/>
<line x1="71.5612" y1="198" x2="71.5612" y2="290" stroke="#4D0B5E"/>
<line x1="76.1734" y1="198" x2="76.1734" y2="290" stroke="#4D0B5E"/>
<line x1="80.7856" y1="198" x2="80.7856" y2="290" stroke="#4D0B5E"/>
<line x1="85.3981" y1="198" x2="85.3981" y2="290" stroke="#4D0B5E"/>
<line x1="90.0102" y1="198" x2="90.0102" y2="290" stroke="#4D0B5E"/>
<line x1="94.6227" y1="198" x2="94.6227" y2="290" stroke="#4D0B5E"/>
<line x1="99.2346" y1="198" x2="99.2346" y2="290" stroke="#4D0B5E"/>
<line x1="103.847" y1="198" x2="103.847" y2="290" stroke="#4D0B5E"/>
<line x1="108.459" y1="198" x2="108.459" y2="290" stroke="#4D0B5E"/>
<line x1="113.071" y1="198" x2="113.071" y2="290" stroke="#4D0B5E"/>
<line x1="117.684" y1="198" x2="117.684" y2="290" stroke="#4D0B5E"/>
<line x1="122.296" y1="198" x2="122.296" y2="290" stroke="#4D0B5E"/>
<line x1="126.908" y1="198" x2="126.908" y2="290" stroke="#4D0B5E"/>
<line x1="131.52" y1="198" x2="131.52" y2="290" stroke="#4D0B5E"/>
<line x1="136.133" y1="198" x2="136.133" y2="290" stroke="#4D0B5E"/>
<line x1="140.745" y1="198" x2="140.745" y2="290" stroke="#4D0B5E"/>
<line x1="145.357" y1="198" x2="145.357" y2="290" stroke="#4D0B5E"/>
<line x1="149.97" y1="198" x2="149.97" y2="290" stroke="#4D0B5E"/>
<line x1="154.581" y1="198" x2="154.581" y2="290" stroke="#4D0B5E"/>
<line x1="159.194" y1="198" x2="159.194" y2="290" stroke="#4D0B5E"/>
<line x1="163.806" y1="198" x2="163.806" y2="290" stroke="#4D0B5E"/>
<line x1="168.419" y1="198" x2="168.419" y2="290" stroke="#4D0B5E"/>
<line x1="173.03" y1="198" x2="173.03" y2="290" stroke="#4D0B5E"/>
<line x1="177.643" y1="198" x2="177.643" y2="290" stroke="#4D0B5E"/>
<line x1="182.255" y1="198" x2="182.255" y2="290" stroke="#4D0B5E"/>
<line x1="186.867" y1="198" x2="186.867" y2="290" stroke="#4D0B5E"/>
<line x1="191.48" y1="198" x2="191.48" y2="290" stroke="#4D0B5E"/>
<line x1="196.092" y1="198" x2="196.092" y2="290" stroke="#4D0B5E"/>
<line x1="200.704" y1="198" x2="200.704" y2="290" stroke="#4D0B5E"/>
<line x1="205.316" y1="198" x2="205.316" y2="290" stroke="#4D0B5E"/>
<line x1="209.929" y1="198" x2="209.929" y2="290" stroke="#4D0B5E"/>
<line x1="214.541" y1="198" x2="214.541" y2="290" stroke="#4D0B5E"/>
<line x1="219.153" y1="198" x2="219.153" y2="290" stroke="#4D0B5E"/>
<line x1="223.765" y1="198" x2="223.765" y2="290" stroke="#4D0B5E"/>
<line x1="228.377" y1="198" x2="228.377" y2="290" stroke="#4D0B5E"/>
<line x1="232.99" y1="198" x2="232.99" y2="290" stroke="#4D0B5E"/>
<line x1="237.602" y1="198" x2="237.602" y2="290" stroke="#4D0B5E"/>
<line x1="242.214" y1="198" x2="242.214" y2="290" stroke="#4D0B5E"/>
<line x1="246.827" y1="198" x2="246.827" y2="290" stroke="#4D0B5E"/>
<line x1="251.439" y1="198" x2="251.439" y2="290" stroke="#4D0B5E"/>
<line x1="256.051" y1="198" x2="256.051" y2="290" stroke="#4D0B5E"/>
<line x1="66.949" y1="203" x2="66.949" y2="295" stroke="#4D0B5E"/>
<line x1="71.5612" y1="203" x2="71.5612" y2="295" stroke="#4D0B5E"/>
<line x1="76.1734" y1="203" x2="76.1734" y2="295" stroke="#4D0B5E"/>
<line x1="80.7856" y1="203" x2="80.7856" y2="295" stroke="#4D0B5E"/>
<line x1="85.3981" y1="203" x2="85.3981" y2="295" stroke="#4D0B5E"/>
<line x1="90.0102" y1="203" x2="90.0102" y2="295" stroke="#4D0B5E"/>
<line x1="94.6227" y1="203" x2="94.6227" y2="295" stroke="#4D0B5E"/>
<line x1="99.2346" y1="203" x2="99.2346" y2="295" stroke="#4D0B5E"/>
<line x1="103.847" y1="203" x2="103.847" y2="295" stroke="#4D0B5E"/>
<line x1="108.459" y1="203" x2="108.459" y2="295" stroke="#4D0B5E"/>
<line x1="113.071" y1="203" x2="113.071" y2="295" stroke="#4D0B5E"/>
<line x1="117.684" y1="203" x2="117.684" y2="295" stroke="#4D0B5E"/>
<line x1="122.296" y1="203" x2="122.296" y2="295" stroke="#4D0B5E"/>
<line x1="126.908" y1="203" x2="126.908" y2="295" stroke="#4D0B5E"/>
<line x1="131.52" y1="203" x2="131.52" y2="295" stroke="#4D0B5E"/>
<line x1="136.133" y1="203" x2="136.133" y2="295" stroke="#4D0B5E"/>
<line x1="140.745" y1="203" x2="140.745" y2="295" stroke="#4D0B5E"/>
<line x1="145.357" y1="203" x2="145.357" y2="295" stroke="#4D0B5E"/>
<line x1="149.97" y1="203" x2="149.97" y2="295" stroke="#4D0B5E"/>
<line x1="154.581" y1="203" x2="154.581" y2="295" stroke="#4D0B5E"/>
<line x1="159.194" y1="203" x2="159.194" y2="295" stroke="#4D0B5E"/>
<line x1="163.806" y1="203" x2="163.806" y2="295" stroke="#4D0B5E"/>
<line x1="168.419" y1="203" x2="168.419" y2="295" stroke="#4D0B5E"/>
<line x1="173.03" y1="203" x2="173.03" y2="295" stroke="#4D0B5E"/>
<line x1="177.643" y1="203" x2="177.643" y2="295" stroke="#4D0B5E"/>
<line x1="182.255" y1="203" x2="182.255" y2="295" stroke="#4D0B5E"/>
<line x1="186.867" y1="203" x2="186.867" y2="295" stroke="#4D0B5E"/>
<line x1="191.48" y1="203" x2="191.48" y2="295" stroke="#4D0B5E"/>
<line x1="196.092" y1="203" x2="196.092" y2="295" stroke="#4D0B5E"/>
<line x1="200.704" y1="203" x2="200.704" y2="295" stroke="#4D0B5E"/>
<line x1="205.316" y1="203" x2="205.316" y2="295" stroke="#4D0B5E"/>
<line x1="209.929" y1="203" x2="209.929" y2="295" stroke="#4D0B5E"/>
<line x1="214.541" y1="203" x2="214.541" y2="295" stroke="#4D0B5E"/>
<line x1="219.153" y1="203" x2="219.153" y2="295" stroke="#4D0B5E"/>
<line x1="223.765" y1="203" x2="223.765" y2="295" stroke="#4D0B5E"/>
<line x1="228.377" y1="203" x2="228.377" y2="295" stroke="#4D0B5E"/>
<line x1="232.99" y1="203" x2="232.99" y2="295" stroke="#4D0B5E"/>
<line x1="237.602" y1="203" x2="237.602" y2="295" stroke="#4D0B5E"/>
<line x1="242.214" y1="203" x2="242.214" y2="295" stroke="#4D0B5E"/>
<line x1="246.827" y1="203" x2="246.827" y2="295" stroke="#4D0B5E"/>
<line x1="251.439" y1="203" x2="251.439" y2="295" stroke="#4D0B5E"/>
<line x1="256.051" y1="203" x2="256.051" y2="295" stroke="#4D0B5E"/>
<line x1="66.949" y1="208" x2="66.949" y2="300" stroke="#4D0B5E"/>
<line x1="71.5612" y1="208" x2="71.5612" y2="300" stroke="#4D0B5E"/>
<line x1="76.1734" y1="208" x2="76.1734" y2="300" stroke="#4D0B5E"/>
<line x1="80.7856" y1="208" x2="80.7856" y2="300" stroke="#4D0B5E"/>
<line x1="85.3981" y1="208" x2="85.3981" y2="300" stroke="#4D0B5E"/>
<line x1="90.0102" y1="208" x2="90.0102" y2="300" stroke="#4D0B5E"/>
<line x1="94.6227" y1="208" x2="94.6227" y2="300" stroke="#4D0B5E"/>
<line x1="99.2346" y1="208" x2="99.2346" y2="300" stroke="#4D0B5E"/>
<line x1="103.847" y1="208" x2="103.847" y2="300" stroke="#4D0B5E"/>
<line x1="108.459" y1="208" x2="108.459" y2="300" stroke="#4D0B5E"/>
<line x1="113.071" y1="208" x2="113.071" y2="300" stroke="#4D0B5E"/>
<line x1="117.684" y1="208" x2="117.684" y2="300" stroke="#4D0B5E"/>
<line x1="122.296" y1="208" x2="122.296" y2="300" stroke="#4D0B5E"/>
<line x1="126.908" y1="208" x2="126.908" y2="300" stroke="#4D0B5E"/>
<line x1="131.52" y1="208" x2="131.52" y2="300" stroke="#4D0B5E"/>
<line x1="136.133" y1="208" x2="136.133" y2="300" stroke="#4D0B5E"/>
<line x1="140.745" y1="208" x2="140.745" y2="300" stroke="#4D0B5E"/>
<line x1="145.357" y1="208" x2="145.357" y2="300" stroke="#4D0B5E"/>
<line x1="149.97" y1="208" x2="149.97" y2="300" stroke="#4D0B5E"/>
<line x1="154.581" y1="208" x2="154.581" y2="300" stroke="#4D0B5E"/>
<line x1="159.194" y1="208" x2="159.194" y2="300" stroke="#4D0B5E"/>
<line x1="163.806" y1="208" x2="163.806" y2="300" stroke="#4D0B5E"/>
<line x1="168.419" y1="208" x2="168.419" y2="300" stroke="#4D0B5E"/>
<line x1="173.03" y1="208" x2="173.03" y2="300" stroke="#4D0B5E"/>
<line x1="177.643" y1="208" x2="177.643" y2="300" stroke="#4D0B5E"/>
<line x1="182.255" y1="208" x2="182.255" y2="300" stroke="#4D0B5E"/>
<line x1="186.867" y1="208" x2="186.867" y2="300" stroke="#4D0B5E"/>
<line x1="191.48" y1="208" x2="191.48" y2="300" stroke="#4D0B5E"/>
<line x1="196.092" y1="208" x2="196.092" y2="300" stroke="#4D0B5E"/>
<line x1="200.704" y1="208" x2="200.704" y2="300" stroke="#4D0B5E"/>
<line x1="205.316" y1="208" x2="205.316" y2="300" stroke="#4D0B5E"/>
<line x1="209.929" y1="208" x2="209.929" y2="300" stroke="#4D0B5E"/>
<line x1="214.541" y1="208" x2="214.541" y2="300" stroke="#4D0B5E"/>
<line x1="219.153" y1="208" x2="219.153" y2="300" stroke="#4D0B5E"/>
<line x1="223.765" y1="208" x2="223.765" y2="300" stroke="#4D0B5E"/>
<line x1="228.377" y1="208" x2="228.377" y2="300" stroke="#4D0B5E"/>
<line x1="232.99" y1="208" x2="232.99" y2="300" stroke="#4D0B5E"/>
<line x1="237.602" y1="208" x2="237.602" y2="300" stroke="#4D0B5E"/>
<line x1="242.214" y1="208" x2="242.214" y2="300" stroke="#4D0B5E"/>
<line x1="246.827" y1="208" x2="246.827" y2="300" stroke="#4D0B5E"/>
<line x1="251.439" y1="208" x2="251.439" y2="300" stroke="#4D0B5E"/>
<line x1="256.051" y1="208" x2="256.051" y2="300" stroke="#4D0B5E"/>
<line x1="66.949" y1="213" x2="66.949" y2="305" stroke="#4D0B5E"/>
<line x1="71.5612" y1="213" x2="71.5612" y2="305" stroke="#4D0B5E"/>
<line x1="76.1734" y1="213" x2="76.1734" y2="305" stroke="#4D0B5E"/>
<line x1="80.7856" y1="213" x2="80.7856" y2="305" stroke="#4D0B5E"/>
<line x1="85.3981" y1="213" x2="85.3981" y2="305" stroke="#4D0B5E"/>
<line x1="90.0102" y1="213" x2="90.0102" y2="305" stroke="#4D0B5E"/>
<line x1="94.6227" y1="213" x2="94.6227" y2="305" stroke="#4D0B5E"/>
<line x1="99.2346" y1="213" x2="99.2346" y2="305" stroke="#4D0B5E"/>
<line x1="103.847" y1="213" x2="103.847" y2="305" stroke="#4D0B5E"/>
<line x1="108.459" y1="213" x2="108.459" y2="305" stroke="#4D0B5E"/>
<line x1="113.071" y1="213" x2="113.071" y2="305" stroke="#4D0B5E"/>
<line x1="117.684" y1="213" x2="117.684" y2="305" stroke="#4D0B5E"/>
<line x1="122.296" y1="213" x2="122.296" y2="305" stroke="#4D0B5E"/>
<line x1="126.908" y1="213" x2="126.908" y2="305" stroke="#4D0B5E"/>
<line x1="131.52" y1="213" x2="131.52" y2="305" stroke="#4D0B5E"/>
<line x1="136.133" y1="213" x2="136.133" y2="305" stroke="#4D0B5E"/>
<line x1="140.745" y1="213" x2="140.745" y2="305" stroke="#4D0B5E"/>
<line x1="145.357" y1="213" x2="145.357" y2="305" stroke="#4D0B5E"/>
<line x1="149.97" y1="213" x2="149.97" y2="305" stroke="#4D0B5E"/>
<line x1="154.581" y1="213" x2="154.581" y2="305" stroke="#4D0B5E"/>
<line x1="159.194" y1="213" x2="159.194" y2="305" stroke="#4D0B5E"/>
<line x1="163.806" y1="213" x2="163.806" y2="305" stroke="#4D0B5E"/>
<line x1="168.419" y1="213" x2="168.419" y2="305" stroke="#4D0B5E"/>
<line x1="173.03" y1="213" x2="173.03" y2="305" stroke="#4D0B5E"/>
<line x1="177.643" y1="213" x2="177.643" y2="305" stroke="#4D0B5E"/>
<line x1="182.255" y1="213" x2="182.255" y2="305" stroke="#4D0B5E"/>
<line x1="186.867" y1="213" x2="186.867" y2="305" stroke="#4D0B5E"/>
<line x1="191.48" y1="213" x2="191.48" y2="305" stroke="#4D0B5E"/>
<line x1="196.092" y1="213" x2="196.092" y2="305" stroke="#4D0B5E"/>
<line x1="200.704" y1="213" x2="200.704" y2="305" stroke="#4D0B5E"/>
<line x1="205.316" y1="213" x2="205.316" y2="305" stroke="#4D0B5E"/>
<line x1="209.929" y1="213" x2="209.929" y2="305" stroke="#4D0B5E"/>
<line x1="214.541" y1="213" x2="214.541" y2="305" stroke="#4D0B5E"/>
<line x1="219.153" y1="213" x2="219.153" y2="305" stroke="#4D0B5E"/>
<line x1="223.765" y1="213" x2="223.765" y2="305" stroke="#4D0B5E"/>
<line x1="228.377" y1="213" x2="228.377" y2="305" stroke="#4D0B5E"/>
<line x1="232.99" y1="213" x2="232.99" y2="305" stroke="#4D0B5E"/>
<line x1="237.602" y1="213" x2="237.602" y2="305" stroke="#4D0B5E"/>
<line x1="242.214" y1="213" x2="242.214" y2="305" stroke="#4D0B5E"/>
<line x1="246.827" y1="213" x2="246.827" y2="305" stroke="#4D0B5E"/>
<line x1="251.439" y1="213" x2="251.439" y2="305" stroke="#4D0B5E"/>
<line x1="256.051" y1="213" x2="256.051" y2="305" stroke="#4D0B5E"/>
<line x1="66.949" y1="218" x2="66.949" y2="310" stroke="#4D0B5E"/>
<line x1="71.5612" y1="218" x2="71.5612" y2="310" stroke="#4D0B5E"/>
<line x1="76.1734" y1="218" x2="76.1734" y2="310" stroke="#4D0B5E"/>
<line x1="80.7856" y1="218" x2="80.7856" y2="310" stroke="#4D0B5E"/>
<line x1="85.3981" y1="218" x2="85.3981" y2="310" stroke="#4D0B5E"/>
<line x1="90.0102" y1="218" x2="90.0102" y2="310" stroke="#4D0B5E"/>
<line x1="94.6227" y1="218" x2="94.6227" y2="310" stroke="#4D0B5E"/>
<line x1="99.2346" y1="218" x2="99.2346" y2="310" stroke="#4D0B5E"/>
<line x1="103.847" y1="218" x2="103.847" y2="310" stroke="#4D0B5E"/>
<line x1="108.459" y1="218" x2="108.459" y2="310" stroke="#4D0B5E"/>
<line x1="113.071" y1="218" x2="113.071" y2="310" stroke="#4D0B5E"/>
<line x1="117.684" y1="218" x2="117.684" y2="310" stroke="#4D0B5E"/>
<line x1="122.296" y1="218" x2="122.296" y2="310" stroke="#4D0B5E"/>
<line x1="126.908" y1="218" x2="126.908" y2="310" stroke="#4D0B5E"/>
<line x1="131.52" y1="218" x2="131.52" y2="310" stroke="#4D0B5E"/>
<line x1="136.133" y1="218" x2="136.133" y2="310" stroke="#4D0B5E"/>
<line x1="140.745" y1="218" x2="140.745" y2="310" stroke="#4D0B5E"/>
<line x1="145.357" y1="218" x2="145.357" y2="310" stroke="#4D0B5E"/>
<line x1="149.97" y1="218" x2="149.97" y2="310" stroke="#4D0B5E"/>
<line x1="154.581" y1="218" x2="154.581" y2="310" stroke="#4D0B5E"/>
<line x1="159.194" y1="218" x2="159.194" y2="310" stroke="#4D0B5E"/>
<line x1="163.806" y1="218" x2="163.806" y2="310" stroke="#4D0B5E"/>
<line x1="168.419" y1="218" x2="168.419" y2="310" stroke="#4D0B5E"/>
<line x1="173.03" y1="218" x2="173.03" y2="310" stroke="#4D0B5E"/>
<line x1="177.643" y1="218" x2="177.643" y2="310" stroke="#4D0B5E"/>
<line x1="182.255" y1="218" x2="182.255" y2="310" stroke="#4D0B5E"/>
<line x1="186.867" y1="218" x2="186.867" y2="310" stroke="#4D0B5E"/>
<line x1="191.48" y1="218" x2="191.48" y2="310" stroke="#4D0B5E"/>
<line x1="196.092" y1="218" x2="196.092" y2="310" stroke="#4D0B5E"/>
<line x1="200.704" y1="218" x2="200.704" y2="310" stroke="#4D0B5E"/>
<line x1="205.316" y1="218" x2="205.316" y2="310" stroke="#4D0B5E"/>
<line x1="209.929" y1="218" x2="209.929" y2="310" stroke="#4D0B5E"/>
<line x1="214.541" y1="218" x2="214.541" y2="310" stroke="#4D0B5E"/>
<line x1="219.153" y1="218" x2="219.153" y2="310" stroke="#4D0B5E"/>
<line x1="223.765" y1="218" x2="223.765" y2="310" stroke="#4D0B5E"/>
<line x1="228.377" y1="218" x2="228.377" y2="310" stroke="#4D0B5E"/>
<line x1="232.99" y1="218" x2="232.99" y2="310" stroke="#4D0B5E"/>
<line x1="237.602" y1="218" x2="237.602" y2="310" stroke="#4D0B5E"/>
<line x1="242.214" y1="218" x2="242.214" y2="310" stroke="#4D0B5E"/>
<line x1="246.827" y1="218" x2="246.827" y2="310" stroke="#4D0B5E"/>
<line x1="251.439" y1="218" x2="251.439" y2="310" stroke="#4D0B5E"/>
<line x1="256.051" y1="218" x2="256.051" y2="310" stroke="#4D0B5E"/>
<line x1="66.949" y1="223" x2="66.949" y2="315" stroke="#4D0B5E"/>
<line x1="71.5612" y1="223" x2="71.5612" y2="315" stroke="#4D0B5E"/>
<line x1="76.1734" y1="223" x2="76.1734" y2="315" stroke="#4D0B5E"/>
<line x1="80.7856" y1="223" x2="80.7856" y2="315" stroke="#4D0B5E"/>
<line x1="85.3981" y1="223" x2="85.3981" y2="315" stroke="#4D0B5E"/>
<line x1="90.0102" y1="223" x2="90.0102" y2="315" stroke="#4D0B5E"/>
<line x1="94.6227" y1="223" x2="94.6227" y2="315" stroke="#4D0B5E"/>
<line x1="99.2346" y1="223" x2="99.2346" y2="315" stroke="#4D0B5E"/>
<line x1="103.847" y1="223" x2="103.847" y2="315" stroke="#4D0B5E"/>
<line x1="108.459" y1="223" x2="108.459" y2="315" stroke="#4D0B5E"/>
<line x1="113.071" y1="223" x2="113.071" y2="315" stroke="#4D0B5E"/>
<line x1="117.684" y1="223" x2="117.684" y2="315" stroke="#4D0B5E"/>
<line x1="122.296" y1="223" x2="122.296" y2="315" stroke="#4D0B5E"/>
<line x1="126.908" y1="223" x2="126.908" y2="315" stroke="#4D0B5E"/>
<line x1="131.52" y1="223" x2="131.52" y2="315" stroke="#4D0B5E"/>
<line x1="136.133" y1="223" x2="136.133" y2="315" stroke="#4D0B5E"/>
<line x1="140.745" y1="223" x2="140.745" y2="315" stroke="#4D0B5E"/>
<line x1="145.357" y1="223" x2="145.357" y2="315" stroke="#4D0B5E"/>
<line x1="149.97" y1="223" x2="149.97" y2="315" stroke="#4D0B5E"/>
<line x1="154.581" y1="223" x2="154.581" y2="315" stroke="#4D0B5E"/>
<line x1="159.194" y1="223" x2="159.194" y2="315" stroke="#4D0B5E"/>
<line x1="163.806" y1="223" x2="163.806" y2="315" stroke="#4D0B5E"/>
<line x1="168.419" y1="223" x2="168.419" y2="315" stroke="#4D0B5E"/>
<line x1="173.03" y1="223" x2="173.03" y2="315" stroke="#4D0B5E"/>
<line x1="177.643" y1="223" x2="177.643" y2="315" stroke="#4D0B5E"/>
<line x1="182.255" y1="223" x2="182.255" y2="315" stroke="#4D0B5E"/>
<line x1="186.867" y1="223" x2="186.867" y2="315" stroke="#4D0B5E"/>
<line x1="191.48" y1="223" x2="191.48" y2="315" stroke="#4D0B5E"/>
<line x1="196.092" y1="223" x2="196.092" y2="315" stroke="#4D0B5E"/>
<line x1="200.704" y1="223" x2="200.704" y2="315" stroke="#4D0B5E"/>
<line x1="205.316" y1="223" x2="205.316" y2="315" stroke="#4D0B5E"/>
<line x1="209.929" y1="223" x2="209.929" y2="315" stroke="#4D0B5E"/>
<line x1="214.541" y1="223" x2="214.541" y2="315" stroke="#4D0B5E"/>
<line x1="219.153" y1="223" x2="219.153" y2="315" stroke="#4D0B5E"/>
<line x1="223.765" y1="223" x2="223.765" y2="315" stroke="#4D0B5E"/>
<line x1="228.377" y1="223" x2="228.377" y2="315" stroke="#4D0B5E"/>
<line x1="232.99" y1="223" x2="232.99" y2="315" stroke="#4D0B5E"/>
<line x1="237.602" y1="223" x2="237.602" y2="315" stroke="#4D0B5E"/>
<line x1="242.214" y1="223" x2="242.214" y2="315" stroke="#4D0B5E"/>
<line x1="246.827" y1="223" x2="246.827" y2="315" stroke="#4D0B5E"/>
<line x1="251.439" y1="223" x2="251.439" y2="315" stroke="#4D0B5E"/>
<line x1="256.051" y1="223" x2="256.051" y2="315" stroke="#4D0B5E"/>
</g>
</svg>
