<svg width="322" height="507" viewBox="0 0 322 507" fill="none" xmlns="http://www.w3.org/2000/svg">
<rect x="0.5" y="0.5" width="321" height="506" rx="29.5" fill="white" stroke="black"/>
<path d="M162.607 299.668L255.407 254.877C257.667 253.786 257.668 250.567 255.408 249.474L162.627 204.624C161.81 204.23 160.858 204.226 160.038 204.613L66.6502 248.791C64.3749 249.867 64.3567 253.098 66.6197 254.2L159.99 299.663C160.816 300.065 161.78 300.067 162.607 299.668Z" fill="#F32333"/>
<path d="M162.607 157.668L255.407 112.877C257.667 111.786 257.668 108.567 255.408 107.474L162.627 62.6244C161.81 62.2295 160.858 62.2255 160.038 62.6135L66.6502 106.791C64.3749 107.867 64.3567 111.098 66.6197 112.2L159.99 157.663C160.816 158.065 161.78 158.067 162.607 157.668Z" fill="#F32333"/>
<path d="M156.607 444.668L249.407 399.877C251.667 398.786 251.668 395.567 249.408 394.474L156.627 349.624C155.81 349.23 154.858 349.226 154.038 349.613L60.6502 393.791C58.3749 394.867 58.3567 398.098 60.6197 399.2L153.99 444.663C154.816 445.065 155.78 445.067 156.607 444.668Z" fill="#F32333"/>
</svg>
