<svg width="322" height="507" viewBox="0 0 322 507" fill="none" xmlns="http://www.w3.org/2000/svg">
<rect x="0.5" y="0.5" width="321" height="506" rx="29.5" fill="white" stroke="black"/>
<path d="M65.3192 430.355C74.4877 439.732 86.9227 445 99.8889 445H222.111C235.077 445 247.512 439.732 256.681 430.355C265.849 420.979 271 408.261 271 395C271 381.739 265.849 369.021 256.681 359.645C247.512 350.268 235.077 345 222.111 345H99.8889C86.9227 345 74.4877 350.268 65.3192 359.645C56.1508 369.021 51 381.739 51 395C51 408.261 56.1508 420.979 65.3192 430.355Z" fill="#F32333"/>
<path d="M65.3192 289.355C74.4877 298.732 86.9227 304 99.8889 304H222.111C235.077 304 247.512 298.732 256.681 289.355C265.849 279.979 271 267.261 271 254C271 240.739 265.849 228.021 256.681 218.645C247.512 209.268 235.077 204 222.111 204H99.8889C86.9227 204 74.4877 209.268 65.3192 218.645C56.1508 228.021 51 240.739 51 254C51 267.261 56.1508 279.979 65.3192 289.355Z" fill="#F32333"/>
<path d="M65.3192 147.355C74.4877 156.732 86.9227 162 99.8889 162H222.111C235.077 162 247.512 156.732 256.681 147.355C265.849 137.979 271 125.261 271 112C271 98.7392 265.849 86.0215 256.681 76.6447C247.512 67.2678 235.077 62 222.111 62H99.8889C86.9227 62 74.4877 67.2678 65.3192 76.6447C56.1508 86.0215 51 98.7392 51 112C51 125.261 56.1508 137.979 65.3192 147.355Z" fill="#F32333"/>
</svg>
