<svg width="322" height="507" viewBox="0 0 322 507" fill="none" xmlns="http://www.w3.org/2000/svg">
<rect x="0.5" y="0.5" width="321" height="506" rx="29.5" fill="white" stroke="black"/>
<path d="M99.8889 373.5C87.059 373.5 74.7523 368.288 65.6767 359.006C56.6008 349.724 51.5 337.132 51.5 324C51.5 310.868 56.6008 298.276 65.6767 288.994C74.7523 279.712 87.059 274.5 99.8889 274.5H222.111C234.941 274.5 247.248 279.712 256.323 288.994C265.399 298.276 270.5 310.868 270.5 324C270.5 337.132 265.399 349.724 256.323 359.006C247.248 368.288 234.941 373.5 222.111 373.5H99.8889Z" fill="#07ED10" stroke="#07ED10"/>
<path d="M99.8889 232.5C87.059 232.5 74.7523 227.288 65.6767 218.006C56.6008 208.724 51.5 196.132 51.5 183C51.5 169.868 56.6008 157.276 65.6767 147.994C74.7523 138.712 87.059 133.5 99.8889 133.5H222.111C234.941 133.5 247.248 138.712 256.323 147.994C265.399 157.276 270.5 169.868 270.5 183C270.5 196.132 265.399 208.724 256.323 218.006C247.248 227.288 234.941 232.5 222.111 232.5H99.8889Z" fill="#07ED10" stroke="#07ED10"/>
</svg>
