<svg width="322" height="507" viewBox="0 0 322 507" fill="none" xmlns="http://www.w3.org/2000/svg">
<rect x="0.5" y="0.5" width="321" height="506" rx="29.5" fill="white" stroke="black"/>
<path d="M99.8889 371.5C87.6041 371.5 75.8109 366.51 67.1067 357.608C58.4007 348.704 53.5 336.616 53.5 324C53.5 311.384 58.4007 299.296 67.1067 290.392C75.8109 281.49 87.6041 276.5 99.8889 276.5H222.111C234.396 276.5 246.189 281.49 254.893 290.392C263.599 299.296 268.5 311.384 268.5 324C268.5 336.616 263.599 348.704 254.893 357.608C246.189 366.51 234.396 371.5 222.111 371.5H99.8889Z" stroke="#07ED10" stroke-width="5"/>
<path d="M99.8889 230.5C87.6041 230.5 75.8109 225.51 67.1067 216.608C58.4007 207.704 53.5 195.616 53.5 183C53.5 170.384 58.4007 158.296 67.1067 149.392C75.8109 140.49 87.6041 135.5 99.8889 135.5H222.111C234.396 135.5 246.189 140.49 254.893 149.392C263.599 158.296 268.5 170.384 268.5 183C268.5 195.616 263.599 207.704 254.893 216.608C246.189 225.51 234.396 230.5 222.111 230.5H99.8889Z" stroke="#07ED10" stroke-width="5"/>
</svg>
