<svg width="324" height="509" viewBox="0 0 324 509" fill="none" xmlns="http://www.w3.org/2000/svg">
<rect x="0.5" y="0.5" width="323" height="508" rx="30.5" fill="white" stroke="black"/>
<path d="M100.889 302.5C88.6041 302.5 76.8109 297.51 68.1067 288.608C59.4007 279.704 54.5 267.616 54.5 255C54.5 242.384 59.4007 230.296 68.1067 221.392C76.8109 212.49 88.6041 207.5 100.889 207.5H223.111C235.396 207.5 247.189 212.49 255.893 221.392C264.599 230.296 269.5 242.384 269.5 255C269.5 267.616 264.599 279.704 255.893 288.608C247.189 297.51 235.396 302.5 223.111 302.5H100.889Z" stroke="#F32333" stroke-width="5"/>
<mask id="mask0" mask-type="alpha" maskUnits="userSpaceOnUse" x="52" y="205" width="220" height="100">
<path d="M100.889 302.5C88.6041 302.5 76.8109 297.51 68.1067 288.608C59.4007 279.704 54.5 267.616 54.5 255C54.5 242.384 59.4007 230.296 68.1067 221.392C76.8109 212.49 88.6041 207.5 100.889 207.5H223.111C235.396 207.5 247.189 212.49 255.893 221.392C264.599 230.296 269.5 242.384 269.5 255C269.5 267.616 264.599 279.704 255.893 288.608C247.189 297.51 235.396 302.5 223.111 302.5H100.889Z" fill="#F32333" stroke="#F32333" stroke-width="5"/>
</mask>
<g mask="url(#mask0)">
<line x1="55.7246" y1="194" x2="55.7246" y2="286" stroke="#F32333"/>
<line x1="60.3369" y1="194" x2="60.3369" y2="286" stroke="#F32333"/>
<line x1="64.949" y1="194" x2="64.949" y2="286" stroke="#F32333"/>
<line x1="69.5613" y1="194" x2="69.5613" y2="286" stroke="#F32333"/>
<line x1="74.1733" y1="194" x2="74.1733" y2="286" stroke="#F32333"/>
<line x1="78.7856" y1="194" x2="78.7856" y2="286" stroke="#F32333"/>
<line x1="83.3979" y1="194" x2="83.3979" y2="286" stroke="#F32333"/>
<line x1="88.0103" y1="194" x2="88.0103" y2="286" stroke="#F32333"/>
<line x1="92.6228" y1="194" x2="92.6228" y2="286" stroke="#F32333"/>
<line x1="97.2346" y1="194" x2="97.2346" y2="286" stroke="#F32333"/>
<line x1="101.847" y1="194" x2="101.847" y2="286" stroke="#F32333"/>
<line x1="106.459" y1="194" x2="106.459" y2="286" stroke="#F32333"/>
<line x1="111.072" y1="194" x2="111.072" y2="286" stroke="#F32333"/>
<line x1="115.684" y1="194" x2="115.684" y2="286" stroke="#F32333"/>
<line x1="120.296" y1="194" x2="120.296" y2="286" stroke="#F32333"/>
<line x1="124.908" y1="194" x2="124.908" y2="286" stroke="#F32333"/>
<line x1="129.521" y1="194" x2="129.521" y2="286" stroke="#F32333"/>
<line x1="134.133" y1="194" x2="134.133" y2="286" stroke="#F32333"/>
<line x1="138.745" y1="194" x2="138.745" y2="286" stroke="#F32333"/>
<line x1="143.357" y1="194" x2="143.357" y2="286" stroke="#F32333"/>
<line x1="147.969" y1="194" x2="147.969" y2="286" stroke="#F32333"/>
<line x1="152.582" y1="194" x2="152.582" y2="286" stroke="#F32333"/>
<line x1="157.194" y1="194" x2="157.194" y2="286" stroke="#F32333"/>
<line x1="161.806" y1="194" x2="161.806" y2="286" stroke="#F32333"/>
<line x1="166.418" y1="194" x2="166.418" y2="286" stroke="#F32333"/>
<line x1="171.031" y1="194" x2="171.031" y2="286" stroke="#F32333"/>
<line x1="175.643" y1="194" x2="175.643" y2="286" stroke="#F32333"/>
<line x1="180.255" y1="194" x2="180.255" y2="286" stroke="#F32333"/>
<line x1="184.867" y1="194" x2="184.867" y2="286" stroke="#F32333"/>
<line x1="189.479" y1="194" x2="189.479" y2="286" stroke="#F32333"/>
<line x1="194.092" y1="194" x2="194.092" y2="286" stroke="#F32333"/>
<line x1="198.704" y1="194" x2="198.704" y2="286" stroke="#F32333"/>
<line x1="203.316" y1="194" x2="203.316" y2="286" stroke="#F32333"/>
<line x1="207.928" y1="194" x2="207.928" y2="286" stroke="#F32333"/>
<line x1="212.541" y1="194" x2="212.541" y2="286" stroke="#F32333"/>
<line x1="217.153" y1="194" x2="217.153" y2="286" stroke="#F32333"/>
<line x1="221.765" y1="194" x2="221.765" y2="286" stroke="#F32333"/>
<line x1="226.377" y1="194" x2="226.377" y2="286" stroke="#F32333"/>
<line x1="230.99" y1="194" x2="230.99" y2="286" stroke="#F32333"/>
<line x1="235.602" y1="194" x2="235.602" y2="286" stroke="#F32333"/>
<line x1="240.214" y1="194" x2="240.214" y2="286" stroke="#F32333"/>
<line x1="244.827" y1="194" x2="244.827" y2="286" stroke="#F32333"/>
<line x1="249.439" y1="194" x2="249.439" y2="286" stroke="#F32333"/>
<line x1="254.051" y1="194" x2="254.051" y2="286" stroke="#F32333"/>
<line x1="258.663" y1="194" x2="258.663" y2="286" stroke="#F32333"/>
<line x1="263.276" y1="194" x2="263.276" y2="286" stroke="#F32333"/>
<line x1="267.887" y1="194" x2="267.887" y2="286" stroke="#F32333"/>
<line x1="55.7246" y1="199" x2="55.7246" y2="291" stroke="#F32333"/>
<line x1="60.3369" y1="199" x2="60.3369" y2="291" stroke="#F32333"/>
<line x1="64.949" y1="199" x2="64.949" y2="291" stroke="#F32333"/>
<line x1="69.5613" y1="199" x2="69.5613" y2="291" stroke="#F32333"/>
<line x1="74.1733" y1="199" x2="74.1733" y2="291" stroke="#F32333"/>
<line x1="78.7856" y1="199" x2="78.7856" y2="291" stroke="#F32333"/>
<line x1="83.3979" y1="199" x2="83.3979" y2="291" stroke="#F32333"/>
<line x1="88.0103" y1="199" x2="88.0103" y2="291" stroke="#F32333"/>
<line x1="92.6228" y1="199" x2="92.6228" y2="291" stroke="#F32333"/>
<line x1="97.2346" y1="199" x2="97.2346" y2="291" stroke="#F32333"/>
<line x1="101.847" y1="199" x2="101.847" y2="291" stroke="#F32333"/>
<line x1="106.459" y1="199" x2="106.459" y2="291" stroke="#F32333"/>
<line x1="111.072" y1="199" x2="111.072" y2="291" stroke="#F32333"/>
<line x1="115.684" y1="199" x2="115.684" y2="291" stroke="#F32333"/>
<line x1="120.296" y1="199" x2="120.296" y2="291" stroke="#F32333"/>
<line x1="124.908" y1="199" x2="124.908" y2="291" stroke="#F32333"/>
<line x1="129.521" y1="199" x2="129.521" y2="291" stroke="#F32333"/>
<line x1="134.133" y1="199" x2="134.133" y2="291" stroke="#F32333"/>
<line x1="138.745" y1="199" x2="138.745" y2="291" stroke="#F32333"/>
<line x1="143.357" y1="199" x2="143.357" y2="291" stroke="#F32333"/>
<line x1="147.969" y1="199" x2="147.969" y2="291" stroke="#F32333"/>
<line x1="152.582" y1="199" x2="152.582" y2="291" stroke="#F32333"/>
<line x1="157.194" y1="199" x2="157.194" y2="291" stroke="#F32333"/>
<line x1="161.806" y1="199" x2="161.806" y2="291" stroke="#F32333"/>
<line x1="166.418" y1="199" x2="166.418" y2="291" stroke="#F32333"/>
<line x1="171.031" y1="199" x2="171.031" y2="291" stroke="#F32333"/>
<line x1="175.643" y1="199" x2="175.643" y2="291" stroke="#F32333"/>
<line x1="180.255" y1="199" x2="180.255" y2="291" stroke="#F32333"/>
<line x1="184.867" y1="199" x2="184.867" y2="291" stroke="#F32333"/>
<line x1="189.479" y1="199" x2="189.479" y2="291" stroke="#F32333"/>
<line x1="194.092" y1="199" x2="194.092" y2="291" stroke="#F32333"/>
<line x1="198.704" y1="199" x2="198.704" y2="291" stroke="#F32333"/>
<line x1="203.316" y1="199" x2="203.316" y2="291" stroke="#F32333"/>
<line x1="207.928" y1="199" x2="207.928" y2="291" stroke="#F32333"/>
<line x1="212.541" y1="199" x2="212.541" y2="291" stroke="#F32333"/>
<line x1="217.153" y1="199" x2="217.153" y2="291" stroke="#F32333"/>
<line x1="221.765" y1="199" x2="221.765" y2="291" stroke="#F32333"/>
<line x1="226.377" y1="199" x2="226.377" y2="291" stroke="#F32333"/>
<line x1="230.99" y1="199" x2="230.99" y2="291" stroke="#F32333"/>
<line x1="235.602" y1="199" x2="235.602" y2="291" stroke="#F32333"/>
<line x1="240.214" y1="199" x2="240.214" y2="291" stroke="#F32333"/>
<line x1="244.827" y1="199" x2="244.827" y2="291" stroke="#F32333"/>
<line x1="249.439" y1="199" x2="249.439" y2="291" stroke="#F32333"/>
<line x1="254.051" y1="199" x2="254.051" y2="291" stroke="#F32333"/>
<line x1="258.663" y1="199" x2="258.663" y2="291" stroke="#F32333"/>
<line x1="263.276" y1="199" x2="263.276" y2="291" stroke="#F32333"/>
<line x1="267.887" y1="199" x2="267.887" y2="291" stroke="#F32333"/>
<line x1="55.7246" y1="204" x2="55.7246" y2="296" stroke="#F32333"/>
<line x1="60.3369" y1="204" x2="60.3369" y2="296" stroke="#F32333"/>
<line x1="64.949" y1="204" x2="64.949" y2="296" stroke="#F32333"/>
<line x1="69.5613" y1="204" x2="69.5613" y2="296" stroke="#F32333"/>
<line x1="74.1733" y1="204" x2="74.1733" y2="296" stroke="#F32333"/>
<line x1="78.7856" y1="204" x2="78.7856" y2="296" stroke="#F32333"/>
<line x1="83.3979" y1="204" x2="83.3979" y2="296" stroke="#F32333"/>
<line x1="88.0103" y1="204" x2="88.0103" y2="296" stroke="#F32333"/>
<line x1="92.6228" y1="204" x2="92.6228" y2="296" stroke="#F32333"/>
<line x1="97.2346" y1="204" x2="97.2346" y2="296" stroke="#F32333"/>
<line x1="101.847" y1="204" x2="101.847" y2="296" stroke="#F32333"/>
<line x1="106.459" y1="204" x2="106.459" y2="296" stroke="#F32333"/>
<line x1="111.072" y1="204" x2="111.072" y2="296" stroke="#F32333"/>
<line x1="115.684" y1="204" x2="115.684" y2="296" stroke="#F32333"/>
<line x1="120.296" y1="204" x2="120.296" y2="296" stroke="#F32333"/>
<line x1="124.908" y1="204" x2="124.908" y2="296" stroke="#F32333"/>
<line x1="129.521" y1="204" x2="129.521" y2="296" stroke="#F32333"/>
<line x1="134.133" y1="204" x2="134.133" y2="296" stroke="#F32333"/>
<line x1="138.745" y1="204" x2="138.745" y2="296" stroke="#F32333"/>
<line x1="143.357" y1="204" x2="143.357" y2="296" stroke="#F32333"/>
<line x1="147.969" y1="204" x2="147.969" y2="296" stroke="#F32333"/>
<line x1="152.582" y1="204" x2="152.582" y2="296" stroke="#F32333"/>
<line x1="157.194" y1="204" x2="157.194" y2="296" stroke="#F32333"/>
<line x1="161.806" y1="204" x2="161.806" y2="296" stroke="#F32333"/>
<line x1="166.418" y1="204" x2="166.418" y2="296" stroke="#F32333"/>
<line x1="171.031" y1="204" x2="171.031" y2="296" stroke="#F32333"/>
<line x1="175.643" y1="204" x2="175.643" y2="296" stroke="#F32333"/>
<line x1="180.255" y1="204" x2="180.255" y2="296" stroke="#F32333"/>
<line x1="184.867" y1="204" x2="184.867" y2="296" stroke="#F32333"/>
<line x1="189.479" y1="204" x2="189.479" y2="296" stroke="#F32333"/>
<line x1="194.092" y1="204" x2="194.092" y2="296" stroke="#F32333"/>
<line x1="198.704" y1="204" x2="198.704" y2="296" stroke="#F32333"/>
<line x1="203.316" y1="204" x2="203.316" y2="296" stroke="#F32333"/>
<line x1="207.928" y1="204" x2="207.928" y2="296" stroke="#F32333"/>
<line x1="212.541" y1="204" x2="212.541" y2="296" stroke="#F32333"/>
<line x1="217.153" y1="204" x2="217.153" y2="296" stroke="#F32333"/>
<line x1="221.765" y1="204" x2="221.765" y2="296" stroke="#F32333"/>
<line x1="226.377" y1="204" x2="226.377" y2="296" stroke="#F32333"/>
<line x1="230.99" y1="204" x2="230.99" y2="296" stroke="#F32333"/>
<line x1="235.602" y1="204" x2="235.602" y2="296" stroke="#F32333"/>
<line x1="240.214" y1="204" x2="240.214" y2="296" stroke="#F32333"/>
<line x1="244.827" y1="204" x2="244.827" y2="296" stroke="#F32333"/>
<line x1="249.439" y1="204" x2="249.439" y2="296" stroke="#F32333"/>
<line x1="254.051" y1="204" x2="254.051" y2="296" stroke="#F32333"/>
<line x1="258.663" y1="204" x2="258.663" y2="296" stroke="#F32333"/>
<line x1="263.276" y1="204" x2="263.276" y2="296" stroke="#F32333"/>
<line x1="267.887" y1="204" x2="267.887" y2="296" stroke="#F32333"/>
<line x1="55.7246" y1="209" x2="55.7246" y2="301" stroke="#F32333"/>
<line x1="60.3369" y1="209" x2="60.3369" y2="301" stroke="#F32333"/>
<line x1="64.949" y1="209" x2="64.949" y2="301" stroke="#F32333"/>
<line x1="69.5613" y1="209" x2="69.5613" y2="301" stroke="#F32333"/>
<line x1="74.1733" y1="209" x2="74.1733" y2="301" stroke="#F32333"/>
<line x1="78.7856" y1="209" x2="78.7856" y2="301" stroke="#F32333"/>
<line x1="83.3979" y1="209" x2="83.3979" y2="301" stroke="#F32333"/>
<line x1="88.0103" y1="209" x2="88.0103" y2="301" stroke="#F32333"/>
<line x1="92.6228" y1="209" x2="92.6228" y2="301" stroke="#F32333"/>
<line x1="97.2346" y1="209" x2="97.2346" y2="301" stroke="#F32333"/>
<line x1="101.847" y1="209" x2="101.847" y2="301" stroke="#F32333"/>
<line x1="106.459" y1="209" x2="106.459" y2="301" stroke="#F32333"/>
<line x1="111.072" y1="209" x2="111.072" y2="301" stroke="#F32333"/>
<line x1="115.684" y1="209" x2="115.684" y2="301" stroke="#F32333"/>
<line x1="120.296" y1="209" x2="120.296" y2="301" stroke="#F32333"/>
<line x1="124.908" y1="209" x2="124.908" y2="301" stroke="#F32333"/>
<line x1="129.521" y1="209" x2="129.521" y2="301" stroke="#F32333"/>
<line x1="134.133" y1="209" x2="134.133" y2="301" stroke="#F32333"/>
<line x1="138.745" y1="209" x2="138.745" y2="301" stroke="#F32333"/>
<line x1="143.357" y1="209" x2="143.357" y2="301" stroke="#F32333"/>
<line x1="147.969" y1="209" x2="147.969" y2="301" stroke="#F32333"/>
<line x1="152.582" y1="209" x2="152.582" y2="301" stroke="#F32333"/>
<line x1="157.194" y1="209" x2="157.194" y2="301" stroke="#F32333"/>
<line x1="161.806" y1="209" x2="161.806" y2="301" stroke="#F32333"/>
<line x1="166.418" y1="209" x2="166.418" y2="301" stroke="#F32333"/>
<line x1="171.031" y1="209" x2="171.031" y2="301" stroke="#F32333"/>
<line x1="175.643" y1="209" x2="175.643" y2="301" stroke="#F32333"/>
<line x1="180.255" y1="209" x2="180.255" y2="301" stroke="#F32333"/>
<line x1="184.867" y1="209" x2="184.867" y2="301" stroke="#F32333"/>
<line x1="189.479" y1="209" x2="189.479" y2="301" stroke="#F32333"/>
<line x1="194.092" y1="209" x2="194.092" y2="301" stroke="#F32333"/>
<line x1="198.704" y1="209" x2="198.704" y2="301" stroke="#F32333"/>
<line x1="203.316" y1="209" x2="203.316" y2="301" stroke="#F32333"/>
<line x1="207.928" y1="209" x2="207.928" y2="301" stroke="#F32333"/>
<line x1="212.541" y1="209" x2="212.541" y2="301" stroke="#F32333"/>
<line x1="217.153" y1="209" x2="217.153" y2="301" stroke="#F32333"/>
<line x1="221.765" y1="209" x2="221.765" y2="301" stroke="#F32333"/>
<line x1="226.377" y1="209" x2="226.377" y2="301" stroke="#F32333"/>
<line x1="230.99" y1="209" x2="230.99" y2="301" stroke="#F32333"/>
<line x1="235.602" y1="209" x2="235.602" y2="301" stroke="#F32333"/>
<line x1="240.214" y1="209" x2="240.214" y2="301" stroke="#F32333"/>
<line x1="244.827" y1="209" x2="244.827" y2="301" stroke="#F32333"/>
<line x1="249.439" y1="209" x2="249.439" y2="301" stroke="#F32333"/>
<line x1="254.051" y1="209" x2="254.051" y2="301" stroke="#F32333"/>
<line x1="258.663" y1="209" x2="258.663" y2="301" stroke="#F32333"/>
<line x1="263.276" y1="209" x2="263.276" y2="301" stroke="#F32333"/>
<line x1="267.887" y1="209" x2="267.887" y2="301" stroke="#F32333"/>
<line x1="55.7246" y1="214" x2="55.7246" y2="306" stroke="#F32333"/>
<line x1="60.3369" y1="214" x2="60.3369" y2="306" stroke="#F32333"/>
<line x1="64.949" y1="214" x2="64.949" y2="306" stroke="#F32333"/>
<line x1="69.5613" y1="214" x2="69.5613" y2="306" stroke="#F32333"/>
<line x1="74.1733" y1="214" x2="74.1733" y2="306" stroke="#F32333"/>
<line x1="78.7856" y1="214" x2="78.7856" y2="306" stroke="#F32333"/>
<line x1="83.3979" y1="214" x2="83.3979" y2="306" stroke="#F32333"/>
<line x1="88.0103" y1="214" x2="88.0103" y2="306" stroke="#F32333"/>
<line x1="92.6228" y1="214" x2="92.6228" y2="306" stroke="#F32333"/>
<line x1="97.2346" y1="214" x2="97.2346" y2="306" stroke="#F32333"/>
<line x1="101.847" y1="214" x2="101.847" y2="306" stroke="#F32333"/>
<line x1="106.459" y1="214" x2="106.459" y2="306" stroke="#F32333"/>
<line x1="111.072" y1="214" x2="111.072" y2="306" stroke="#F32333"/>
<line x1="115.684" y1="214" x2="115.684" y2="306" stroke="#F32333"/>
<line x1="120.296" y1="214" x2="120.296" y2="306" stroke="#F32333"/>
<line x1="124.908" y1="214" x2="124.908" y2="306" stroke="#F32333"/>
<line x1="129.521" y1="214" x2="129.521" y2="306" stroke="#F32333"/>
<line x1="134.133" y1="214" x2="134.133" y2="306" stroke="#F32333"/>
<line x1="138.745" y1="214" x2="138.745" y2="306" stroke="#F32333"/>
<line x1="143.357" y1="214" x2="143.357" y2="306" stroke="#F32333"/>
<line x1="147.969" y1="214" x2="147.969" y2="306" stroke="#F32333"/>
<line x1="152.582" y1="214" x2="152.582" y2="306" stroke="#F32333"/>
<line x1="157.194" y1="214" x2="157.194" y2="306" stroke="#F32333"/>
<line x1="161.806" y1="214" x2="161.806" y2="306" stroke="#F32333"/>
<line x1="166.418" y1="214" x2="166.418" y2="306" stroke="#F32333"/>
<line x1="171.031" y1="214" x2="171.031" y2="306" stroke="#F32333"/>
<line x1="175.643" y1="214" x2="175.643" y2="306" stroke="#F32333"/>
<line x1="180.255" y1="214" x2="180.255" y2="306" stroke="#F32333"/>
<line x1="184.867" y1="214" x2="184.867" y2="306" stroke="#F32333"/>
<line x1="189.479" y1="214" x2="189.479" y2="306" stroke="#F32333"/>
<line x1="194.092" y1="214" x2="194.092" y2="306" stroke="#F32333"/>
<line x1="198.704" y1="214" x2="198.704" y2="306" stroke="#F32333"/>
<line x1="203.316" y1="214" x2="203.316" y2="306" stroke="#F32333"/>
<line x1="207.928" y1="214" x2="207.928" y2="306" stroke="#F32333"/>
<line x1="212.541" y1="214" x2="212.541" y2="306" stroke="#F32333"/>
<line x1="217.153" y1="214" x2="217.153" y2="306" stroke="#F32333"/>
<line x1="221.765" y1="214" x2="221.765" y2="306" stroke="#F32333"/>
<line x1="226.377" y1="214" x2="226.377" y2="306" stroke="#F32333"/>
<line x1="230.99" y1="214" x2="230.99" y2="306" stroke="#F32333"/>
<line x1="235.602" y1="214" x2="235.602" y2="306" stroke="#F32333"/>
<line x1="240.214" y1="214" x2="240.214" y2="306" stroke="#F32333"/>
<line x1="244.827" y1="214" x2="244.827" y2="306" stroke="#F32333"/>
<line x1="249.439" y1="214" x2="249.439" y2="306" stroke="#F32333"/>
<line x1="254.051" y1="214" x2="254.051" y2="306" stroke="#F32333"/>
<line x1="258.663" y1="214" x2="258.663" y2="306" stroke="#F32333"/>
<line x1="263.276" y1="214" x2="263.276" y2="306" stroke="#F32333"/>
<line x1="267.887" y1="214" x2="267.887" y2="306" stroke="#F32333"/>
<line x1="55.7246" y1="219" x2="55.7246" y2="311" stroke="#F32333"/>
<line x1="60.3369" y1="219" x2="60.3369" y2="311" stroke="#F32333"/>
<line x1="64.949" y1="219" x2="64.949" y2="311" stroke="#F32333"/>
<line x1="69.5613" y1="219" x2="69.5613" y2="311" stroke="#F32333"/>
<line x1="74.1733" y1="219" x2="74.1733" y2="311" stroke="#F32333"/>
<line x1="78.7856" y1="219" x2="78.7856" y2="311" stroke="#F32333"/>
<line x1="83.3979" y1="219" x2="83.3979" y2="311" stroke="#F32333"/>
<line x1="88.0103" y1="219" x2="88.0103" y2="311" stroke="#F32333"/>
<line x1="92.6228" y1="219" x2="92.6228" y2="311" stroke="#F32333"/>
<line x1="97.2346" y1="219" x2="97.2346" y2="311" stroke="#F32333"/>
<line x1="101.847" y1="219" x2="101.847" y2="311" stroke="#F32333"/>
<line x1="106.459" y1="219" x2="106.459" y2="311" stroke="#F32333"/>
<line x1="111.072" y1="219" x2="111.072" y2="311" stroke="#F32333"/>
<line x1="115.684" y1="219" x2="115.684" y2="311" stroke="#F32333"/>
<line x1="120.296" y1="219" x2="120.296" y2="311" stroke="#F32333"/>
<line x1="124.908" y1="219" x2="124.908" y2="311" stroke="#F32333"/>
<line x1="129.521" y1="219" x2="129.521" y2="311" stroke="#F32333"/>
<line x1="134.133" y1="219" x2="134.133" y2="311" stroke="#F32333"/>
<line x1="138.745" y1="219" x2="138.745" y2="311" stroke="#F32333"/>
<line x1="143.357" y1="219" x2="143.357" y2="311" stroke="#F32333"/>
<line x1="147.969" y1="219" x2="147.969" y2="311" stroke="#F32333"/>
<line x1="152.582" y1="219" x2="152.582" y2="311" stroke="#F32333"/>
<line x1="157.194" y1="219" x2="157.194" y2="311" stroke="#F32333"/>
<line x1="161.806" y1="219" x2="161.806" y2="311" stroke="#F32333"/>
<line x1="166.418" y1="219" x2="166.418" y2="311" stroke="#F32333"/>
<line x1="171.031" y1="219" x2="171.031" y2="311" stroke="#F32333"/>
<line x1="175.643" y1="219" x2="175.643" y2="311" stroke="#F32333"/>
<line x1="180.255" y1="219" x2="180.255" y2="311" stroke="#F32333"/>
<line x1="184.867" y1="219" x2="184.867" y2="311" stroke="#F32333"/>
<line x1="189.479" y1="219" x2="189.479" y2="311" stroke="#F32333"/>
<line x1="194.092" y1="219" x2="194.092" y2="311" stroke="#F32333"/>
<line x1="198.704" y1="219" x2="198.704" y2="311" stroke="#F32333"/>
<line x1="203.316" y1="219" x2="203.316" y2="311" stroke="#F32333"/>
<line x1="207.928" y1="219" x2="207.928" y2="311" stroke="#F32333"/>
<line x1="212.541" y1="219" x2="212.541" y2="311" stroke="#F32333"/>
<line x1="217.153" y1="219" x2="217.153" y2="311" stroke="#F32333"/>
<line x1="221.765" y1="219" x2="221.765" y2="311" stroke="#F32333"/>
<line x1="226.377" y1="219" x2="226.377" y2="311" stroke="#F32333"/>
<line x1="230.99" y1="219" x2="230.99" y2="311" stroke="#F32333"/>
<line x1="235.602" y1="219" x2="235.602" y2="311" stroke="#F32333"/>
<line x1="240.214" y1="219" x2="240.214" y2="311" stroke="#F32333"/>
<line x1="244.827" y1="219" x2="244.827" y2="311" stroke="#F32333"/>
<line x1="249.439" y1="219" x2="249.439" y2="311" stroke="#F32333"/>
<line x1="254.051" y1="219" x2="254.051" y2="311" stroke="#F32333"/>
<line x1="258.663" y1="219" x2="258.663" y2="311" stroke="#F32333"/>
<line x1="263.276" y1="219" x2="263.276" y2="311" stroke="#F32333"/>
<line x1="267.887" y1="219" x2="267.887" y2="311" stroke="#F32333"/>
<line x1="55.7246" y1="224" x2="55.7246" y2="316" stroke="#F32333"/>
<line x1="60.3369" y1="224" x2="60.3369" y2="316" stroke="#F32333"/>
<line x1="64.949" y1="224" x2="64.949" y2="316" stroke="#F32333"/>
<line x1="69.5613" y1="224" x2="69.5613" y2="316" stroke="#F32333"/>
<line x1="74.1733" y1="224" x2="74.1733" y2="316" stroke="#F32333"/>
<line x1="78.7856" y1="224" x2="78.7856" y2="316" stroke="#F32333"/>
<line x1="83.3979" y1="224" x2="83.3979" y2="316" stroke="#F32333"/>
<line x1="88.0103" y1="224" x2="88.0103" y2="316" stroke="#F32333"/>
<line x1="92.6228" y1="224" x2="92.6228" y2="316" stroke="#F32333"/>
<line x1="97.2346" y1="224" x2="97.2346" y2="316" stroke="#F32333"/>
<line x1="101.847" y1="224" x2="101.847" y2="316" stroke="#F32333"/>
<line x1="106.459" y1="224" x2="106.459" y2="316" stroke="#F32333"/>
<line x1="111.072" y1="224" x2="111.072" y2="316" stroke="#F32333"/>
<line x1="115.684" y1="224" x2="115.684" y2="316" stroke="#F32333"/>
<line x1="120.296" y1="224" x2="120.296" y2="316" stroke="#F32333"/>
<line x1="124.908" y1="224" x2="124.908" y2="316" stroke="#F32333"/>
<line x1="129.521" y1="224" x2="129.521" y2="316" stroke="#F32333"/>
<line x1="134.133" y1="224" x2="134.133" y2="316" stroke="#F32333"/>
<line x1="138.745" y1="224" x2="138.745" y2="316" stroke="#F32333"/>
<line x1="143.357" y1="224" x2="143.357" y2="316" stroke="#F32333"/>
<line x1="147.969" y1="224" x2="147.969" y2="316" stroke="#F32333"/>
<line x1="152.582" y1="224" x2="152.582" y2="316" stroke="#F32333"/>
<line x1="157.194" y1="224" x2="157.194" y2="316" stroke="#F32333"/>
<line x1="161.806" y1="224" x2="161.806" y2="316" stroke="#F32333"/>
<line x1="166.418" y1="224" x2="166.418" y2="316" stroke="#F32333"/>
<line x1="171.031" y1="224" x2="171.031" y2="316" stroke="#F32333"/>
<line x1="175.643" y1="224" x2="175.643" y2="316" stroke="#F32333"/>
<line x1="180.255" y1="224" x2="180.255" y2="316" stroke="#F32333"/>
<line x1="184.867" y1="224" x2="184.867" y2="316" stroke="#F32333"/>
<line x1="189.479" y1="224" x2="189.479" y2="316" stroke="#F32333"/>
<line x1="194.092" y1="224" x2="194.092" y2="316" stroke="#F32333"/>
<line x1="198.704" y1="224" x2="198.704" y2="316" stroke="#F32333"/>
<line x1="203.316" y1="224" x2="203.316" y2="316" stroke="#F32333"/>
<line x1="207.928" y1="224" x2="207.928" y2="316" stroke="#F32333"/>
<line x1="212.541" y1="224" x2="212.541" y2="316" stroke="#F32333"/>
<line x1="217.153" y1="224" x2="217.153" y2="316" stroke="#F32333"/>
<line x1="221.765" y1="224" x2="221.765" y2="316" stroke="#F32333"/>
<line x1="226.377" y1="224" x2="226.377" y2="316" stroke="#F32333"/>
<line x1="230.99" y1="224" x2="230.99" y2="316" stroke="#F32333"/>
<line x1="235.602" y1="224" x2="235.602" y2="316" stroke="#F32333"/>
<line x1="240.214" y1="224" x2="240.214" y2="316" stroke="#F32333"/>
<line x1="244.827" y1="224" x2="244.827" y2="316" stroke="#F32333"/>
<line x1="249.439" y1="224" x2="249.439" y2="316" stroke="#F32333"/>
<line x1="254.051" y1="224" x2="254.051" y2="316" stroke="#F32333"/>
<line x1="258.663" y1="224" x2="258.663" y2="316" stroke="#F32333"/>
<line x1="263.276" y1="224" x2="263.276" y2="316" stroke="#F32333"/>
<line x1="267.887" y1="224" x2="267.887" y2="316" stroke="#F32333"/>
<line x1="55.7246" y1="229" x2="55.7246" y2="321" stroke="#F32333"/>
<line x1="60.3369" y1="229" x2="60.3369" y2="321" stroke="#F32333"/>
<line x1="64.949" y1="229" x2="64.949" y2="321" stroke="#F32333"/>
<line x1="69.5613" y1="229" x2="69.5613" y2="321" stroke="#F32333"/>
<line x1="74.1733" y1="229" x2="74.1733" y2="321" stroke="#F32333"/>
<line x1="78.7856" y1="229" x2="78.7856" y2="321" stroke="#F32333"/>
<line x1="83.3979" y1="229" x2="83.3979" y2="321" stroke="#F32333"/>
<line x1="88.0103" y1="229" x2="88.0103" y2="321" stroke="#F32333"/>
<line x1="92.6228" y1="229" x2="92.6228" y2="321" stroke="#F32333"/>
<line x1="97.2346" y1="229" x2="97.2346" y2="321" stroke="#F32333"/>
<line x1="101.847" y1="229" x2="101.847" y2="321" stroke="#F32333"/>
<line x1="106.459" y1="229" x2="106.459" y2="321" stroke="#F32333"/>
<line x1="111.072" y1="229" x2="111.072" y2="321" stroke="#F32333"/>
<line x1="115.684" y1="229" x2="115.684" y2="321" stroke="#F32333"/>
<line x1="120.296" y1="229" x2="120.296" y2="321" stroke="#F32333"/>
<line x1="124.908" y1="229" x2="124.908" y2="321" stroke="#F32333"/>
<line x1="129.521" y1="229" x2="129.521" y2="321" stroke="#F32333"/>
<line x1="134.133" y1="229" x2="134.133" y2="321" stroke="#F32333"/>
<line x1="138.745" y1="229" x2="138.745" y2="321" stroke="#F32333"/>
<line x1="143.357" y1="229" x2="143.357" y2="321" stroke="#F32333"/>
<line x1="147.969" y1="229" x2="147.969" y2="321" stroke="#F32333"/>
<line x1="152.582" y1="229" x2="152.582" y2="321" stroke="#F32333"/>
<line x1="157.194" y1="229" x2="157.194" y2="321" stroke="#F32333"/>
<line x1="161.806" y1="229" x2="161.806" y2="321" stroke="#F32333"/>
<line x1="166.418" y1="229" x2="166.418" y2="321" stroke="#F32333"/>
<line x1="171.031" y1="229" x2="171.031" y2="321" stroke="#F32333"/>
<line x1="175.643" y1="229" x2="175.643" y2="321" stroke="#F32333"/>
<line x1="180.255" y1="229" x2="180.255" y2="321" stroke="#F32333"/>
<line x1="184.867" y1="229" x2="184.867" y2="321" stroke="#F32333"/>
<line x1="189.479" y1="229" x2="189.479" y2="321" stroke="#F32333"/>
<line x1="194.092" y1="229" x2="194.092" y2="321" stroke="#F32333"/>
<line x1="198.704" y1="229" x2="198.704" y2="321" stroke="#F32333"/>
<line x1="203.316" y1="229" x2="203.316" y2="321" stroke="#F32333"/>
<line x1="207.928" y1="229" x2="207.928" y2="321" stroke="#F32333"/>
<line x1="212.541" y1="229" x2="212.541" y2="321" stroke="#F32333"/>
<line x1="217.153" y1="229" x2="217.153" y2="321" stroke="#F32333"/>
<line x1="221.765" y1="229" x2="221.765" y2="321" stroke="#F32333"/>
<line x1="226.377" y1="229" x2="226.377" y2="321" stroke="#F32333"/>
<line x1="230.99" y1="229" x2="230.99" y2="321" stroke="#F32333"/>
<line x1="235.602" y1="229" x2="235.602" y2="321" stroke="#F32333"/>
<line x1="240.214" y1="229" x2="240.214" y2="321" stroke="#F32333"/>
<line x1="244.827" y1="229" x2="244.827" y2="321" stroke="#F32333"/>
<line x1="249.439" y1="229" x2="249.439" y2="321" stroke="#F32333"/>
<line x1="254.051" y1="229" x2="254.051" y2="321" stroke="#F32333"/>
<line x1="258.663" y1="229" x2="258.663" y2="321" stroke="#F32333"/>
<line x1="263.276" y1="229" x2="263.276" y2="321" stroke="#F32333"/>
<line x1="267.887" y1="229" x2="267.887" y2="321" stroke="#F32333"/>
<line x1="55.7246" y1="234" x2="55.7246" y2="326" stroke="#F32333"/>
<line x1="60.3369" y1="234" x2="60.3369" y2="326" stroke="#F32333"/>
<line x1="64.949" y1="234" x2="64.949" y2="326" stroke="#F32333"/>
<line x1="69.5613" y1="234" x2="69.5613" y2="326" stroke="#F32333"/>
<line x1="74.1733" y1="234" x2="74.1733" y2="326" stroke="#F32333"/>
<line x1="78.7856" y1="234" x2="78.7856" y2="326" stroke="#F32333"/>
<line x1="83.3979" y1="234" x2="83.3979" y2="326" stroke="#F32333"/>
<line x1="88.0103" y1="234" x2="88.0103" y2="326" stroke="#F32333"/>
<line x1="92.6228" y1="234" x2="92.6228" y2="326" stroke="#F32333"/>
<line x1="97.2346" y1="234" x2="97.2346" y2="326" stroke="#F32333"/>
<line x1="101.847" y1="234" x2="101.847" y2="326" stroke="#F32333"/>
<line x1="106.459" y1="234" x2="106.459" y2="326" stroke="#F32333"/>
<line x1="111.072" y1="234" x2="111.072" y2="326" stroke="#F32333"/>
<line x1="115.684" y1="234" x2="115.684" y2="326" stroke="#F32333"/>
<line x1="120.296" y1="234" x2="120.296" y2="326" stroke="#F32333"/>
<line x1="124.908" y1="234" x2="124.908" y2="326" stroke="#F32333"/>
<line x1="129.521" y1="234" x2="129.521" y2="326" stroke="#F32333"/>
<line x1="134.133" y1="234" x2="134.133" y2="326" stroke="#F32333"/>
<line x1="138.745" y1="234" x2="138.745" y2="326" stroke="#F32333"/>
<line x1="143.357" y1="234" x2="143.357" y2="326" stroke="#F32333"/>
<line x1="147.969" y1="234" x2="147.969" y2="326" stroke="#F32333"/>
<line x1="152.582" y1="234" x2="152.582" y2="326" stroke="#F32333"/>
<line x1="157.194" y1="234" x2="157.194" y2="326" stroke="#F32333"/>
<line x1="161.806" y1="234" x2="161.806" y2="326" stroke="#F32333"/>
<line x1="166.418" y1="234" x2="166.418" y2="326" stroke="#F32333"/>
<line x1="171.031" y1="234" x2="171.031" y2="326" stroke="#F32333"/>
<line x1="175.643" y1="234" x2="175.643" y2="326" stroke="#F32333"/>
<line x1="180.255" y1="234" x2="180.255" y2="326" stroke="#F32333"/>
<line x1="184.867" y1="234" x2="184.867" y2="326" stroke="#F32333"/>
<line x1="189.479" y1="234" x2="189.479" y2="326" stroke="#F32333"/>
<line x1="194.092" y1="234" x2="194.092" y2="326" stroke="#F32333"/>
<line x1="198.704" y1="234" x2="198.704" y2="326" stroke="#F32333"/>
<line x1="203.316" y1="234" x2="203.316" y2="326" stroke="#F32333"/>
<line x1="207.928" y1="234" x2="207.928" y2="326" stroke="#F32333"/>
<line x1="212.541" y1="234" x2="212.541" y2="326" stroke="#F32333"/>
<line x1="217.153" y1="234" x2="217.153" y2="326" stroke="#F32333"/>
<line x1="221.765" y1="234" x2="221.765" y2="326" stroke="#F32333"/>
<line x1="226.377" y1="234" x2="226.377" y2="326" stroke="#F32333"/>
<line x1="230.99" y1="234" x2="230.99" y2="326" stroke="#F32333"/>
<line x1="235.602" y1="234" x2="235.602" y2="326" stroke="#F32333"/>
<line x1="240.214" y1="234" x2="240.214" y2="326" stroke="#F32333"/>
<line x1="244.827" y1="234" x2="244.827" y2="326" stroke="#F32333"/>
<line x1="249.439" y1="234" x2="249.439" y2="326" stroke="#F32333"/>
<line x1="254.051" y1="234" x2="254.051" y2="326" stroke="#F32333"/>
<line x1="258.663" y1="234" x2="258.663" y2="326" stroke="#F32333"/>
<line x1="263.276" y1="234" x2="263.276" y2="326" stroke="#F32333"/>
<line x1="267.887" y1="234" x2="267.887" y2="326" stroke="#F32333"/>
<line x1="55.7246" y1="239" x2="55.7246" y2="331" stroke="#F32333"/>
<line x1="60.3369" y1="239" x2="60.3369" y2="331" stroke="#F32333"/>
<line x1="64.949" y1="239" x2="64.949" y2="331" stroke="#F32333"/>
<line x1="69.5613" y1="239" x2="69.5613" y2="331" stroke="#F32333"/>
<line x1="74.1733" y1="239" x2="74.1733" y2="331" stroke="#F32333"/>
<line x1="78.7856" y1="239" x2="78.7856" y2="331" stroke="#F32333"/>
<line x1="83.3979" y1="239" x2="83.3979" y2="331" stroke="#F32333"/>
<line x1="88.0103" y1="239" x2="88.0103" y2="331" stroke="#F32333"/>
<line x1="92.6228" y1="239" x2="92.6228" y2="331" stroke="#F32333"/>
<line x1="97.2346" y1="239" x2="97.2346" y2="331" stroke="#F32333"/>
<line x1="101.847" y1="239" x2="101.847" y2="331" stroke="#F32333"/>
<line x1="106.459" y1="239" x2="106.459" y2="331" stroke="#F32333"/>
<line x1="111.072" y1="239" x2="111.072" y2="331" stroke="#F32333"/>
<line x1="115.684" y1="239" x2="115.684" y2="331" stroke="#F32333"/>
<line x1="120.296" y1="239" x2="120.296" y2="331" stroke="#F32333"/>
<line x1="124.908" y1="239" x2="124.908" y2="331" stroke="#F32333"/>
<line x1="129.521" y1="239" x2="129.521" y2="331" stroke="#F32333"/>
<line x1="134.133" y1="239" x2="134.133" y2="331" stroke="#F32333"/>
<line x1="138.745" y1="239" x2="138.745" y2="331" stroke="#F32333"/>
<line x1="143.357" y1="239" x2="143.357" y2="331" stroke="#F32333"/>
<line x1="147.969" y1="239" x2="147.969" y2="331" stroke="#F32333"/>
<line x1="152.582" y1="239" x2="152.582" y2="331" stroke="#F32333"/>
<line x1="157.194" y1="239" x2="157.194" y2="331" stroke="#F32333"/>
<line x1="161.806" y1="239" x2="161.806" y2="331" stroke="#F32333"/>
<line x1="166.418" y1="239" x2="166.418" y2="331" stroke="#F32333"/>
<line x1="171.031" y1="239" x2="171.031" y2="331" stroke="#F32333"/>
<line x1="175.643" y1="239" x2="175.643" y2="331" stroke="#F32333"/>
<line x1="180.255" y1="239" x2="180.255" y2="331" stroke="#F32333"/>
<line x1="184.867" y1="239" x2="184.867" y2="331" stroke="#F32333"/>
<line x1="189.479" y1="239" x2="189.479" y2="331" stroke="#F32333"/>
<line x1="194.092" y1="239" x2="194.092" y2="331" stroke="#F32333"/>
<line x1="198.704" y1="239" x2="198.704" y2="331" stroke="#F32333"/>
<line x1="203.316" y1="239" x2="203.316" y2="331" stroke="#F32333"/>
<line x1="207.928" y1="239" x2="207.928" y2="331" stroke="#F32333"/>
<line x1="212.541" y1="239" x2="212.541" y2="331" stroke="#F32333"/>
<line x1="217.153" y1="239" x2="217.153" y2="331" stroke="#F32333"/>
<line x1="221.765" y1="239" x2="221.765" y2="331" stroke="#F32333"/>
<line x1="226.377" y1="239" x2="226.377" y2="331" stroke="#F32333"/>
<line x1="230.99" y1="239" x2="230.99" y2="331" stroke="#F32333"/>
<line x1="235.602" y1="239" x2="235.602" y2="331" stroke="#F32333"/>
<line x1="240.214" y1="239" x2="240.214" y2="331" stroke="#F32333"/>
<line x1="244.827" y1="239" x2="244.827" y2="331" stroke="#F32333"/>
<line x1="249.439" y1="239" x2="249.439" y2="331" stroke="#F32333"/>
<line x1="254.051" y1="239" x2="254.051" y2="331" stroke="#F32333"/>
<line x1="258.663" y1="239" x2="258.663" y2="331" stroke="#F32333"/>
<line x1="263.276" y1="239" x2="263.276" y2="331" stroke="#F32333"/>
<line x1="267.887" y1="239" x2="267.887" y2="331" stroke="#F32333"/>
</g>
</svg>
