<svg width="322" height="507" viewBox="0 0 322 507" fill="none" xmlns="http://www.w3.org/2000/svg">
<rect x="0.5" y="0.5" width="321" height="506" rx="29.5" fill="white" stroke="black"/>
<path d="M99.8889 442.5C87.6041 442.5 75.8109 437.51 67.1067 428.608C58.4007 419.704 53.5 407.616 53.5 395C53.5 382.384 58.4007 370.296 67.1067 361.392C75.8109 352.49 87.6041 347.5 99.8889 347.5H222.111C234.396 347.5 246.189 352.49 254.893 361.392C263.599 370.296 268.5 382.384 268.5 395C268.5 407.616 263.599 419.704 254.893 428.608C246.189 437.51 234.396 442.5 222.111 442.5H99.8889Z" stroke="#F32333" stroke-width="5"/>
<path d="M99.8889 301.5C87.6041 301.5 75.8109 296.51 67.1067 287.608C58.4007 278.704 53.5 266.616 53.5 254C53.5 241.384 58.4007 229.296 67.1067 220.392C75.8109 211.49 87.6041 206.5 99.8889 206.5H222.111C234.396 206.5 246.189 211.49 254.893 220.392C263.599 229.296 268.5 241.384 268.5 254C268.5 266.616 263.599 278.704 254.893 287.608C246.189 296.51 234.396 301.5 222.111 301.5H99.8889Z" stroke="#F32333" stroke-width="5"/>
<path d="M99.8889 159.5C87.6041 159.5 75.8109 154.51 67.1067 145.608C58.4007 136.704 53.5 124.616 53.5 112C53.5 99.3843 58.4007 87.2963 67.1067 78.3925C75.8109 69.4905 87.6041 64.5 99.8889 64.5H222.111C234.396 64.5 246.189 69.4905 254.893 78.3925C263.599 87.2963 268.5 99.3843 268.5 112C268.5 124.616 263.599 136.704 254.893 145.608C246.189 154.51 234.396 159.5 222.111 159.5H99.8889Z" stroke="#F32333" stroke-width="5"/>
</svg>
