<svg width="322" height="507" viewBox="0 0 322 507" fill="none" xmlns="http://www.w3.org/2000/svg">
<rect x="0.5" y="0.5" width="321" height="506" rx="29.5" fill="white" stroke="black"/>
<path d="M68.6707 227.109C62.6115 219.984 60.657 211.318 61.0479 193.409C61.4388 163.369 76.6844 143.727 103.267 138.527C117.144 135.831 137.667 139.298 160.731 148.348C173.826 153.548 177.54 154.318 188.877 153.548C202.558 152.585 218.781 146.423 230.313 137.757C238.327 131.787 246.927 131.402 252.986 136.794C259.241 142.571 261 148.541 261 163.369C261 183.588 249.664 203.423 232.072 214.399C211.159 227.301 190.44 228.457 159.949 218.443C148.612 214.784 137.862 211.703 136.103 211.703C127.699 211.703 111.476 217.673 100.335 224.798C84.5027 235.004 76.0981 235.582 68.6707 227.109Z" fill="#4D0B5E"/>
<path d="M68.6707 368.109C62.6115 360.984 60.657 352.318 61.0479 334.409C61.4388 304.369 76.6844 284.727 103.267 279.527C117.144 276.831 137.667 280.298 160.731 289.348C173.826 294.548 177.54 295.318 188.877 294.548C202.558 293.585 218.781 287.423 230.313 278.757C238.327 272.787 246.927 272.402 252.986 277.794C259.241 283.571 261 289.541 261 304.369C261 324.588 249.664 344.423 232.072 355.399C211.159 368.301 190.44 369.457 159.949 359.443C148.612 355.784 137.862 352.703 136.103 352.703C127.699 352.703 111.476 358.673 100.335 365.798C84.5027 376.004 76.0981 376.582 68.6707 368.109Z" fill="#4D0B5E"/>
</svg>
