<svg width="322" height="507" viewBox="0 0 322 507" fill="none" xmlns="http://www.w3.org/2000/svg">
<rect x="0.5" y="0.5" width="321" height="506" rx="29.5" fill="white" stroke="black"/>
<path d="M59.4378 155.109C52.7727 147.984 50.6227 139.318 51.0527 121.409C51.4827 91.3686 68.2529 71.7266 97.4932 66.5273C112.758 63.8313 135.334 67.2975 160.704 76.3483C175.109 81.5476 179.194 82.3179 191.664 81.5476C206.714 80.5848 224.56 74.4226 237.245 65.757C246.06 59.7874 255.52 59.4022 262.185 64.7941C269.065 70.5712 271 76.5408 271 91.3686C271 111.588 258.53 131.423 239.18 142.399C216.174 155.301 193.384 156.457 159.844 146.443C147.374 142.784 135.549 139.703 133.614 139.703C124.368 139.703 106.523 145.673 94.2681 152.798C76.853 163.004 67.6079 163.582 59.4378 155.109Z" fill="#FF0000"/>
<path d="M59.4378 297.109C52.7727 289.984 50.6227 281.318 51.0527 263.409C51.4827 233.369 68.2529 213.727 97.4932 208.527C112.758 205.831 135.334 209.298 160.704 218.348C175.109 223.548 179.194 224.318 191.664 223.548C206.714 222.585 224.56 216.423 237.245 207.757C246.06 201.787 255.52 201.402 262.185 206.794C269.065 212.571 271 218.541 271 233.369C271 253.588 258.53 273.423 239.18 284.399C216.174 297.301 193.384 298.457 159.844 288.443C147.374 284.784 135.549 281.703 133.614 281.703C124.368 281.703 106.523 287.673 94.2681 294.798C76.853 305.004 67.6079 305.582 59.4378 297.109Z" fill="#FF0000"/>
<path d="M59.4378 438.109C52.7727 430.984 50.6227 422.318 51.0527 404.409C51.4827 374.369 68.2529 354.727 97.4932 349.527C112.758 346.831 135.334 350.297 160.704 359.348C175.109 364.548 179.194 365.318 191.664 364.548C206.714 363.585 224.56 357.423 237.245 348.757C246.06 342.787 255.52 342.402 262.185 347.794C269.065 353.571 271 359.541 271 374.369C271 394.588 258.53 414.423 239.18 425.399C216.174 438.301 193.384 439.457 159.844 429.443C147.374 425.784 135.549 422.703 133.614 422.703C124.368 422.703 106.523 428.673 94.2681 435.798C76.853 446.004 67.6078 446.582 59.4378 438.109Z" fill="#FF0000"/>
</svg>
