<svg width="322" height="507" viewBox="0 0 322 507" fill="none" xmlns="http://www.w3.org/2000/svg">
<rect x="0.5" y="0.5" width="321" height="506" rx="29.5" fill="white" stroke="black"/>
<path d="M59.4378 156.109C52.7727 148.984 50.6227 140.318 51.0527 122.409C51.4827 92.3686 68.2529 72.7266 97.4932 67.5273C112.758 64.8313 135.334 68.2975 160.704 77.3483C175.109 82.5476 179.194 83.3179 191.664 82.5476C206.714 81.5848 224.56 75.4226 237.245 66.757C246.06 60.7874 255.52 60.4022 262.185 65.7941C269.065 71.5712 271 77.5408 271 92.3686C271 112.588 258.53 132.423 239.18 143.399C216.174 156.301 193.384 157.457 159.844 147.443C147.374 143.784 135.549 140.703 133.614 140.703C124.368 140.703 106.523 146.673 94.2681 153.798C76.853 164.004 67.6079 164.582 59.4378 156.109Z" fill="#4D0B5E"/>
<path d="M71.4378 298.109C64.7727 290.984 62.6227 282.318 63.0527 264.409C63.4827 234.369 80.2529 214.727 109.493 209.527C124.758 206.831 147.334 210.298 172.704 219.348C187.109 224.548 191.194 225.318 203.664 224.548C218.714 223.585 236.56 217.423 249.245 208.757C258.06 202.787 267.52 202.402 274.185 207.794C281.065 213.571 283 219.541 283 234.369C283 254.588 270.53 274.423 251.18 285.399C228.174 298.301 205.384 299.457 171.844 289.443C159.374 285.784 147.549 282.703 145.614 282.703C136.368 282.703 118.523 288.673 106.268 295.798C88.853 306.004 79.6079 306.582 71.4378 298.109Z" fill="#4D0B5E"/>
<path d="M71.4378 439.109C64.7727 431.984 62.6227 423.318 63.0527 405.409C63.4827 375.369 80.2529 355.727 109.493 350.527C124.758 347.831 147.334 351.298 172.704 360.348C187.109 365.548 191.194 366.318 203.664 365.548C218.714 364.585 236.56 358.423 249.245 349.757C258.06 343.787 267.52 343.402 274.185 348.794C281.065 354.571 283 360.541 283 375.369C283 395.588 270.53 415.423 251.18 426.399C228.174 439.301 205.384 440.457 171.844 430.443C159.374 426.784 147.549 423.703 145.614 423.703C136.368 423.703 118.523 429.673 106.268 436.798C88.853 447.004 79.6079 447.582 71.4378 439.109Z" fill="#4D0B5E"/>
</svg>
