<svg width="322" height="507" viewBox="0 0 322 507" fill="none" xmlns="http://www.w3.org/2000/svg">
<rect x="0.5" y="0.5" width="321" height="506" rx="29.5" fill="white" stroke="black"/>
<path d="M59.4378 298.109C52.7727 290.984 50.6227 282.318 51.0527 264.409C51.4827 234.369 68.2529 214.727 97.4932 209.527C112.758 206.831 135.334 210.298 160.704 219.348C175.109 224.548 179.194 225.318 191.664 224.548C206.714 223.585 224.56 217.423 237.245 208.757C246.06 202.787 255.52 202.402 262.185 207.794C269.065 213.571 271 219.541 271 234.369C271 254.588 258.53 274.423 239.18 285.399C216.174 298.301 193.384 299.457 159.844 289.443C147.374 285.784 135.549 282.703 133.614 282.703C124.368 282.703 106.523 288.673 94.2681 295.798C76.853 306.004 67.6079 306.582 59.4378 298.109Z" fill="#07ED10"/>
</svg>
