<svg width="322" height="507" viewBox="0 0 322 507" fill="none" xmlns="http://www.w3.org/2000/svg">
<rect x="0.5" y="0.5" width="321" height="506" rx="29.5" fill="white" stroke="black"/>
<path d="M53.552 193.469L53.5523 193.457L53.5524 193.445C53.7608 178.889 57.9178 167.062 65.3756 158.27C72.8328 149.478 83.7711 143.507 97.9295 140.989C112.561 138.405 134.644 141.706 159.86 150.701C167.056 153.299 171.866 154.864 176.49 155.651C181.157 156.446 185.524 156.432 191.818 156.043L191.824 156.043C207.326 155.051 225.6 148.738 238.651 139.824C246.84 134.28 255.035 134.24 260.595 138.724C263.741 141.369 265.63 143.932 266.799 147.471C268.011 151.142 268.5 156.007 268.5 163.369C268.5 182.569 256.623 201.628 237.951 212.222C215.713 224.692 193.669 225.933 160.559 216.048L160.548 216.044C154.293 214.209 148.192 212.517 143.403 211.281C141.01 210.663 138.928 210.155 137.311 209.8C135.819 209.472 134.426 209.203 133.614 209.203C128.584 209.203 121.506 210.798 114.279 213.207C106.997 215.634 99.3113 218.974 93.0116 222.637L93.0041 222.641C84.3653 227.704 78.1223 230.142 73.2226 230.463C68.5759 230.768 64.9127 229.18 61.2505 225.387C55.2944 219.012 53.1261 211.206 53.552 193.469Z" fill="white" stroke="#07ED10" stroke-width="5"/>
<mask id="mask0" mask-type="alpha" maskUnits="userSpaceOnUse" x="51" y="133" width="220" height="100">
<path d="M51.5526 193.421L51.5526 193.416C51.7663 178.489 56.0378 166.187 63.8504 156.976C71.6629 147.765 83.0526 141.603 97.5804 139.02C112.719 136.346 135.196 139.779 160.535 148.819C167.736 151.418 172.396 152.925 176.826 153.679C181.264 154.435 185.448 154.433 191.695 154.047L191.696 154.047C206.837 153.078 224.768 146.886 237.526 138.17C246.216 132.286 255.423 131.97 261.867 137.18C265.248 140.02 267.389 142.882 268.698 146.844C270.015 150.833 270.5 155.965 270.5 163.369C270.5 183.384 258.149 203.064 238.934 213.964C216.082 226.779 193.441 227.952 159.987 217.964L159.985 217.963C153.746 216.133 147.666 214.446 142.903 213.217C140.522 212.603 138.466 212.101 136.882 211.754C135.323 211.411 134.163 211.203 133.614 211.203C128.91 211.203 122.076 212.716 114.911 215.104C107.736 217.496 100.179 220.783 94.0168 224.366L94.0153 224.367C85.3215 229.462 78.7408 232.106 73.3533 232.459C68.0165 232.809 63.8008 230.912 59.8002 226.764C53.2771 219.789 51.1234 211.296 51.5526 193.421Z" fill="white" stroke="#FF0000"/>
</mask>
<g mask="url(#mask0)">
<line x1="55.0746" y1="127.118" x2="55.0746" y2="227.949" stroke="#07ED10"/>
<line x1="59.8234" y1="127.118" x2="59.8234" y2="227.949" stroke="#07ED10"/>
<line x1="64.5722" y1="127.118" x2="64.5722" y2="227.949" stroke="#07ED10"/>
<line x1="69.3211" y1="127.118" x2="69.3211" y2="227.949" stroke="#07ED10"/>
<line x1="74.0699" y1="127.118" x2="74.0699" y2="227.949" stroke="#07ED10"/>
<line x1="78.8186" y1="127.118" x2="78.8186" y2="227.949" stroke="#07ED10"/>
<line x1="83.5675" y1="127.118" x2="83.5675" y2="227.949" stroke="#07ED10"/>
<line x1="88.3163" y1="127.118" x2="88.3163" y2="227.949" stroke="#07ED10"/>
<line x1="93.0652" y1="127.118" x2="93.0652" y2="227.949" stroke="#07ED10"/>
<line x1="97.8139" y1="127.118" x2="97.8139" y2="227.949" stroke="#07ED10"/>
<line x1="102.563" y1="127.118" x2="102.563" y2="227.949" stroke="#07ED10"/>
<line x1="107.312" y1="127.118" x2="107.312" y2="227.949" stroke="#07ED10"/>
<line x1="112.061" y1="127.118" x2="112.061" y2="227.949" stroke="#07ED10"/>
<line x1="116.809" y1="127.118" x2="116.809" y2="227.949" stroke="#07ED10"/>
<line x1="121.558" y1="127.118" x2="121.558" y2="227.949" stroke="#07ED10"/>
<line x1="126.307" y1="127.118" x2="126.307" y2="227.949" stroke="#07ED10"/>
<line x1="131.056" y1="127.118" x2="131.056" y2="227.949" stroke="#07ED10"/>
<line x1="135.805" y1="127.118" x2="135.805" y2="227.949" stroke="#07ED10"/>
<line x1="140.553" y1="127.118" x2="140.553" y2="227.949" stroke="#07ED10"/>
<line x1="145.302" y1="127.118" x2="145.302" y2="227.949" stroke="#07ED10"/>
<line x1="150.051" y1="127.118" x2="150.051" y2="227.949" stroke="#07ED10"/>
<line x1="154.8" y1="127.118" x2="154.8" y2="227.949" stroke="#07ED10"/>
<line x1="159.549" y1="127.118" x2="159.549" y2="227.949" stroke="#07ED10"/>
<line x1="164.297" y1="127.118" x2="164.297" y2="227.949" stroke="#07ED10"/>
<line x1="169.046" y1="127.118" x2="169.046" y2="227.949" stroke="#07ED10"/>
<line x1="173.795" y1="127.118" x2="173.795" y2="227.949" stroke="#07ED10"/>
<line x1="178.544" y1="127.118" x2="178.544" y2="227.949" stroke="#07ED10"/>
<line x1="183.293" y1="127.118" x2="183.293" y2="227.949" stroke="#07ED10"/>
<line x1="188.042" y1="127.118" x2="188.042" y2="227.949" stroke="#07ED10"/>
<line x1="192.79" y1="127.118" x2="192.79" y2="227.949" stroke="#07ED10"/>
<line x1="197.539" y1="127.118" x2="197.539" y2="227.949" stroke="#07ED10"/>
<line x1="202.288" y1="127.118" x2="202.288" y2="227.949" stroke="#07ED10"/>
<line x1="207.037" y1="127.118" x2="207.037" y2="227.949" stroke="#07ED10"/>
<line x1="211.786" y1="127.118" x2="211.786" y2="227.949" stroke="#07ED10"/>
<line x1="216.534" y1="127.118" x2="216.534" y2="227.949" stroke="#07ED10"/>
<line x1="221.283" y1="127.118" x2="221.283" y2="227.949" stroke="#07ED10"/>
<line x1="226.032" y1="127.118" x2="226.032" y2="227.949" stroke="#07ED10"/>
<line x1="230.781" y1="127.118" x2="230.781" y2="227.949" stroke="#07ED10"/>
<line x1="235.53" y1="127.118" x2="235.53" y2="227.949" stroke="#07ED10"/>
<line x1="240.279" y1="127.118" x2="240.279" y2="227.949" stroke="#07ED10"/>
<line x1="245.028" y1="127.118" x2="245.028" y2="227.949" stroke="#07ED10"/>
<line x1="249.776" y1="127.118" x2="249.776" y2="227.949" stroke="#07ED10"/>
<line x1="254.525" y1="127.118" x2="254.525" y2="227.949" stroke="#07ED10"/>
<line x1="259.274" y1="127.118" x2="259.274" y2="227.949" stroke="#07ED10"/>
<line x1="264.023" y1="127.118" x2="264.023" y2="227.949" stroke="#07ED10"/>
<line x1="268.771" y1="127.118" x2="268.771" y2="227.949" stroke="#07ED10"/>
<line x1="55.0747" y1="128.332" x2="55.0747" y2="229.164" stroke="#07ED10"/>
<line x1="59.8232" y1="128.332" x2="59.8232" y2="229.164" stroke="#07ED10"/>
<line x1="64.5723" y1="128.332" x2="64.5723" y2="229.164" stroke="#07ED10"/>
<line x1="69.321" y1="128.332" x2="69.321" y2="229.164" stroke="#07ED10"/>
<line x1="74.0698" y1="128.332" x2="74.0698" y2="229.164" stroke="#07ED10"/>
<line x1="78.8186" y1="128.332" x2="78.8186" y2="229.164" stroke="#07ED10"/>
<line x1="83.5674" y1="128.332" x2="83.5674" y2="229.164" stroke="#07ED10"/>
<line x1="88.3164" y1="128.332" x2="88.3164" y2="229.164" stroke="#07ED10"/>
<line x1="93.0652" y1="128.332" x2="93.0652" y2="229.164" stroke="#07ED10"/>
<line x1="97.814" y1="128.332" x2="97.814" y2="229.164" stroke="#07ED10"/>
<line x1="102.563" y1="128.332" x2="102.563" y2="229.164" stroke="#07ED10"/>
<line x1="107.312" y1="128.332" x2="107.312" y2="229.164" stroke="#07ED10"/>
<line x1="112.06" y1="128.332" x2="112.06" y2="229.164" stroke="#07ED10"/>
<line x1="116.809" y1="128.332" x2="116.809" y2="229.164" stroke="#07ED10"/>
<line x1="121.558" y1="128.332" x2="121.558" y2="229.164" stroke="#07ED10"/>
<line x1="126.307" y1="128.332" x2="126.307" y2="229.164" stroke="#07ED10"/>
<line x1="131.056" y1="128.332" x2="131.056" y2="229.164" stroke="#07ED10"/>
<line x1="135.804" y1="128.332" x2="135.804" y2="229.164" stroke="#07ED10"/>
<line x1="140.553" y1="128.332" x2="140.553" y2="229.164" stroke="#07ED10"/>
<line x1="145.302" y1="128.332" x2="145.302" y2="229.164" stroke="#07ED10"/>
<line x1="150.051" y1="128.332" x2="150.051" y2="229.164" stroke="#07ED10"/>
<line x1="154.8" y1="128.332" x2="154.8" y2="229.164" stroke="#07ED10"/>
<line x1="159.549" y1="128.332" x2="159.549" y2="229.164" stroke="#07ED10"/>
<line x1="164.298" y1="128.332" x2="164.298" y2="229.164" stroke="#07ED10"/>
<line x1="169.046" y1="128.332" x2="169.046" y2="229.164" stroke="#07ED10"/>
<line x1="173.795" y1="128.332" x2="173.795" y2="229.164" stroke="#07ED10"/>
<line x1="178.544" y1="128.332" x2="178.544" y2="229.164" stroke="#07ED10"/>
<line x1="183.293" y1="128.332" x2="183.293" y2="229.164" stroke="#07ED10"/>
<line x1="188.042" y1="128.332" x2="188.042" y2="229.164" stroke="#07ED10"/>
<line x1="192.79" y1="128.332" x2="192.79" y2="229.164" stroke="#07ED10"/>
<line x1="197.539" y1="128.332" x2="197.539" y2="229.164" stroke="#07ED10"/>
<line x1="202.288" y1="128.332" x2="202.288" y2="229.164" stroke="#07ED10"/>
<line x1="207.037" y1="128.332" x2="207.037" y2="229.164" stroke="#07ED10"/>
<line x1="211.786" y1="128.332" x2="211.786" y2="229.164" stroke="#07ED10"/>
<line x1="216.534" y1="128.332" x2="216.534" y2="229.164" stroke="#07ED10"/>
<line x1="221.283" y1="128.332" x2="221.283" y2="229.164" stroke="#07ED10"/>
<line x1="226.032" y1="128.332" x2="226.032" y2="229.164" stroke="#07ED10"/>
<line x1="230.781" y1="128.332" x2="230.781" y2="229.164" stroke="#07ED10"/>
<line x1="235.53" y1="128.332" x2="235.53" y2="229.164" stroke="#07ED10"/>
<line x1="240.279" y1="128.332" x2="240.279" y2="229.164" stroke="#07ED10"/>
<line x1="245.028" y1="128.332" x2="245.028" y2="229.164" stroke="#07ED10"/>
<line x1="249.776" y1="128.332" x2="249.776" y2="229.164" stroke="#07ED10"/>
<line x1="254.525" y1="128.332" x2="254.525" y2="229.164" stroke="#07ED10"/>
<line x1="259.274" y1="128.332" x2="259.274" y2="229.164" stroke="#07ED10"/>
<line x1="264.023" y1="128.332" x2="264.023" y2="229.164" stroke="#07ED10"/>
<line x1="268.771" y1="128.332" x2="268.771" y2="229.164" stroke="#07ED10"/>
<line x1="55.0747" y1="129.547" x2="55.0747" y2="230.379" stroke="#07ED10"/>
<line x1="59.8232" y1="129.547" x2="59.8232" y2="230.379" stroke="#07ED10"/>
<line x1="64.5723" y1="129.547" x2="64.5723" y2="230.379" stroke="#07ED10"/>
<line x1="69.321" y1="129.547" x2="69.321" y2="230.379" stroke="#07ED10"/>
<line x1="74.0698" y1="129.547" x2="74.0698" y2="230.379" stroke="#07ED10"/>
<line x1="78.8186" y1="129.547" x2="78.8186" y2="230.379" stroke="#07ED10"/>
<line x1="83.5674" y1="129.547" x2="83.5674" y2="230.379" stroke="#07ED10"/>
<line x1="88.3164" y1="129.547" x2="88.3164" y2="230.379" stroke="#07ED10"/>
<line x1="93.0652" y1="129.547" x2="93.0652" y2="230.379" stroke="#07ED10"/>
<line x1="97.814" y1="129.547" x2="97.814" y2="230.379" stroke="#07ED10"/>
<line x1="102.563" y1="129.547" x2="102.563" y2="230.379" stroke="#07ED10"/>
<line x1="107.312" y1="129.547" x2="107.312" y2="230.379" stroke="#07ED10"/>
<line x1="112.06" y1="129.547" x2="112.06" y2="230.379" stroke="#07ED10"/>
<line x1="116.809" y1="129.547" x2="116.809" y2="230.379" stroke="#07ED10"/>
<line x1="121.558" y1="129.547" x2="121.558" y2="230.379" stroke="#07ED10"/>
<line x1="126.307" y1="129.547" x2="126.307" y2="230.379" stroke="#07ED10"/>
<line x1="131.056" y1="129.547" x2="131.056" y2="230.379" stroke="#07ED10"/>
<line x1="135.804" y1="129.547" x2="135.804" y2="230.379" stroke="#07ED10"/>
<line x1="140.553" y1="129.547" x2="140.553" y2="230.379" stroke="#07ED10"/>
<line x1="145.302" y1="129.547" x2="145.302" y2="230.379" stroke="#07ED10"/>
<line x1="150.051" y1="129.547" x2="150.051" y2="230.379" stroke="#07ED10"/>
<line x1="154.8" y1="129.547" x2="154.8" y2="230.379" stroke="#07ED10"/>
<line x1="159.549" y1="129.547" x2="159.549" y2="230.379" stroke="#07ED10"/>
<line x1="164.298" y1="129.547" x2="164.298" y2="230.379" stroke="#07ED10"/>
<line x1="169.046" y1="129.547" x2="169.046" y2="230.379" stroke="#07ED10"/>
<line x1="173.795" y1="129.547" x2="173.795" y2="230.379" stroke="#07ED10"/>
<line x1="178.544" y1="129.547" x2="178.544" y2="230.379" stroke="#07ED10"/>
<line x1="183.293" y1="129.547" x2="183.293" y2="230.379" stroke="#07ED10"/>
<line x1="188.042" y1="129.547" x2="188.042" y2="230.379" stroke="#07ED10"/>
<line x1="192.79" y1="129.547" x2="192.79" y2="230.379" stroke="#07ED10"/>
<line x1="197.539" y1="129.547" x2="197.539" y2="230.379" stroke="#07ED10"/>
<line x1="202.288" y1="129.547" x2="202.288" y2="230.379" stroke="#07ED10"/>
<line x1="207.037" y1="129.547" x2="207.037" y2="230.379" stroke="#07ED10"/>
<line x1="211.786" y1="129.547" x2="211.786" y2="230.379" stroke="#07ED10"/>
<line x1="216.534" y1="129.547" x2="216.534" y2="230.379" stroke="#07ED10"/>
<line x1="221.283" y1="129.547" x2="221.283" y2="230.379" stroke="#07ED10"/>
<line x1="226.032" y1="129.547" x2="226.032" y2="230.379" stroke="#07ED10"/>
<line x1="230.781" y1="129.547" x2="230.781" y2="230.379" stroke="#07ED10"/>
<line x1="235.53" y1="129.547" x2="235.53" y2="230.379" stroke="#07ED10"/>
<line x1="240.279" y1="129.547" x2="240.279" y2="230.379" stroke="#07ED10"/>
<line x1="245.028" y1="129.547" x2="245.028" y2="230.379" stroke="#07ED10"/>
<line x1="249.776" y1="129.547" x2="249.776" y2="230.379" stroke="#07ED10"/>
<line x1="254.525" y1="129.547" x2="254.525" y2="230.379" stroke="#07ED10"/>
<line x1="259.274" y1="129.547" x2="259.274" y2="230.379" stroke="#07ED10"/>
<line x1="264.023" y1="129.547" x2="264.023" y2="230.379" stroke="#07ED10"/>
<line x1="268.771" y1="129.547" x2="268.771" y2="230.379" stroke="#07ED10"/>
<line x1="55.0747" y1="130.762" x2="55.0747" y2="231.593" stroke="#07ED10"/>
<line x1="59.8232" y1="130.762" x2="59.8232" y2="231.593" stroke="#07ED10"/>
<line x1="64.5723" y1="130.762" x2="64.5723" y2="231.593" stroke="#07ED10"/>
<line x1="69.321" y1="130.762" x2="69.321" y2="231.593" stroke="#07ED10"/>
<line x1="74.0698" y1="130.762" x2="74.0698" y2="231.593" stroke="#07ED10"/>
<line x1="78.8186" y1="130.762" x2="78.8186" y2="231.593" stroke="#07ED10"/>
<line x1="83.5674" y1="130.762" x2="83.5674" y2="231.593" stroke="#07ED10"/>
<line x1="88.3164" y1="130.762" x2="88.3164" y2="231.593" stroke="#07ED10"/>
<line x1="93.0652" y1="130.762" x2="93.0652" y2="231.593" stroke="#07ED10"/>
<line x1="97.814" y1="130.762" x2="97.814" y2="231.593" stroke="#07ED10"/>
<line x1="102.563" y1="130.762" x2="102.563" y2="231.593" stroke="#07ED10"/>
<line x1="107.312" y1="130.762" x2="107.312" y2="231.593" stroke="#07ED10"/>
<line x1="112.06" y1="130.762" x2="112.06" y2="231.593" stroke="#07ED10"/>
<line x1="116.809" y1="130.762" x2="116.809" y2="231.593" stroke="#07ED10"/>
<line x1="121.558" y1="130.762" x2="121.558" y2="231.593" stroke="#07ED10"/>
<line x1="126.307" y1="130.762" x2="126.307" y2="231.593" stroke="#07ED10"/>
<line x1="131.056" y1="130.762" x2="131.056" y2="231.593" stroke="#07ED10"/>
<line x1="135.804" y1="130.762" x2="135.804" y2="231.593" stroke="#07ED10"/>
<line x1="140.553" y1="130.762" x2="140.553" y2="231.593" stroke="#07ED10"/>
<line x1="145.302" y1="130.762" x2="145.302" y2="231.593" stroke="#07ED10"/>
<line x1="150.051" y1="130.762" x2="150.051" y2="231.593" stroke="#07ED10"/>
<line x1="154.8" y1="130.762" x2="154.8" y2="231.593" stroke="#07ED10"/>
<line x1="159.549" y1="130.762" x2="159.549" y2="231.593" stroke="#07ED10"/>
<line x1="164.298" y1="130.762" x2="164.298" y2="231.593" stroke="#07ED10"/>
<line x1="169.046" y1="130.762" x2="169.046" y2="231.593" stroke="#07ED10"/>
<line x1="173.795" y1="130.762" x2="173.795" y2="231.593" stroke="#07ED10"/>
<line x1="178.544" y1="130.762" x2="178.544" y2="231.593" stroke="#07ED10"/>
<line x1="183.293" y1="130.762" x2="183.293" y2="231.593" stroke="#07ED10"/>
<line x1="188.042" y1="130.762" x2="188.042" y2="231.593" stroke="#07ED10"/>
<line x1="192.79" y1="130.762" x2="192.79" y2="231.593" stroke="#07ED10"/>
<line x1="197.539" y1="130.762" x2="197.539" y2="231.593" stroke="#07ED10"/>
<line x1="202.288" y1="130.762" x2="202.288" y2="231.593" stroke="#07ED10"/>
<line x1="207.037" y1="130.762" x2="207.037" y2="231.593" stroke="#07ED10"/>
<line x1="211.786" y1="130.762" x2="211.786" y2="231.593" stroke="#07ED10"/>
<line x1="216.534" y1="130.762" x2="216.534" y2="231.593" stroke="#07ED10"/>
<line x1="221.283" y1="130.762" x2="221.283" y2="231.593" stroke="#07ED10"/>
<line x1="226.032" y1="130.762" x2="226.032" y2="231.593" stroke="#07ED10"/>
<line x1="230.781" y1="130.762" x2="230.781" y2="231.593" stroke="#07ED10"/>
<line x1="235.53" y1="130.762" x2="235.53" y2="231.593" stroke="#07ED10"/>
<line x1="240.279" y1="130.762" x2="240.279" y2="231.593" stroke="#07ED10"/>
<line x1="245.028" y1="130.762" x2="245.028" y2="231.593" stroke="#07ED10"/>
<line x1="249.776" y1="130.762" x2="249.776" y2="231.593" stroke="#07ED10"/>
<line x1="254.525" y1="130.762" x2="254.525" y2="231.593" stroke="#07ED10"/>
<line x1="259.274" y1="130.762" x2="259.274" y2="231.593" stroke="#07ED10"/>
<line x1="264.023" y1="130.762" x2="264.023" y2="231.593" stroke="#07ED10"/>
<line x1="268.771" y1="130.762" x2="268.771" y2="231.593" stroke="#07ED10"/>
<line x1="55.0747" y1="131.977" x2="55.0747" y2="232.808" stroke="#07ED10"/>
<line x1="59.8232" y1="131.977" x2="59.8232" y2="232.808" stroke="#07ED10"/>
<line x1="64.5723" y1="131.977" x2="64.5723" y2="232.808" stroke="#07ED10"/>
<line x1="69.321" y1="131.977" x2="69.321" y2="232.808" stroke="#07ED10"/>
<line x1="74.0698" y1="131.977" x2="74.0698" y2="232.808" stroke="#07ED10"/>
<line x1="78.8186" y1="131.977" x2="78.8186" y2="232.808" stroke="#07ED10"/>
<line x1="83.5674" y1="131.977" x2="83.5674" y2="232.808" stroke="#07ED10"/>
<line x1="88.3164" y1="131.977" x2="88.3164" y2="232.808" stroke="#07ED10"/>
<line x1="93.0652" y1="131.977" x2="93.0652" y2="232.808" stroke="#07ED10"/>
<line x1="97.814" y1="131.977" x2="97.814" y2="232.808" stroke="#07ED10"/>
<line x1="102.563" y1="131.977" x2="102.563" y2="232.808" stroke="#07ED10"/>
<line x1="107.312" y1="131.977" x2="107.312" y2="232.808" stroke="#07ED10"/>
<line x1="112.06" y1="131.977" x2="112.06" y2="232.808" stroke="#07ED10"/>
<line x1="116.809" y1="131.977" x2="116.809" y2="232.808" stroke="#07ED10"/>
<line x1="121.558" y1="131.977" x2="121.558" y2="232.808" stroke="#07ED10"/>
<line x1="126.307" y1="131.977" x2="126.307" y2="232.808" stroke="#07ED10"/>
<line x1="131.056" y1="131.977" x2="131.056" y2="232.808" stroke="#07ED10"/>
<line x1="135.804" y1="131.977" x2="135.804" y2="232.808" stroke="#07ED10"/>
<line x1="140.553" y1="131.977" x2="140.553" y2="232.808" stroke="#07ED10"/>
<line x1="145.302" y1="131.977" x2="145.302" y2="232.808" stroke="#07ED10"/>
<line x1="150.051" y1="131.977" x2="150.051" y2="232.808" stroke="#07ED10"/>
<line x1="154.8" y1="131.977" x2="154.8" y2="232.808" stroke="#07ED10"/>
<line x1="159.549" y1="131.977" x2="159.549" y2="232.808" stroke="#07ED10"/>
<line x1="164.298" y1="131.977" x2="164.298" y2="232.808" stroke="#07ED10"/>
<line x1="169.046" y1="131.977" x2="169.046" y2="232.808" stroke="#07ED10"/>
<line x1="173.795" y1="131.977" x2="173.795" y2="232.808" stroke="#07ED10"/>
<line x1="178.544" y1="131.977" x2="178.544" y2="232.808" stroke="#07ED10"/>
<line x1="183.293" y1="131.977" x2="183.293" y2="232.808" stroke="#07ED10"/>
<line x1="188.042" y1="131.977" x2="188.042" y2="232.808" stroke="#07ED10"/>
<line x1="192.79" y1="131.977" x2="192.79" y2="232.808" stroke="#07ED10"/>
<line x1="197.539" y1="131.977" x2="197.539" y2="232.808" stroke="#07ED10"/>
<line x1="202.288" y1="131.977" x2="202.288" y2="232.808" stroke="#07ED10"/>
<line x1="207.037" y1="131.977" x2="207.037" y2="232.808" stroke="#07ED10"/>
<line x1="211.786" y1="131.977" x2="211.786" y2="232.808" stroke="#07ED10"/>
<line x1="216.534" y1="131.977" x2="216.534" y2="232.808" stroke="#07ED10"/>
<line x1="221.283" y1="131.977" x2="221.283" y2="232.808" stroke="#07ED10"/>
<line x1="226.032" y1="131.977" x2="226.032" y2="232.808" stroke="#07ED10"/>
<line x1="230.781" y1="131.977" x2="230.781" y2="232.808" stroke="#07ED10"/>
<line x1="235.53" y1="131.977" x2="235.53" y2="232.808" stroke="#07ED10"/>
<line x1="240.279" y1="131.977" x2="240.279" y2="232.808" stroke="#07ED10"/>
<line x1="245.028" y1="131.977" x2="245.028" y2="232.808" stroke="#07ED10"/>
<line x1="249.776" y1="131.977" x2="249.776" y2="232.808" stroke="#07ED10"/>
<line x1="254.525" y1="131.977" x2="254.525" y2="232.808" stroke="#07ED10"/>
<line x1="259.274" y1="131.977" x2="259.274" y2="232.808" stroke="#07ED10"/>
<line x1="264.023" y1="131.977" x2="264.023" y2="232.808" stroke="#07ED10"/>
<line x1="268.771" y1="131.977" x2="268.771" y2="232.808" stroke="#07ED10"/>
<line x1="55.0747" y1="133.192" x2="55.0747" y2="234.023" stroke="#07ED10"/>
<line x1="59.8232" y1="133.192" x2="59.8232" y2="234.023" stroke="#07ED10"/>
<line x1="64.5723" y1="133.192" x2="64.5723" y2="234.023" stroke="#07ED10"/>
<line x1="69.321" y1="133.192" x2="69.321" y2="234.023" stroke="#07ED10"/>
<line x1="74.0698" y1="133.192" x2="74.0698" y2="234.023" stroke="#07ED10"/>
<line x1="78.8186" y1="133.192" x2="78.8186" y2="234.023" stroke="#07ED10"/>
<line x1="83.5674" y1="133.192" x2="83.5674" y2="234.023" stroke="#07ED10"/>
<line x1="88.3164" y1="133.192" x2="88.3164" y2="234.023" stroke="#07ED10"/>
<line x1="93.0652" y1="133.192" x2="93.0652" y2="234.023" stroke="#07ED10"/>
<line x1="97.814" y1="133.192" x2="97.814" y2="234.023" stroke="#07ED10"/>
<line x1="102.563" y1="133.192" x2="102.563" y2="234.023" stroke="#07ED10"/>
<line x1="107.312" y1="133.192" x2="107.312" y2="234.023" stroke="#07ED10"/>
<line x1="112.06" y1="133.192" x2="112.06" y2="234.023" stroke="#07ED10"/>
<line x1="116.809" y1="133.192" x2="116.809" y2="234.023" stroke="#07ED10"/>
<line x1="121.558" y1="133.192" x2="121.558" y2="234.023" stroke="#07ED10"/>
<line x1="126.307" y1="133.192" x2="126.307" y2="234.023" stroke="#07ED10"/>
<line x1="131.056" y1="133.192" x2="131.056" y2="234.023" stroke="#07ED10"/>
<line x1="135.804" y1="133.192" x2="135.804" y2="234.023" stroke="#07ED10"/>
<line x1="140.553" y1="133.192" x2="140.553" y2="234.023" stroke="#07ED10"/>
<line x1="145.302" y1="133.192" x2="145.302" y2="234.023" stroke="#07ED10"/>
<line x1="150.051" y1="133.192" x2="150.051" y2="234.023" stroke="#07ED10"/>
<line x1="154.8" y1="133.192" x2="154.8" y2="234.023" stroke="#07ED10"/>
<line x1="159.549" y1="133.192" x2="159.549" y2="234.023" stroke="#07ED10"/>
<line x1="164.298" y1="133.192" x2="164.298" y2="234.023" stroke="#07ED10"/>
<line x1="169.046" y1="133.192" x2="169.046" y2="234.023" stroke="#07ED10"/>
<line x1="173.795" y1="133.192" x2="173.795" y2="234.023" stroke="#07ED10"/>
<line x1="178.544" y1="133.192" x2="178.544" y2="234.023" stroke="#07ED10"/>
<line x1="183.293" y1="133.192" x2="183.293" y2="234.023" stroke="#07ED10"/>
<line x1="188.042" y1="133.192" x2="188.042" y2="234.023" stroke="#07ED10"/>
<line x1="192.79" y1="133.192" x2="192.79" y2="234.023" stroke="#07ED10"/>
<line x1="197.539" y1="133.192" x2="197.539" y2="234.023" stroke="#07ED10"/>
<line x1="202.288" y1="133.192" x2="202.288" y2="234.023" stroke="#07ED10"/>
<line x1="207.037" y1="133.192" x2="207.037" y2="234.023" stroke="#07ED10"/>
<line x1="211.786" y1="133.192" x2="211.786" y2="234.023" stroke="#07ED10"/>
<line x1="216.534" y1="133.192" x2="216.534" y2="234.023" stroke="#07ED10"/>
<line x1="221.283" y1="133.192" x2="221.283" y2="234.023" stroke="#07ED10"/>
<line x1="226.032" y1="133.192" x2="226.032" y2="234.023" stroke="#07ED10"/>
<line x1="230.781" y1="133.192" x2="230.781" y2="234.023" stroke="#07ED10"/>
<line x1="235.53" y1="133.192" x2="235.53" y2="234.023" stroke="#07ED10"/>
<line x1="240.279" y1="133.192" x2="240.279" y2="234.023" stroke="#07ED10"/>
<line x1="245.028" y1="133.192" x2="245.028" y2="234.023" stroke="#07ED10"/>
<line x1="249.776" y1="133.192" x2="249.776" y2="234.023" stroke="#07ED10"/>
<line x1="254.525" y1="133.192" x2="254.525" y2="234.023" stroke="#07ED10"/>
<line x1="259.274" y1="133.192" x2="259.274" y2="234.023" stroke="#07ED10"/>
<line x1="264.023" y1="133.192" x2="264.023" y2="234.023" stroke="#07ED10"/>
<line x1="268.771" y1="133.192" x2="268.771" y2="234.023" stroke="#07ED10"/>
<line x1="55.0747" y1="134.407" x2="55.0747" y2="235.238" stroke="#07ED10"/>
<line x1="59.8232" y1="134.407" x2="59.8232" y2="235.238" stroke="#07ED10"/>
<line x1="64.5723" y1="134.407" x2="64.5723" y2="235.238" stroke="#07ED10"/>
<line x1="69.321" y1="134.407" x2="69.321" y2="235.238" stroke="#07ED10"/>
<line x1="74.0698" y1="134.407" x2="74.0698" y2="235.238" stroke="#07ED10"/>
<line x1="78.8186" y1="134.407" x2="78.8186" y2="235.238" stroke="#07ED10"/>
<line x1="83.5674" y1="134.407" x2="83.5674" y2="235.238" stroke="#07ED10"/>
<line x1="88.3164" y1="134.407" x2="88.3164" y2="235.238" stroke="#07ED10"/>
<line x1="93.0652" y1="134.407" x2="93.0652" y2="235.238" stroke="#07ED10"/>
<line x1="97.814" y1="134.407" x2="97.814" y2="235.238" stroke="#07ED10"/>
<line x1="102.563" y1="134.407" x2="102.563" y2="235.238" stroke="#07ED10"/>
<line x1="107.312" y1="134.407" x2="107.312" y2="235.238" stroke="#07ED10"/>
<line x1="112.06" y1="134.407" x2="112.06" y2="235.238" stroke="#07ED10"/>
<line x1="116.809" y1="134.407" x2="116.809" y2="235.238" stroke="#07ED10"/>
<line x1="121.558" y1="134.407" x2="121.558" y2="235.238" stroke="#07ED10"/>
<line x1="126.307" y1="134.407" x2="126.307" y2="235.238" stroke="#07ED10"/>
<line x1="131.056" y1="134.407" x2="131.056" y2="235.238" stroke="#07ED10"/>
<line x1="135.804" y1="134.407" x2="135.804" y2="235.238" stroke="#07ED10"/>
<line x1="140.553" y1="134.407" x2="140.553" y2="235.238" stroke="#07ED10"/>
<line x1="145.302" y1="134.407" x2="145.302" y2="235.238" stroke="#07ED10"/>
<line x1="150.051" y1="134.407" x2="150.051" y2="235.238" stroke="#07ED10"/>
<line x1="154.8" y1="134.407" x2="154.8" y2="235.238" stroke="#07ED10"/>
<line x1="159.549" y1="134.407" x2="159.549" y2="235.238" stroke="#07ED10"/>
<line x1="164.298" y1="134.407" x2="164.298" y2="235.238" stroke="#07ED10"/>
<line x1="169.046" y1="134.407" x2="169.046" y2="235.238" stroke="#07ED10"/>
<line x1="173.795" y1="134.407" x2="173.795" y2="235.238" stroke="#07ED10"/>
<line x1="178.544" y1="134.407" x2="178.544" y2="235.238" stroke="#07ED10"/>
<line x1="183.293" y1="134.407" x2="183.293" y2="235.238" stroke="#07ED10"/>
<line x1="188.042" y1="134.407" x2="188.042" y2="235.238" stroke="#07ED10"/>
<line x1="192.79" y1="134.407" x2="192.79" y2="235.238" stroke="#07ED10"/>
<line x1="197.539" y1="134.407" x2="197.539" y2="235.238" stroke="#07ED10"/>
<line x1="202.288" y1="134.407" x2="202.288" y2="235.238" stroke="#07ED10"/>
<line x1="207.037" y1="134.407" x2="207.037" y2="235.238" stroke="#07ED10"/>
<line x1="211.786" y1="134.407" x2="211.786" y2="235.238" stroke="#07ED10"/>
<line x1="216.534" y1="134.407" x2="216.534" y2="235.238" stroke="#07ED10"/>
<line x1="221.283" y1="134.407" x2="221.283" y2="235.238" stroke="#07ED10"/>
<line x1="226.032" y1="134.407" x2="226.032" y2="235.238" stroke="#07ED10"/>
<line x1="230.781" y1="134.407" x2="230.781" y2="235.238" stroke="#07ED10"/>
<line x1="235.53" y1="134.407" x2="235.53" y2="235.238" stroke="#07ED10"/>
<line x1="240.279" y1="134.407" x2="240.279" y2="235.238" stroke="#07ED10"/>
<line x1="245.028" y1="134.407" x2="245.028" y2="235.238" stroke="#07ED10"/>
<line x1="249.776" y1="134.407" x2="249.776" y2="235.238" stroke="#07ED10"/>
<line x1="254.525" y1="134.407" x2="254.525" y2="235.238" stroke="#07ED10"/>
<line x1="259.274" y1="134.407" x2="259.274" y2="235.238" stroke="#07ED10"/>
<line x1="264.023" y1="134.407" x2="264.023" y2="235.238" stroke="#07ED10"/>
<line x1="268.771" y1="134.407" x2="268.771" y2="235.238" stroke="#07ED10"/>
<line x1="55.0747" y1="135.621" x2="55.0747" y2="236.453" stroke="#07ED10"/>
<line x1="59.8232" y1="135.621" x2="59.8232" y2="236.453" stroke="#07ED10"/>
<line x1="64.5723" y1="135.621" x2="64.5723" y2="236.453" stroke="#07ED10"/>
<line x1="69.321" y1="135.621" x2="69.321" y2="236.453" stroke="#07ED10"/>
<line x1="74.0698" y1="135.621" x2="74.0698" y2="236.453" stroke="#07ED10"/>
<line x1="78.8186" y1="135.621" x2="78.8186" y2="236.453" stroke="#07ED10"/>
<line x1="83.5674" y1="135.621" x2="83.5674" y2="236.453" stroke="#07ED10"/>
<line x1="88.3164" y1="135.621" x2="88.3164" y2="236.453" stroke="#07ED10"/>
<line x1="93.0652" y1="135.621" x2="93.0652" y2="236.453" stroke="#07ED10"/>
<line x1="97.814" y1="135.621" x2="97.814" y2="236.453" stroke="#07ED10"/>
<line x1="102.563" y1="135.621" x2="102.563" y2="236.453" stroke="#07ED10"/>
<line x1="107.312" y1="135.621" x2="107.312" y2="236.453" stroke="#07ED10"/>
<line x1="112.06" y1="135.621" x2="112.06" y2="236.453" stroke="#07ED10"/>
<line x1="116.809" y1="135.621" x2="116.809" y2="236.453" stroke="#07ED10"/>
<line x1="121.558" y1="135.621" x2="121.558" y2="236.453" stroke="#07ED10"/>
<line x1="126.307" y1="135.621" x2="126.307" y2="236.453" stroke="#07ED10"/>
<line x1="131.056" y1="135.621" x2="131.056" y2="236.453" stroke="#07ED10"/>
<line x1="135.804" y1="135.621" x2="135.804" y2="236.453" stroke="#07ED10"/>
<line x1="140.553" y1="135.621" x2="140.553" y2="236.453" stroke="#07ED10"/>
<line x1="145.302" y1="135.621" x2="145.302" y2="236.453" stroke="#07ED10"/>
<line x1="150.051" y1="135.621" x2="150.051" y2="236.453" stroke="#07ED10"/>
<line x1="154.8" y1="135.621" x2="154.8" y2="236.453" stroke="#07ED10"/>
<line x1="159.549" y1="135.621" x2="159.549" y2="236.453" stroke="#07ED10"/>
<line x1="164.298" y1="135.621" x2="164.298" y2="236.453" stroke="#07ED10"/>
<line x1="169.046" y1="135.621" x2="169.046" y2="236.453" stroke="#07ED10"/>
<line x1="173.795" y1="135.621" x2="173.795" y2="236.453" stroke="#07ED10"/>
<line x1="178.544" y1="135.621" x2="178.544" y2="236.453" stroke="#07ED10"/>
<line x1="183.293" y1="135.621" x2="183.293" y2="236.453" stroke="#07ED10"/>
<line x1="188.042" y1="135.621" x2="188.042" y2="236.453" stroke="#07ED10"/>
<line x1="192.79" y1="135.621" x2="192.79" y2="236.453" stroke="#07ED10"/>
<line x1="197.539" y1="135.621" x2="197.539" y2="236.453" stroke="#07ED10"/>
<line x1="202.288" y1="135.621" x2="202.288" y2="236.453" stroke="#07ED10"/>
<line x1="207.037" y1="135.621" x2="207.037" y2="236.453" stroke="#07ED10"/>
<line x1="211.786" y1="135.621" x2="211.786" y2="236.453" stroke="#07ED10"/>
<line x1="216.534" y1="135.621" x2="216.534" y2="236.453" stroke="#07ED10"/>
<line x1="221.283" y1="135.621" x2="221.283" y2="236.453" stroke="#07ED10"/>
<line x1="226.032" y1="135.621" x2="226.032" y2="236.453" stroke="#07ED10"/>
<line x1="230.781" y1="135.621" x2="230.781" y2="236.453" stroke="#07ED10"/>
<line x1="235.53" y1="135.621" x2="235.53" y2="236.453" stroke="#07ED10"/>
<line x1="240.279" y1="135.621" x2="240.279" y2="236.453" stroke="#07ED10"/>
<line x1="245.028" y1="135.621" x2="245.028" y2="236.453" stroke="#07ED10"/>
<line x1="249.776" y1="135.621" x2="249.776" y2="236.453" stroke="#07ED10"/>
<line x1="254.525" y1="135.621" x2="254.525" y2="236.453" stroke="#07ED10"/>
<line x1="259.274" y1="135.621" x2="259.274" y2="236.453" stroke="#07ED10"/>
<line x1="264.023" y1="135.621" x2="264.023" y2="236.453" stroke="#07ED10"/>
<line x1="268.771" y1="135.621" x2="268.771" y2="236.453" stroke="#07ED10"/>
<line x1="55.0747" y1="136.836" x2="55.0747" y2="237.668" stroke="#07ED10"/>
<line x1="59.8232" y1="136.836" x2="59.8232" y2="237.668" stroke="#07ED10"/>
<line x1="64.5723" y1="136.836" x2="64.5723" y2="237.668" stroke="#07ED10"/>
<line x1="69.321" y1="136.836" x2="69.321" y2="237.668" stroke="#07ED10"/>
<line x1="74.0698" y1="136.836" x2="74.0698" y2="237.668" stroke="#07ED10"/>
<line x1="78.8186" y1="136.836" x2="78.8186" y2="237.668" stroke="#07ED10"/>
<line x1="83.5674" y1="136.836" x2="83.5674" y2="237.668" stroke="#07ED10"/>
<line x1="88.3164" y1="136.836" x2="88.3164" y2="237.668" stroke="#07ED10"/>
<line x1="93.0652" y1="136.836" x2="93.0652" y2="237.668" stroke="#07ED10"/>
<line x1="97.814" y1="136.836" x2="97.814" y2="237.668" stroke="#07ED10"/>
<line x1="102.563" y1="136.836" x2="102.563" y2="237.668" stroke="#07ED10"/>
<line x1="107.312" y1="136.836" x2="107.312" y2="237.668" stroke="#07ED10"/>
<line x1="112.06" y1="136.836" x2="112.06" y2="237.668" stroke="#07ED10"/>
<line x1="116.809" y1="136.836" x2="116.809" y2="237.668" stroke="#07ED10"/>
<line x1="121.558" y1="136.836" x2="121.558" y2="237.668" stroke="#07ED10"/>
<line x1="126.307" y1="136.836" x2="126.307" y2="237.668" stroke="#07ED10"/>
<line x1="131.056" y1="136.836" x2="131.056" y2="237.668" stroke="#07ED10"/>
<line x1="135.804" y1="136.836" x2="135.804" y2="237.668" stroke="#07ED10"/>
<line x1="140.553" y1="136.836" x2="140.553" y2="237.668" stroke="#07ED10"/>
<line x1="145.302" y1="136.836" x2="145.302" y2="237.668" stroke="#07ED10"/>
<line x1="150.051" y1="136.836" x2="150.051" y2="237.668" stroke="#07ED10"/>
<line x1="154.8" y1="136.836" x2="154.8" y2="237.668" stroke="#07ED10"/>
<line x1="159.549" y1="136.836" x2="159.549" y2="237.668" stroke="#07ED10"/>
<line x1="164.298" y1="136.836" x2="164.298" y2="237.668" stroke="#07ED10"/>
<line x1="169.046" y1="136.836" x2="169.046" y2="237.668" stroke="#07ED10"/>
<line x1="173.795" y1="136.836" x2="173.795" y2="237.668" stroke="#07ED10"/>
<line x1="178.544" y1="136.836" x2="178.544" y2="237.668" stroke="#07ED10"/>
<line x1="183.293" y1="136.836" x2="183.293" y2="237.668" stroke="#07ED10"/>
<line x1="188.042" y1="136.836" x2="188.042" y2="237.668" stroke="#07ED10"/>
<line x1="192.79" y1="136.836" x2="192.79" y2="237.668" stroke="#07ED10"/>
<line x1="197.539" y1="136.836" x2="197.539" y2="237.668" stroke="#07ED10"/>
<line x1="202.288" y1="136.836" x2="202.288" y2="237.668" stroke="#07ED10"/>
<line x1="207.037" y1="136.836" x2="207.037" y2="237.668" stroke="#07ED10"/>
<line x1="211.786" y1="136.836" x2="211.786" y2="237.668" stroke="#07ED10"/>
<line x1="216.534" y1="136.836" x2="216.534" y2="237.668" stroke="#07ED10"/>
<line x1="221.283" y1="136.836" x2="221.283" y2="237.668" stroke="#07ED10"/>
<line x1="226.032" y1="136.836" x2="226.032" y2="237.668" stroke="#07ED10"/>
<line x1="230.781" y1="136.836" x2="230.781" y2="237.668" stroke="#07ED10"/>
<line x1="235.53" y1="136.836" x2="235.53" y2="237.668" stroke="#07ED10"/>
<line x1="240.279" y1="136.836" x2="240.279" y2="237.668" stroke="#07ED10"/>
<line x1="245.028" y1="136.836" x2="245.028" y2="237.668" stroke="#07ED10"/>
<line x1="249.776" y1="136.836" x2="249.776" y2="237.668" stroke="#07ED10"/>
<line x1="254.525" y1="136.836" x2="254.525" y2="237.668" stroke="#07ED10"/>
<line x1="259.274" y1="136.836" x2="259.274" y2="237.668" stroke="#07ED10"/>
<line x1="264.023" y1="136.836" x2="264.023" y2="237.668" stroke="#07ED10"/>
<line x1="268.771" y1="136.836" x2="268.771" y2="237.668" stroke="#07ED10"/>
<line x1="55.0747" y1="138.051" x2="55.0747" y2="238.882" stroke="#07ED10"/>
<line x1="59.8232" y1="138.051" x2="59.8232" y2="238.882" stroke="#07ED10"/>
<line x1="64.5723" y1="138.051" x2="64.5723" y2="238.882" stroke="#07ED10"/>
<line x1="69.321" y1="138.051" x2="69.321" y2="238.882" stroke="#07ED10"/>
<line x1="74.0698" y1="138.051" x2="74.0698" y2="238.882" stroke="#07ED10"/>
<line x1="78.8186" y1="138.051" x2="78.8186" y2="238.882" stroke="#07ED10"/>
<line x1="83.5674" y1="138.051" x2="83.5674" y2="238.882" stroke="#07ED10"/>
<line x1="88.3164" y1="138.051" x2="88.3164" y2="238.882" stroke="#07ED10"/>
<line x1="93.0652" y1="138.051" x2="93.0652" y2="238.882" stroke="#07ED10"/>
<line x1="97.814" y1="138.051" x2="97.814" y2="238.882" stroke="#07ED10"/>
<line x1="102.563" y1="138.051" x2="102.563" y2="238.882" stroke="#07ED10"/>
<line x1="107.312" y1="138.051" x2="107.312" y2="238.882" stroke="#07ED10"/>
<line x1="112.06" y1="138.051" x2="112.06" y2="238.882" stroke="#07ED10"/>
<line x1="116.809" y1="138.051" x2="116.809" y2="238.882" stroke="#07ED10"/>
<line x1="121.558" y1="138.051" x2="121.558" y2="238.882" stroke="#07ED10"/>
<line x1="126.307" y1="138.051" x2="126.307" y2="238.882" stroke="#07ED10"/>
<line x1="131.056" y1="138.051" x2="131.056" y2="238.882" stroke="#07ED10"/>
<line x1="135.804" y1="138.051" x2="135.804" y2="238.882" stroke="#07ED10"/>
<line x1="140.553" y1="138.051" x2="140.553" y2="238.882" stroke="#07ED10"/>
<line x1="145.302" y1="138.051" x2="145.302" y2="238.882" stroke="#07ED10"/>
<line x1="150.051" y1="138.051" x2="150.051" y2="238.882" stroke="#07ED10"/>
<line x1="154.8" y1="138.051" x2="154.8" y2="238.882" stroke="#07ED10"/>
<line x1="159.549" y1="138.051" x2="159.549" y2="238.882" stroke="#07ED10"/>
<line x1="164.298" y1="138.051" x2="164.298" y2="238.882" stroke="#07ED10"/>
<line x1="169.046" y1="138.051" x2="169.046" y2="238.882" stroke="#07ED10"/>
<line x1="173.795" y1="138.051" x2="173.795" y2="238.882" stroke="#07ED10"/>
<line x1="178.544" y1="138.051" x2="178.544" y2="238.882" stroke="#07ED10"/>
<line x1="183.293" y1="138.051" x2="183.293" y2="238.882" stroke="#07ED10"/>
<line x1="188.042" y1="138.051" x2="188.042" y2="238.882" stroke="#07ED10"/>
<line x1="192.79" y1="138.051" x2="192.79" y2="238.882" stroke="#07ED10"/>
<line x1="197.539" y1="138.051" x2="197.539" y2="238.882" stroke="#07ED10"/>
<line x1="202.288" y1="138.051" x2="202.288" y2="238.882" stroke="#07ED10"/>
<line x1="207.037" y1="138.051" x2="207.037" y2="238.882" stroke="#07ED10"/>
<line x1="211.786" y1="138.051" x2="211.786" y2="238.882" stroke="#07ED10"/>
<line x1="216.534" y1="138.051" x2="216.534" y2="238.882" stroke="#07ED10"/>
<line x1="221.283" y1="138.051" x2="221.283" y2="238.882" stroke="#07ED10"/>
<line x1="226.032" y1="138.051" x2="226.032" y2="238.882" stroke="#07ED10"/>
<line x1="230.781" y1="138.051" x2="230.781" y2="238.882" stroke="#07ED10"/>
<line x1="235.53" y1="138.051" x2="235.53" y2="238.882" stroke="#07ED10"/>
<line x1="240.279" y1="138.051" x2="240.279" y2="238.882" stroke="#07ED10"/>
<line x1="245.028" y1="138.051" x2="245.028" y2="238.882" stroke="#07ED10"/>
<line x1="249.776" y1="138.051" x2="249.776" y2="238.882" stroke="#07ED10"/>
<line x1="254.525" y1="138.051" x2="254.525" y2="238.882" stroke="#07ED10"/>
<line x1="259.274" y1="138.051" x2="259.274" y2="238.882" stroke="#07ED10"/>
<line x1="264.023" y1="138.051" x2="264.023" y2="238.882" stroke="#07ED10"/>
<line x1="268.771" y1="138.051" x2="268.771" y2="238.882" stroke="#07ED10"/>
</g>
<path d="M53.552 334.469L53.5523 334.457L53.5524 334.445C53.7608 319.889 57.9178 308.062 65.3756 299.27C72.8328 290.478 83.7711 284.507 97.9295 281.989C112.561 279.405 134.644 282.706 159.86 291.701C167.056 294.299 171.866 295.864 176.49 296.651C181.157 297.446 185.524 297.432 191.818 297.043L191.824 297.043C207.326 296.051 225.6 289.738 238.651 280.824C246.84 275.28 255.035 275.24 260.595 279.724C263.741 282.369 265.63 284.932 266.799 288.471C268.011 292.142 268.5 297.007 268.5 304.369C268.5 323.569 256.623 342.628 237.951 353.222C215.713 365.692 193.669 366.933 160.559 357.048L160.548 357.044C154.293 355.209 148.192 353.517 143.403 352.281C141.01 351.663 138.928 351.155 137.311 350.8C135.819 350.472 134.426 350.203 133.614 350.203C128.584 350.203 121.506 351.798 114.279 354.207C106.997 356.634 99.3113 359.974 93.0116 363.637L93.0041 363.641C84.3653 368.704 78.1223 371.142 73.2226 371.463C68.5759 371.768 64.9127 370.18 61.2505 366.387C55.2944 360.012 53.1261 352.206 53.552 334.469Z" fill="white" stroke="#07ED10" stroke-width="5"/>
<mask id="mask1" mask-type="alpha" maskUnits="userSpaceOnUse" x="51" y="274" width="220" height="100">
<path d="M51.5526 334.421L51.5526 334.416C51.7663 319.489 56.0378 307.187 63.8504 297.976C71.6629 288.765 83.0526 282.603 97.5804 280.02C112.719 277.346 135.196 280.779 160.535 289.819C167.736 292.418 172.396 293.925 176.826 294.679C181.264 295.435 185.448 295.433 191.695 295.047L191.696 295.047C206.837 294.078 224.768 287.886 237.526 279.17C246.216 273.286 255.423 272.97 261.867 278.18C265.248 281.02 267.389 283.882 268.698 287.844C270.015 291.833 270.5 296.965 270.5 304.369C270.5 324.384 258.149 344.064 238.934 354.964C216.082 367.779 193.441 368.952 159.987 358.964L159.985 358.963C153.746 357.133 147.666 355.446 142.903 354.217C140.522 353.603 138.466 353.101 136.882 352.754C135.323 352.411 134.163 352.203 133.614 352.203C128.91 352.203 122.076 353.716 114.911 356.104C107.736 358.496 100.179 361.783 94.0168 365.366L94.0153 365.367C85.3215 370.462 78.7408 373.106 73.3533 373.459C68.0165 373.809 63.8008 371.912 59.8002 367.764C53.2771 360.789 51.1234 352.296 51.5526 334.421Z" fill="white" stroke="#FF0000"/>
</mask>
<g mask="url(#mask1)">
<line x1="55.0746" y1="268.118" x2="55.0746" y2="368.949" stroke="#07ED10"/>
<line x1="59.8234" y1="268.118" x2="59.8234" y2="368.949" stroke="#07ED10"/>
<line x1="64.5722" y1="268.118" x2="64.5722" y2="368.949" stroke="#07ED10"/>
<line x1="69.3211" y1="268.118" x2="69.3211" y2="368.949" stroke="#07ED10"/>
<line x1="74.0699" y1="268.118" x2="74.0699" y2="368.949" stroke="#07ED10"/>
<line x1="78.8186" y1="268.118" x2="78.8186" y2="368.949" stroke="#07ED10"/>
<line x1="83.5675" y1="268.118" x2="83.5675" y2="368.949" stroke="#07ED10"/>
<line x1="88.3163" y1="268.118" x2="88.3163" y2="368.949" stroke="#07ED10"/>
<line x1="93.0652" y1="268.118" x2="93.0652" y2="368.949" stroke="#07ED10"/>
<line x1="97.8139" y1="268.118" x2="97.8139" y2="368.949" stroke="#07ED10"/>
<line x1="102.563" y1="268.118" x2="102.563" y2="368.949" stroke="#07ED10"/>
<line x1="107.312" y1="268.118" x2="107.312" y2="368.949" stroke="#07ED10"/>
<line x1="112.061" y1="268.118" x2="112.061" y2="368.949" stroke="#07ED10"/>
<line x1="116.809" y1="268.118" x2="116.809" y2="368.949" stroke="#07ED10"/>
<line x1="121.558" y1="268.118" x2="121.558" y2="368.949" stroke="#07ED10"/>
<line x1="126.307" y1="268.118" x2="126.307" y2="368.949" stroke="#07ED10"/>
<line x1="131.056" y1="268.118" x2="131.056" y2="368.949" stroke="#07ED10"/>
<line x1="135.805" y1="268.118" x2="135.805" y2="368.949" stroke="#07ED10"/>
<line x1="140.553" y1="268.118" x2="140.553" y2="368.949" stroke="#07ED10"/>
<line x1="145.302" y1="268.118" x2="145.302" y2="368.949" stroke="#07ED10"/>
<line x1="150.051" y1="268.118" x2="150.051" y2="368.949" stroke="#07ED10"/>
<line x1="154.8" y1="268.118" x2="154.8" y2="368.949" stroke="#07ED10"/>
<line x1="159.549" y1="268.118" x2="159.549" y2="368.949" stroke="#07ED10"/>
<line x1="164.297" y1="268.118" x2="164.297" y2="368.949" stroke="#07ED10"/>
<line x1="169.046" y1="268.118" x2="169.046" y2="368.949" stroke="#07ED10"/>
<line x1="173.795" y1="268.118" x2="173.795" y2="368.949" stroke="#07ED10"/>
<line x1="178.544" y1="268.118" x2="178.544" y2="368.949" stroke="#07ED10"/>
<line x1="183.293" y1="268.118" x2="183.293" y2="368.949" stroke="#07ED10"/>
<line x1="188.042" y1="268.118" x2="188.042" y2="368.949" stroke="#07ED10"/>
<line x1="192.79" y1="268.118" x2="192.79" y2="368.949" stroke="#07ED10"/>
<line x1="197.539" y1="268.118" x2="197.539" y2="368.949" stroke="#07ED10"/>
<line x1="202.288" y1="268.118" x2="202.288" y2="368.949" stroke="#07ED10"/>
<line x1="207.037" y1="268.118" x2="207.037" y2="368.949" stroke="#07ED10"/>
<line x1="211.786" y1="268.118" x2="211.786" y2="368.949" stroke="#07ED10"/>
<line x1="216.534" y1="268.118" x2="216.534" y2="368.949" stroke="#07ED10"/>
<line x1="221.283" y1="268.118" x2="221.283" y2="368.949" stroke="#07ED10"/>
<line x1="226.032" y1="268.118" x2="226.032" y2="368.949" stroke="#07ED10"/>
<line x1="230.781" y1="268.118" x2="230.781" y2="368.949" stroke="#07ED10"/>
<line x1="235.53" y1="268.118" x2="235.53" y2="368.949" stroke="#07ED10"/>
<line x1="240.279" y1="268.118" x2="240.279" y2="368.949" stroke="#07ED10"/>
<line x1="245.028" y1="268.118" x2="245.028" y2="368.949" stroke="#07ED10"/>
<line x1="249.776" y1="268.118" x2="249.776" y2="368.949" stroke="#07ED10"/>
<line x1="254.525" y1="268.118" x2="254.525" y2="368.949" stroke="#07ED10"/>
<line x1="259.274" y1="268.118" x2="259.274" y2="368.949" stroke="#07ED10"/>
<line x1="264.023" y1="268.118" x2="264.023" y2="368.949" stroke="#07ED10"/>
<line x1="268.771" y1="268.118" x2="268.771" y2="368.949" stroke="#07ED10"/>
<line x1="55.0747" y1="269.332" x2="55.0747" y2="370.164" stroke="#07ED10"/>
<line x1="59.8232" y1="269.332" x2="59.8232" y2="370.164" stroke="#07ED10"/>
<line x1="64.5723" y1="269.332" x2="64.5723" y2="370.164" stroke="#07ED10"/>
<line x1="69.321" y1="269.332" x2="69.321" y2="370.164" stroke="#07ED10"/>
<line x1="74.0698" y1="269.332" x2="74.0698" y2="370.164" stroke="#07ED10"/>
<line x1="78.8186" y1="269.332" x2="78.8186" y2="370.164" stroke="#07ED10"/>
<line x1="83.5674" y1="269.332" x2="83.5674" y2="370.164" stroke="#07ED10"/>
<line x1="88.3164" y1="269.332" x2="88.3164" y2="370.164" stroke="#07ED10"/>
<line x1="93.0652" y1="269.332" x2="93.0652" y2="370.164" stroke="#07ED10"/>
<line x1="97.814" y1="269.332" x2="97.814" y2="370.164" stroke="#07ED10"/>
<line x1="102.563" y1="269.332" x2="102.563" y2="370.164" stroke="#07ED10"/>
<line x1="107.312" y1="269.332" x2="107.312" y2="370.164" stroke="#07ED10"/>
<line x1="112.06" y1="269.332" x2="112.06" y2="370.164" stroke="#07ED10"/>
<line x1="116.809" y1="269.332" x2="116.809" y2="370.164" stroke="#07ED10"/>
<line x1="121.558" y1="269.332" x2="121.558" y2="370.164" stroke="#07ED10"/>
<line x1="126.307" y1="269.332" x2="126.307" y2="370.164" stroke="#07ED10"/>
<line x1="131.056" y1="269.332" x2="131.056" y2="370.164" stroke="#07ED10"/>
<line x1="135.804" y1="269.332" x2="135.804" y2="370.164" stroke="#07ED10"/>
<line x1="140.553" y1="269.332" x2="140.553" y2="370.164" stroke="#07ED10"/>
<line x1="145.302" y1="269.332" x2="145.302" y2="370.164" stroke="#07ED10"/>
<line x1="150.051" y1="269.332" x2="150.051" y2="370.164" stroke="#07ED10"/>
<line x1="154.8" y1="269.332" x2="154.8" y2="370.164" stroke="#07ED10"/>
<line x1="159.549" y1="269.332" x2="159.549" y2="370.164" stroke="#07ED10"/>
<line x1="164.298" y1="269.332" x2="164.298" y2="370.164" stroke="#07ED10"/>
<line x1="169.046" y1="269.332" x2="169.046" y2="370.164" stroke="#07ED10"/>
<line x1="173.795" y1="269.332" x2="173.795" y2="370.164" stroke="#07ED10"/>
<line x1="178.544" y1="269.332" x2="178.544" y2="370.164" stroke="#07ED10"/>
<line x1="183.293" y1="269.332" x2="183.293" y2="370.164" stroke="#07ED10"/>
<line x1="188.042" y1="269.332" x2="188.042" y2="370.164" stroke="#07ED10"/>
<line x1="192.79" y1="269.332" x2="192.79" y2="370.164" stroke="#07ED10"/>
<line x1="197.539" y1="269.332" x2="197.539" y2="370.164" stroke="#07ED10"/>
<line x1="202.288" y1="269.332" x2="202.288" y2="370.164" stroke="#07ED10"/>
<line x1="207.037" y1="269.332" x2="207.037" y2="370.164" stroke="#07ED10"/>
<line x1="211.786" y1="269.332" x2="211.786" y2="370.164" stroke="#07ED10"/>
<line x1="216.534" y1="269.332" x2="216.534" y2="370.164" stroke="#07ED10"/>
<line x1="221.283" y1="269.332" x2="221.283" y2="370.164" stroke="#07ED10"/>
<line x1="226.032" y1="269.332" x2="226.032" y2="370.164" stroke="#07ED10"/>
<line x1="230.781" y1="269.332" x2="230.781" y2="370.164" stroke="#07ED10"/>
<line x1="235.53" y1="269.332" x2="235.53" y2="370.164" stroke="#07ED10"/>
<line x1="240.279" y1="269.332" x2="240.279" y2="370.164" stroke="#07ED10"/>
<line x1="245.028" y1="269.332" x2="245.028" y2="370.164" stroke="#07ED10"/>
<line x1="249.776" y1="269.332" x2="249.776" y2="370.164" stroke="#07ED10"/>
<line x1="254.525" y1="269.332" x2="254.525" y2="370.164" stroke="#07ED10"/>
<line x1="259.274" y1="269.332" x2="259.274" y2="370.164" stroke="#07ED10"/>
<line x1="264.023" y1="269.332" x2="264.023" y2="370.164" stroke="#07ED10"/>
<line x1="268.771" y1="269.332" x2="268.771" y2="370.164" stroke="#07ED10"/>
<line x1="55.0747" y1="270.547" x2="55.0747" y2="371.378" stroke="#07ED10"/>
<line x1="59.8232" y1="270.547" x2="59.8232" y2="371.378" stroke="#07ED10"/>
<line x1="64.5723" y1="270.547" x2="64.5723" y2="371.378" stroke="#07ED10"/>
<line x1="69.321" y1="270.547" x2="69.321" y2="371.378" stroke="#07ED10"/>
<line x1="74.0698" y1="270.547" x2="74.0698" y2="371.378" stroke="#07ED10"/>
<line x1="78.8186" y1="270.547" x2="78.8186" y2="371.378" stroke="#07ED10"/>
<line x1="83.5674" y1="270.547" x2="83.5674" y2="371.378" stroke="#07ED10"/>
<line x1="88.3164" y1="270.547" x2="88.3164" y2="371.378" stroke="#07ED10"/>
<line x1="93.0652" y1="270.547" x2="93.0652" y2="371.378" stroke="#07ED10"/>
<line x1="97.814" y1="270.547" x2="97.814" y2="371.378" stroke="#07ED10"/>
<line x1="102.563" y1="270.547" x2="102.563" y2="371.378" stroke="#07ED10"/>
<line x1="107.312" y1="270.547" x2="107.312" y2="371.378" stroke="#07ED10"/>
<line x1="112.06" y1="270.547" x2="112.06" y2="371.378" stroke="#07ED10"/>
<line x1="116.809" y1="270.547" x2="116.809" y2="371.378" stroke="#07ED10"/>
<line x1="121.558" y1="270.547" x2="121.558" y2="371.378" stroke="#07ED10"/>
<line x1="126.307" y1="270.547" x2="126.307" y2="371.378" stroke="#07ED10"/>
<line x1="131.056" y1="270.547" x2="131.056" y2="371.378" stroke="#07ED10"/>
<line x1="135.804" y1="270.547" x2="135.804" y2="371.378" stroke="#07ED10"/>
<line x1="140.553" y1="270.547" x2="140.553" y2="371.378" stroke="#07ED10"/>
<line x1="145.302" y1="270.547" x2="145.302" y2="371.378" stroke="#07ED10"/>
<line x1="150.051" y1="270.547" x2="150.051" y2="371.378" stroke="#07ED10"/>
<line x1="154.8" y1="270.547" x2="154.8" y2="371.378" stroke="#07ED10"/>
<line x1="159.549" y1="270.547" x2="159.549" y2="371.378" stroke="#07ED10"/>
<line x1="164.298" y1="270.547" x2="164.298" y2="371.378" stroke="#07ED10"/>
<line x1="169.046" y1="270.547" x2="169.046" y2="371.378" stroke="#07ED10"/>
<line x1="173.795" y1="270.547" x2="173.795" y2="371.378" stroke="#07ED10"/>
<line x1="178.544" y1="270.547" x2="178.544" y2="371.378" stroke="#07ED10"/>
<line x1="183.293" y1="270.547" x2="183.293" y2="371.378" stroke="#07ED10"/>
<line x1="188.042" y1="270.547" x2="188.042" y2="371.378" stroke="#07ED10"/>
<line x1="192.79" y1="270.547" x2="192.79" y2="371.378" stroke="#07ED10"/>
<line x1="197.539" y1="270.547" x2="197.539" y2="371.378" stroke="#07ED10"/>
<line x1="202.288" y1="270.547" x2="202.288" y2="371.378" stroke="#07ED10"/>
<line x1="207.037" y1="270.547" x2="207.037" y2="371.378" stroke="#07ED10"/>
<line x1="211.786" y1="270.547" x2="211.786" y2="371.378" stroke="#07ED10"/>
<line x1="216.534" y1="270.547" x2="216.534" y2="371.378" stroke="#07ED10"/>
<line x1="221.283" y1="270.547" x2="221.283" y2="371.378" stroke="#07ED10"/>
<line x1="226.032" y1="270.547" x2="226.032" y2="371.378" stroke="#07ED10"/>
<line x1="230.781" y1="270.547" x2="230.781" y2="371.378" stroke="#07ED10"/>
<line x1="235.53" y1="270.547" x2="235.53" y2="371.378" stroke="#07ED10"/>
<line x1="240.279" y1="270.547" x2="240.279" y2="371.378" stroke="#07ED10"/>
<line x1="245.028" y1="270.547" x2="245.028" y2="371.378" stroke="#07ED10"/>
<line x1="249.776" y1="270.547" x2="249.776" y2="371.378" stroke="#07ED10"/>
<line x1="254.525" y1="270.547" x2="254.525" y2="371.378" stroke="#07ED10"/>
<line x1="259.274" y1="270.547" x2="259.274" y2="371.378" stroke="#07ED10"/>
<line x1="264.023" y1="270.547" x2="264.023" y2="371.378" stroke="#07ED10"/>
<line x1="268.771" y1="270.547" x2="268.771" y2="371.378" stroke="#07ED10"/>
<line x1="55.0747" y1="271.762" x2="55.0747" y2="372.593" stroke="#07ED10"/>
<line x1="59.8232" y1="271.762" x2="59.8232" y2="372.593" stroke="#07ED10"/>
<line x1="64.5723" y1="271.762" x2="64.5723" y2="372.593" stroke="#07ED10"/>
<line x1="69.321" y1="271.762" x2="69.321" y2="372.593" stroke="#07ED10"/>
<line x1="74.0698" y1="271.762" x2="74.0698" y2="372.593" stroke="#07ED10"/>
<line x1="78.8186" y1="271.762" x2="78.8186" y2="372.593" stroke="#07ED10"/>
<line x1="83.5674" y1="271.762" x2="83.5674" y2="372.593" stroke="#07ED10"/>
<line x1="88.3164" y1="271.762" x2="88.3164" y2="372.593" stroke="#07ED10"/>
<line x1="93.0652" y1="271.762" x2="93.0652" y2="372.593" stroke="#07ED10"/>
<line x1="97.814" y1="271.762" x2="97.814" y2="372.593" stroke="#07ED10"/>
<line x1="102.563" y1="271.762" x2="102.563" y2="372.593" stroke="#07ED10"/>
<line x1="107.312" y1="271.762" x2="107.312" y2="372.593" stroke="#07ED10"/>
<line x1="112.06" y1="271.762" x2="112.06" y2="372.593" stroke="#07ED10"/>
<line x1="116.809" y1="271.762" x2="116.809" y2="372.593" stroke="#07ED10"/>
<line x1="121.558" y1="271.762" x2="121.558" y2="372.593" stroke="#07ED10"/>
<line x1="126.307" y1="271.762" x2="126.307" y2="372.593" stroke="#07ED10"/>
<line x1="131.056" y1="271.762" x2="131.056" y2="372.593" stroke="#07ED10"/>
<line x1="135.804" y1="271.762" x2="135.804" y2="372.593" stroke="#07ED10"/>
<line x1="140.553" y1="271.762" x2="140.553" y2="372.593" stroke="#07ED10"/>
<line x1="145.302" y1="271.762" x2="145.302" y2="372.593" stroke="#07ED10"/>
<line x1="150.051" y1="271.762" x2="150.051" y2="372.593" stroke="#07ED10"/>
<line x1="154.8" y1="271.762" x2="154.8" y2="372.593" stroke="#07ED10"/>
<line x1="159.549" y1="271.762" x2="159.549" y2="372.593" stroke="#07ED10"/>
<line x1="164.298" y1="271.762" x2="164.298" y2="372.593" stroke="#07ED10"/>
<line x1="169.046" y1="271.762" x2="169.046" y2="372.593" stroke="#07ED10"/>
<line x1="173.795" y1="271.762" x2="173.795" y2="372.593" stroke="#07ED10"/>
<line x1="178.544" y1="271.762" x2="178.544" y2="372.593" stroke="#07ED10"/>
<line x1="183.293" y1="271.762" x2="183.293" y2="372.593" stroke="#07ED10"/>
<line x1="188.042" y1="271.762" x2="188.042" y2="372.593" stroke="#07ED10"/>
<line x1="192.79" y1="271.762" x2="192.79" y2="372.593" stroke="#07ED10"/>
<line x1="197.539" y1="271.762" x2="197.539" y2="372.593" stroke="#07ED10"/>
<line x1="202.288" y1="271.762" x2="202.288" y2="372.593" stroke="#07ED10"/>
<line x1="207.037" y1="271.762" x2="207.037" y2="372.593" stroke="#07ED10"/>
<line x1="211.786" y1="271.762" x2="211.786" y2="372.593" stroke="#07ED10"/>
<line x1="216.534" y1="271.762" x2="216.534" y2="372.593" stroke="#07ED10"/>
<line x1="221.283" y1="271.762" x2="221.283" y2="372.593" stroke="#07ED10"/>
<line x1="226.032" y1="271.762" x2="226.032" y2="372.593" stroke="#07ED10"/>
<line x1="230.781" y1="271.762" x2="230.781" y2="372.593" stroke="#07ED10"/>
<line x1="235.53" y1="271.762" x2="235.53" y2="372.593" stroke="#07ED10"/>
<line x1="240.279" y1="271.762" x2="240.279" y2="372.593" stroke="#07ED10"/>
<line x1="245.028" y1="271.762" x2="245.028" y2="372.593" stroke="#07ED10"/>
<line x1="249.776" y1="271.762" x2="249.776" y2="372.593" stroke="#07ED10"/>
<line x1="254.525" y1="271.762" x2="254.525" y2="372.593" stroke="#07ED10"/>
<line x1="259.274" y1="271.762" x2="259.274" y2="372.593" stroke="#07ED10"/>
<line x1="264.023" y1="271.762" x2="264.023" y2="372.593" stroke="#07ED10"/>
<line x1="268.771" y1="271.762" x2="268.771" y2="372.593" stroke="#07ED10"/>
<line x1="55.0747" y1="272.977" x2="55.0747" y2="373.808" stroke="#07ED10"/>
<line x1="59.8232" y1="272.977" x2="59.8232" y2="373.808" stroke="#07ED10"/>
<line x1="64.5723" y1="272.977" x2="64.5723" y2="373.808" stroke="#07ED10"/>
<line x1="69.321" y1="272.977" x2="69.321" y2="373.808" stroke="#07ED10"/>
<line x1="74.0698" y1="272.977" x2="74.0698" y2="373.808" stroke="#07ED10"/>
<line x1="78.8186" y1="272.977" x2="78.8186" y2="373.808" stroke="#07ED10"/>
<line x1="83.5674" y1="272.977" x2="83.5674" y2="373.808" stroke="#07ED10"/>
<line x1="88.3164" y1="272.977" x2="88.3164" y2="373.808" stroke="#07ED10"/>
<line x1="93.0652" y1="272.977" x2="93.0652" y2="373.808" stroke="#07ED10"/>
<line x1="97.814" y1="272.977" x2="97.814" y2="373.808" stroke="#07ED10"/>
<line x1="102.563" y1="272.977" x2="102.563" y2="373.808" stroke="#07ED10"/>
<line x1="107.312" y1="272.977" x2="107.312" y2="373.808" stroke="#07ED10"/>
<line x1="112.06" y1="272.977" x2="112.06" y2="373.808" stroke="#07ED10"/>
<line x1="116.809" y1="272.977" x2="116.809" y2="373.808" stroke="#07ED10"/>
<line x1="121.558" y1="272.977" x2="121.558" y2="373.808" stroke="#07ED10"/>
<line x1="126.307" y1="272.977" x2="126.307" y2="373.808" stroke="#07ED10"/>
<line x1="131.056" y1="272.977" x2="131.056" y2="373.808" stroke="#07ED10"/>
<line x1="135.804" y1="272.977" x2="135.804" y2="373.808" stroke="#07ED10"/>
<line x1="140.553" y1="272.977" x2="140.553" y2="373.808" stroke="#07ED10"/>
<line x1="145.302" y1="272.977" x2="145.302" y2="373.808" stroke="#07ED10"/>
<line x1="150.051" y1="272.977" x2="150.051" y2="373.808" stroke="#07ED10"/>
<line x1="154.8" y1="272.977" x2="154.8" y2="373.808" stroke="#07ED10"/>
<line x1="159.549" y1="272.977" x2="159.549" y2="373.808" stroke="#07ED10"/>
<line x1="164.298" y1="272.977" x2="164.298" y2="373.808" stroke="#07ED10"/>
<line x1="169.046" y1="272.977" x2="169.046" y2="373.808" stroke="#07ED10"/>
<line x1="173.795" y1="272.977" x2="173.795" y2="373.808" stroke="#07ED10"/>
<line x1="178.544" y1="272.977" x2="178.544" y2="373.808" stroke="#07ED10"/>
<line x1="183.293" y1="272.977" x2="183.293" y2="373.808" stroke="#07ED10"/>
<line x1="188.042" y1="272.977" x2="188.042" y2="373.808" stroke="#07ED10"/>
<line x1="192.79" y1="272.977" x2="192.79" y2="373.808" stroke="#07ED10"/>
<line x1="197.539" y1="272.977" x2="197.539" y2="373.808" stroke="#07ED10"/>
<line x1="202.288" y1="272.977" x2="202.288" y2="373.808" stroke="#07ED10"/>
<line x1="207.037" y1="272.977" x2="207.037" y2="373.808" stroke="#07ED10"/>
<line x1="211.786" y1="272.977" x2="211.786" y2="373.808" stroke="#07ED10"/>
<line x1="216.534" y1="272.977" x2="216.534" y2="373.808" stroke="#07ED10"/>
<line x1="221.283" y1="272.977" x2="221.283" y2="373.808" stroke="#07ED10"/>
<line x1="226.032" y1="272.977" x2="226.032" y2="373.808" stroke="#07ED10"/>
<line x1="230.781" y1="272.977" x2="230.781" y2="373.808" stroke="#07ED10"/>
<line x1="235.53" y1="272.977" x2="235.53" y2="373.808" stroke="#07ED10"/>
<line x1="240.279" y1="272.977" x2="240.279" y2="373.808" stroke="#07ED10"/>
<line x1="245.028" y1="272.977" x2="245.028" y2="373.808" stroke="#07ED10"/>
<line x1="249.776" y1="272.977" x2="249.776" y2="373.808" stroke="#07ED10"/>
<line x1="254.525" y1="272.977" x2="254.525" y2="373.808" stroke="#07ED10"/>
<line x1="259.274" y1="272.977" x2="259.274" y2="373.808" stroke="#07ED10"/>
<line x1="264.023" y1="272.977" x2="264.023" y2="373.808" stroke="#07ED10"/>
<line x1="268.771" y1="272.977" x2="268.771" y2="373.808" stroke="#07ED10"/>
<line x1="55.0747" y1="274.192" x2="55.0747" y2="375.023" stroke="#07ED10"/>
<line x1="59.8232" y1="274.192" x2="59.8232" y2="375.023" stroke="#07ED10"/>
<line x1="64.5723" y1="274.192" x2="64.5723" y2="375.023" stroke="#07ED10"/>
<line x1="69.321" y1="274.192" x2="69.321" y2="375.023" stroke="#07ED10"/>
<line x1="74.0698" y1="274.192" x2="74.0698" y2="375.023" stroke="#07ED10"/>
<line x1="78.8186" y1="274.192" x2="78.8186" y2="375.023" stroke="#07ED10"/>
<line x1="83.5674" y1="274.192" x2="83.5674" y2="375.023" stroke="#07ED10"/>
<line x1="88.3164" y1="274.192" x2="88.3164" y2="375.023" stroke="#07ED10"/>
<line x1="93.0652" y1="274.192" x2="93.0652" y2="375.023" stroke="#07ED10"/>
<line x1="97.814" y1="274.192" x2="97.814" y2="375.023" stroke="#07ED10"/>
<line x1="102.563" y1="274.192" x2="102.563" y2="375.023" stroke="#07ED10"/>
<line x1="107.312" y1="274.192" x2="107.312" y2="375.023" stroke="#07ED10"/>
<line x1="112.06" y1="274.192" x2="112.06" y2="375.023" stroke="#07ED10"/>
<line x1="116.809" y1="274.192" x2="116.809" y2="375.023" stroke="#07ED10"/>
<line x1="121.558" y1="274.192" x2="121.558" y2="375.023" stroke="#07ED10"/>
<line x1="126.307" y1="274.192" x2="126.307" y2="375.023" stroke="#07ED10"/>
<line x1="131.056" y1="274.192" x2="131.056" y2="375.023" stroke="#07ED10"/>
<line x1="135.804" y1="274.192" x2="135.804" y2="375.023" stroke="#07ED10"/>
<line x1="140.553" y1="274.192" x2="140.553" y2="375.023" stroke="#07ED10"/>
<line x1="145.302" y1="274.192" x2="145.302" y2="375.023" stroke="#07ED10"/>
<line x1="150.051" y1="274.192" x2="150.051" y2="375.023" stroke="#07ED10"/>
<line x1="154.8" y1="274.192" x2="154.8" y2="375.023" stroke="#07ED10"/>
<line x1="159.549" y1="274.192" x2="159.549" y2="375.023" stroke="#07ED10"/>
<line x1="164.298" y1="274.192" x2="164.298" y2="375.023" stroke="#07ED10"/>
<line x1="169.046" y1="274.192" x2="169.046" y2="375.023" stroke="#07ED10"/>
<line x1="173.795" y1="274.192" x2="173.795" y2="375.023" stroke="#07ED10"/>
<line x1="178.544" y1="274.192" x2="178.544" y2="375.023" stroke="#07ED10"/>
<line x1="183.293" y1="274.192" x2="183.293" y2="375.023" stroke="#07ED10"/>
<line x1="188.042" y1="274.192" x2="188.042" y2="375.023" stroke="#07ED10"/>
<line x1="192.79" y1="274.192" x2="192.79" y2="375.023" stroke="#07ED10"/>
<line x1="197.539" y1="274.192" x2="197.539" y2="375.023" stroke="#07ED10"/>
<line x1="202.288" y1="274.192" x2="202.288" y2="375.023" stroke="#07ED10"/>
<line x1="207.037" y1="274.192" x2="207.037" y2="375.023" stroke="#07ED10"/>
<line x1="211.786" y1="274.192" x2="211.786" y2="375.023" stroke="#07ED10"/>
<line x1="216.534" y1="274.192" x2="216.534" y2="375.023" stroke="#07ED10"/>
<line x1="221.283" y1="274.192" x2="221.283" y2="375.023" stroke="#07ED10"/>
<line x1="226.032" y1="274.192" x2="226.032" y2="375.023" stroke="#07ED10"/>
<line x1="230.781" y1="274.192" x2="230.781" y2="375.023" stroke="#07ED10"/>
<line x1="235.53" y1="274.192" x2="235.53" y2="375.023" stroke="#07ED10"/>
<line x1="240.279" y1="274.192" x2="240.279" y2="375.023" stroke="#07ED10"/>
<line x1="245.028" y1="274.192" x2="245.028" y2="375.023" stroke="#07ED10"/>
<line x1="249.776" y1="274.192" x2="249.776" y2="375.023" stroke="#07ED10"/>
<line x1="254.525" y1="274.192" x2="254.525" y2="375.023" stroke="#07ED10"/>
<line x1="259.274" y1="274.192" x2="259.274" y2="375.023" stroke="#07ED10"/>
<line x1="264.023" y1="274.192" x2="264.023" y2="375.023" stroke="#07ED10"/>
<line x1="268.771" y1="274.192" x2="268.771" y2="375.023" stroke="#07ED10"/>
<line x1="55.0747" y1="275.407" x2="55.0747" y2="376.238" stroke="#07ED10"/>
<line x1="59.8232" y1="275.407" x2="59.8232" y2="376.238" stroke="#07ED10"/>
<line x1="64.5723" y1="275.407" x2="64.5723" y2="376.238" stroke="#07ED10"/>
<line x1="69.321" y1="275.407" x2="69.321" y2="376.238" stroke="#07ED10"/>
<line x1="74.0698" y1="275.407" x2="74.0698" y2="376.238" stroke="#07ED10"/>
<line x1="78.8186" y1="275.407" x2="78.8186" y2="376.238" stroke="#07ED10"/>
<line x1="83.5674" y1="275.407" x2="83.5674" y2="376.238" stroke="#07ED10"/>
<line x1="88.3164" y1="275.407" x2="88.3164" y2="376.238" stroke="#07ED10"/>
<line x1="93.0652" y1="275.407" x2="93.0652" y2="376.238" stroke="#07ED10"/>
<line x1="97.814" y1="275.407" x2="97.814" y2="376.238" stroke="#07ED10"/>
<line x1="102.563" y1="275.407" x2="102.563" y2="376.238" stroke="#07ED10"/>
<line x1="107.312" y1="275.407" x2="107.312" y2="376.238" stroke="#07ED10"/>
<line x1="112.06" y1="275.407" x2="112.06" y2="376.238" stroke="#07ED10"/>
<line x1="116.809" y1="275.407" x2="116.809" y2="376.238" stroke="#07ED10"/>
<line x1="121.558" y1="275.407" x2="121.558" y2="376.238" stroke="#07ED10"/>
<line x1="126.307" y1="275.407" x2="126.307" y2="376.238" stroke="#07ED10"/>
<line x1="131.056" y1="275.407" x2="131.056" y2="376.238" stroke="#07ED10"/>
<line x1="135.804" y1="275.407" x2="135.804" y2="376.238" stroke="#07ED10"/>
<line x1="140.553" y1="275.407" x2="140.553" y2="376.238" stroke="#07ED10"/>
<line x1="145.302" y1="275.407" x2="145.302" y2="376.238" stroke="#07ED10"/>
<line x1="150.051" y1="275.407" x2="150.051" y2="376.238" stroke="#07ED10"/>
<line x1="154.8" y1="275.407" x2="154.8" y2="376.238" stroke="#07ED10"/>
<line x1="159.549" y1="275.407" x2="159.549" y2="376.238" stroke="#07ED10"/>
<line x1="164.298" y1="275.407" x2="164.298" y2="376.238" stroke="#07ED10"/>
<line x1="169.046" y1="275.407" x2="169.046" y2="376.238" stroke="#07ED10"/>
<line x1="173.795" y1="275.407" x2="173.795" y2="376.238" stroke="#07ED10"/>
<line x1="178.544" y1="275.407" x2="178.544" y2="376.238" stroke="#07ED10"/>
<line x1="183.293" y1="275.407" x2="183.293" y2="376.238" stroke="#07ED10"/>
<line x1="188.042" y1="275.407" x2="188.042" y2="376.238" stroke="#07ED10"/>
<line x1="192.79" y1="275.407" x2="192.79" y2="376.238" stroke="#07ED10"/>
<line x1="197.539" y1="275.407" x2="197.539" y2="376.238" stroke="#07ED10"/>
<line x1="202.288" y1="275.407" x2="202.288" y2="376.238" stroke="#07ED10"/>
<line x1="207.037" y1="275.407" x2="207.037" y2="376.238" stroke="#07ED10"/>
<line x1="211.786" y1="275.407" x2="211.786" y2="376.238" stroke="#07ED10"/>
<line x1="216.534" y1="275.407" x2="216.534" y2="376.238" stroke="#07ED10"/>
<line x1="221.283" y1="275.407" x2="221.283" y2="376.238" stroke="#07ED10"/>
<line x1="226.032" y1="275.407" x2="226.032" y2="376.238" stroke="#07ED10"/>
<line x1="230.781" y1="275.407" x2="230.781" y2="376.238" stroke="#07ED10"/>
<line x1="235.53" y1="275.407" x2="235.53" y2="376.238" stroke="#07ED10"/>
<line x1="240.279" y1="275.407" x2="240.279" y2="376.238" stroke="#07ED10"/>
<line x1="245.028" y1="275.407" x2="245.028" y2="376.238" stroke="#07ED10"/>
<line x1="249.776" y1="275.407" x2="249.776" y2="376.238" stroke="#07ED10"/>
<line x1="254.525" y1="275.407" x2="254.525" y2="376.238" stroke="#07ED10"/>
<line x1="259.274" y1="275.407" x2="259.274" y2="376.238" stroke="#07ED10"/>
<line x1="264.023" y1="275.407" x2="264.023" y2="376.238" stroke="#07ED10"/>
<line x1="268.771" y1="275.407" x2="268.771" y2="376.238" stroke="#07ED10"/>
<line x1="55.0747" y1="276.621" x2="55.0747" y2="377.453" stroke="#07ED10"/>
<line x1="59.8232" y1="276.621" x2="59.8232" y2="377.453" stroke="#07ED10"/>
<line x1="64.5723" y1="276.621" x2="64.5723" y2="377.453" stroke="#07ED10"/>
<line x1="69.321" y1="276.621" x2="69.321" y2="377.453" stroke="#07ED10"/>
<line x1="74.0698" y1="276.621" x2="74.0698" y2="377.453" stroke="#07ED10"/>
<line x1="78.8186" y1="276.621" x2="78.8186" y2="377.453" stroke="#07ED10"/>
<line x1="83.5674" y1="276.621" x2="83.5674" y2="377.453" stroke="#07ED10"/>
<line x1="88.3164" y1="276.621" x2="88.3164" y2="377.453" stroke="#07ED10"/>
<line x1="93.0652" y1="276.621" x2="93.0652" y2="377.453" stroke="#07ED10"/>
<line x1="97.814" y1="276.621" x2="97.814" y2="377.453" stroke="#07ED10"/>
<line x1="102.563" y1="276.621" x2="102.563" y2="377.453" stroke="#07ED10"/>
<line x1="107.312" y1="276.621" x2="107.312" y2="377.453" stroke="#07ED10"/>
<line x1="112.06" y1="276.621" x2="112.06" y2="377.453" stroke="#07ED10"/>
<line x1="116.809" y1="276.621" x2="116.809" y2="377.453" stroke="#07ED10"/>
<line x1="121.558" y1="276.621" x2="121.558" y2="377.453" stroke="#07ED10"/>
<line x1="126.307" y1="276.621" x2="126.307" y2="377.453" stroke="#07ED10"/>
<line x1="131.056" y1="276.621" x2="131.056" y2="377.453" stroke="#07ED10"/>
<line x1="135.804" y1="276.621" x2="135.804" y2="377.453" stroke="#07ED10"/>
<line x1="140.553" y1="276.621" x2="140.553" y2="377.453" stroke="#07ED10"/>
<line x1="145.302" y1="276.621" x2="145.302" y2="377.453" stroke="#07ED10"/>
<line x1="150.051" y1="276.621" x2="150.051" y2="377.453" stroke="#07ED10"/>
<line x1="154.8" y1="276.621" x2="154.8" y2="377.453" stroke="#07ED10"/>
<line x1="159.549" y1="276.621" x2="159.549" y2="377.453" stroke="#07ED10"/>
<line x1="164.298" y1="276.621" x2="164.298" y2="377.453" stroke="#07ED10"/>
<line x1="169.046" y1="276.621" x2="169.046" y2="377.453" stroke="#07ED10"/>
<line x1="173.795" y1="276.621" x2="173.795" y2="377.453" stroke="#07ED10"/>
<line x1="178.544" y1="276.621" x2="178.544" y2="377.453" stroke="#07ED10"/>
<line x1="183.293" y1="276.621" x2="183.293" y2="377.453" stroke="#07ED10"/>
<line x1="188.042" y1="276.621" x2="188.042" y2="377.453" stroke="#07ED10"/>
<line x1="192.79" y1="276.621" x2="192.79" y2="377.453" stroke="#07ED10"/>
<line x1="197.539" y1="276.621" x2="197.539" y2="377.453" stroke="#07ED10"/>
<line x1="202.288" y1="276.621" x2="202.288" y2="377.453" stroke="#07ED10"/>
<line x1="207.037" y1="276.621" x2="207.037" y2="377.453" stroke="#07ED10"/>
<line x1="211.786" y1="276.621" x2="211.786" y2="377.453" stroke="#07ED10"/>
<line x1="216.534" y1="276.621" x2="216.534" y2="377.453" stroke="#07ED10"/>
<line x1="221.283" y1="276.621" x2="221.283" y2="377.453" stroke="#07ED10"/>
<line x1="226.032" y1="276.621" x2="226.032" y2="377.453" stroke="#07ED10"/>
<line x1="230.781" y1="276.621" x2="230.781" y2="377.453" stroke="#07ED10"/>
<line x1="235.53" y1="276.621" x2="235.53" y2="377.453" stroke="#07ED10"/>
<line x1="240.279" y1="276.621" x2="240.279" y2="377.453" stroke="#07ED10"/>
<line x1="245.028" y1="276.621" x2="245.028" y2="377.453" stroke="#07ED10"/>
<line x1="249.776" y1="276.621" x2="249.776" y2="377.453" stroke="#07ED10"/>
<line x1="254.525" y1="276.621" x2="254.525" y2="377.453" stroke="#07ED10"/>
<line x1="259.274" y1="276.621" x2="259.274" y2="377.453" stroke="#07ED10"/>
<line x1="264.023" y1="276.621" x2="264.023" y2="377.453" stroke="#07ED10"/>
<line x1="268.771" y1="276.621" x2="268.771" y2="377.453" stroke="#07ED10"/>
<line x1="55.0747" y1="277.836" x2="55.0747" y2="378.668" stroke="#07ED10"/>
<line x1="59.8232" y1="277.836" x2="59.8232" y2="378.668" stroke="#07ED10"/>
<line x1="64.5723" y1="277.836" x2="64.5723" y2="378.668" stroke="#07ED10"/>
<line x1="69.321" y1="277.836" x2="69.321" y2="378.668" stroke="#07ED10"/>
<line x1="74.0698" y1="277.836" x2="74.0698" y2="378.668" stroke="#07ED10"/>
<line x1="78.8186" y1="277.836" x2="78.8186" y2="378.668" stroke="#07ED10"/>
<line x1="83.5674" y1="277.836" x2="83.5674" y2="378.668" stroke="#07ED10"/>
<line x1="88.3164" y1="277.836" x2="88.3164" y2="378.668" stroke="#07ED10"/>
<line x1="93.0652" y1="277.836" x2="93.0652" y2="378.668" stroke="#07ED10"/>
<line x1="97.814" y1="277.836" x2="97.814" y2="378.668" stroke="#07ED10"/>
<line x1="102.563" y1="277.836" x2="102.563" y2="378.668" stroke="#07ED10"/>
<line x1="107.312" y1="277.836" x2="107.312" y2="378.668" stroke="#07ED10"/>
<line x1="112.06" y1="277.836" x2="112.06" y2="378.668" stroke="#07ED10"/>
<line x1="116.809" y1="277.836" x2="116.809" y2="378.668" stroke="#07ED10"/>
<line x1="121.558" y1="277.836" x2="121.558" y2="378.668" stroke="#07ED10"/>
<line x1="126.307" y1="277.836" x2="126.307" y2="378.668" stroke="#07ED10"/>
<line x1="131.056" y1="277.836" x2="131.056" y2="378.668" stroke="#07ED10"/>
<line x1="135.804" y1="277.836" x2="135.804" y2="378.668" stroke="#07ED10"/>
<line x1="140.553" y1="277.836" x2="140.553" y2="378.668" stroke="#07ED10"/>
<line x1="145.302" y1="277.836" x2="145.302" y2="378.668" stroke="#07ED10"/>
<line x1="150.051" y1="277.836" x2="150.051" y2="378.668" stroke="#07ED10"/>
<line x1="154.8" y1="277.836" x2="154.8" y2="378.668" stroke="#07ED10"/>
<line x1="159.549" y1="277.836" x2="159.549" y2="378.668" stroke="#07ED10"/>
<line x1="164.298" y1="277.836" x2="164.298" y2="378.668" stroke="#07ED10"/>
<line x1="169.046" y1="277.836" x2="169.046" y2="378.668" stroke="#07ED10"/>
<line x1="173.795" y1="277.836" x2="173.795" y2="378.668" stroke="#07ED10"/>
<line x1="178.544" y1="277.836" x2="178.544" y2="378.668" stroke="#07ED10"/>
<line x1="183.293" y1="277.836" x2="183.293" y2="378.668" stroke="#07ED10"/>
<line x1="188.042" y1="277.836" x2="188.042" y2="378.668" stroke="#07ED10"/>
<line x1="192.79" y1="277.836" x2="192.79" y2="378.668" stroke="#07ED10"/>
<line x1="197.539" y1="277.836" x2="197.539" y2="378.668" stroke="#07ED10"/>
<line x1="202.288" y1="277.836" x2="202.288" y2="378.668" stroke="#07ED10"/>
<line x1="207.037" y1="277.836" x2="207.037" y2="378.668" stroke="#07ED10"/>
<line x1="211.786" y1="277.836" x2="211.786" y2="378.668" stroke="#07ED10"/>
<line x1="216.534" y1="277.836" x2="216.534" y2="378.668" stroke="#07ED10"/>
<line x1="221.283" y1="277.836" x2="221.283" y2="378.668" stroke="#07ED10"/>
<line x1="226.032" y1="277.836" x2="226.032" y2="378.668" stroke="#07ED10"/>
<line x1="230.781" y1="277.836" x2="230.781" y2="378.668" stroke="#07ED10"/>
<line x1="235.53" y1="277.836" x2="235.53" y2="378.668" stroke="#07ED10"/>
<line x1="240.279" y1="277.836" x2="240.279" y2="378.668" stroke="#07ED10"/>
<line x1="245.028" y1="277.836" x2="245.028" y2="378.668" stroke="#07ED10"/>
<line x1="249.776" y1="277.836" x2="249.776" y2="378.668" stroke="#07ED10"/>
<line x1="254.525" y1="277.836" x2="254.525" y2="378.668" stroke="#07ED10"/>
<line x1="259.274" y1="277.836" x2="259.274" y2="378.668" stroke="#07ED10"/>
<line x1="264.023" y1="277.836" x2="264.023" y2="378.668" stroke="#07ED10"/>
<line x1="268.771" y1="277.836" x2="268.771" y2="378.668" stroke="#07ED10"/>
<line x1="55.0747" y1="279.051" x2="55.0747" y2="379.882" stroke="#07ED10"/>
<line x1="59.8232" y1="279.051" x2="59.8232" y2="379.882" stroke="#07ED10"/>
<line x1="64.5723" y1="279.051" x2="64.5723" y2="379.882" stroke="#07ED10"/>
<line x1="69.321" y1="279.051" x2="69.321" y2="379.882" stroke="#07ED10"/>
<line x1="74.0698" y1="279.051" x2="74.0698" y2="379.882" stroke="#07ED10"/>
<line x1="78.8186" y1="279.051" x2="78.8186" y2="379.882" stroke="#07ED10"/>
<line x1="83.5674" y1="279.051" x2="83.5674" y2="379.882" stroke="#07ED10"/>
<line x1="88.3164" y1="279.051" x2="88.3164" y2="379.882" stroke="#07ED10"/>
<line x1="93.0652" y1="279.051" x2="93.0652" y2="379.882" stroke="#07ED10"/>
<line x1="97.814" y1="279.051" x2="97.814" y2="379.882" stroke="#07ED10"/>
<line x1="102.563" y1="279.051" x2="102.563" y2="379.882" stroke="#07ED10"/>
<line x1="107.312" y1="279.051" x2="107.312" y2="379.882" stroke="#07ED10"/>
<line x1="112.06" y1="279.051" x2="112.06" y2="379.882" stroke="#07ED10"/>
<line x1="116.809" y1="279.051" x2="116.809" y2="379.882" stroke="#07ED10"/>
<line x1="121.558" y1="279.051" x2="121.558" y2="379.882" stroke="#07ED10"/>
<line x1="126.307" y1="279.051" x2="126.307" y2="379.882" stroke="#07ED10"/>
<line x1="131.056" y1="279.051" x2="131.056" y2="379.882" stroke="#07ED10"/>
<line x1="135.804" y1="279.051" x2="135.804" y2="379.882" stroke="#07ED10"/>
<line x1="140.553" y1="279.051" x2="140.553" y2="379.882" stroke="#07ED10"/>
<line x1="145.302" y1="279.051" x2="145.302" y2="379.882" stroke="#07ED10"/>
<line x1="150.051" y1="279.051" x2="150.051" y2="379.882" stroke="#07ED10"/>
<line x1="154.8" y1="279.051" x2="154.8" y2="379.882" stroke="#07ED10"/>
<line x1="159.549" y1="279.051" x2="159.549" y2="379.882" stroke="#07ED10"/>
<line x1="164.298" y1="279.051" x2="164.298" y2="379.882" stroke="#07ED10"/>
<line x1="169.046" y1="279.051" x2="169.046" y2="379.882" stroke="#07ED10"/>
<line x1="173.795" y1="279.051" x2="173.795" y2="379.882" stroke="#07ED10"/>
<line x1="178.544" y1="279.051" x2="178.544" y2="379.882" stroke="#07ED10"/>
<line x1="183.293" y1="279.051" x2="183.293" y2="379.882" stroke="#07ED10"/>
<line x1="188.042" y1="279.051" x2="188.042" y2="379.882" stroke="#07ED10"/>
<line x1="192.79" y1="279.051" x2="192.79" y2="379.882" stroke="#07ED10"/>
<line x1="197.539" y1="279.051" x2="197.539" y2="379.882" stroke="#07ED10"/>
<line x1="202.288" y1="279.051" x2="202.288" y2="379.882" stroke="#07ED10"/>
<line x1="207.037" y1="279.051" x2="207.037" y2="379.882" stroke="#07ED10"/>
<line x1="211.786" y1="279.051" x2="211.786" y2="379.882" stroke="#07ED10"/>
<line x1="216.534" y1="279.051" x2="216.534" y2="379.882" stroke="#07ED10"/>
<line x1="221.283" y1="279.051" x2="221.283" y2="379.882" stroke="#07ED10"/>
<line x1="226.032" y1="279.051" x2="226.032" y2="379.882" stroke="#07ED10"/>
<line x1="230.781" y1="279.051" x2="230.781" y2="379.882" stroke="#07ED10"/>
<line x1="235.53" y1="279.051" x2="235.53" y2="379.882" stroke="#07ED10"/>
<line x1="240.279" y1="279.051" x2="240.279" y2="379.882" stroke="#07ED10"/>
<line x1="245.028" y1="279.051" x2="245.028" y2="379.882" stroke="#07ED10"/>
<line x1="249.776" y1="279.051" x2="249.776" y2="379.882" stroke="#07ED10"/>
<line x1="254.525" y1="279.051" x2="254.525" y2="379.882" stroke="#07ED10"/>
<line x1="259.274" y1="279.051" x2="259.274" y2="379.882" stroke="#07ED10"/>
<line x1="264.023" y1="279.051" x2="264.023" y2="379.882" stroke="#07ED10"/>
<line x1="268.771" y1="279.051" x2="268.771" y2="379.882" stroke="#07ED10"/>
</g>
</svg>
