<svg width="322" height="507" viewBox="0 0 322 507" fill="none" xmlns="http://www.w3.org/2000/svg">
<rect x="0.5" y="0.5" width="321" height="506" rx="29.5" fill="white" stroke="black"/>
<path d="M53.552 264.469L53.5523 264.457L53.5524 264.445C53.7608 249.889 57.9178 238.062 65.3756 229.27C72.8328 220.478 83.7711 214.507 97.9295 211.989C112.561 209.405 134.644 212.706 159.86 221.701C167.056 224.299 171.866 225.864 176.49 226.651C181.157 227.446 185.524 227.432 191.818 227.043L191.824 227.043C207.326 226.051 225.6 219.738 238.651 210.824C246.84 205.28 255.035 205.24 260.595 209.724C263.741 212.369 265.63 214.932 266.799 218.471C268.011 222.142 268.5 227.007 268.5 234.369C268.5 253.569 256.623 272.628 237.951 283.222C215.713 295.692 193.669 296.933 160.559 287.048L160.548 287.044C154.293 285.209 148.192 283.517 143.403 282.281C141.01 281.663 138.928 281.155 137.311 280.8C135.819 280.472 134.426 280.203 133.614 280.203C128.584 280.203 121.506 281.798 114.279 284.207C106.997 286.634 99.3113 289.974 93.0116 293.637L93.0041 293.641C84.3653 298.704 78.1223 301.142 73.2226 301.463C68.5759 301.768 64.9127 300.18 61.2505 296.387C55.2944 290.012 53.1261 282.206 53.552 264.469Z" fill="white" stroke="#F32333" stroke-width="5"/>
</svg>
