<svg width="322" height="507" viewBox="0 0 322 507" fill="none" xmlns="http://www.w3.org/2000/svg">
<rect x="0.5" y="0.5" width="321" height="506" rx="29.5" fill="white" stroke="black"/>
<path d="M59.4378 157.109C52.7727 149.984 50.6227 141.318 51.0527 123.409C51.4827 93.3686 68.2529 73.7266 97.4932 68.5273C112.758 65.8313 135.334 69.2975 160.704 78.3483C175.109 83.5476 179.194 84.3179 191.664 83.5476C206.714 82.5848 224.56 76.4226 237.245 67.757C246.06 61.7874 255.52 61.4022 262.185 66.7941C269.065 72.5712 271 78.5408 271 93.3686C271 113.588 258.53 133.423 239.18 144.399C216.174 157.301 193.384 158.457 159.844 148.443C147.374 144.784 135.549 141.703 133.614 141.703C124.368 141.703 106.523 147.673 94.2681 154.798C76.853 165.004 67.6079 165.582 59.4378 157.109Z" fill="#07ED10"/>
<path d="M59.4378 300.109C52.7727 292.984 50.6227 284.318 51.0527 266.409C51.4827 236.369 68.2529 216.727 97.4932 211.527C112.758 208.831 135.334 212.298 160.704 221.348C175.109 226.548 179.194 227.318 191.664 226.548C206.714 225.585 224.56 219.423 237.245 210.757C246.06 204.787 255.52 204.402 262.185 209.794C269.065 215.571 271 221.541 271 236.369C271 256.588 258.53 276.423 239.18 287.399C216.174 300.301 193.384 301.457 159.844 291.443C147.374 287.784 135.549 284.703 133.614 284.703C124.368 284.703 106.523 290.673 94.2681 297.798C76.853 308.004 67.6079 308.582 59.4378 300.109Z" fill="#07ED10"/>
<path d="M59.4378 440.109C52.7727 432.984 50.6227 424.318 51.0527 406.409C51.4827 376.369 68.2529 356.727 97.4932 351.527C112.758 348.831 135.334 352.298 160.704 361.348C175.109 366.548 179.194 367.318 191.664 366.548C206.714 365.585 224.56 359.423 237.245 350.757C246.06 344.787 255.52 344.402 262.185 349.794C269.065 355.571 271 361.541 271 376.369C271 396.588 258.53 416.423 239.18 427.399C216.174 440.301 193.384 441.457 159.844 431.443C147.374 427.784 135.549 424.703 133.614 424.703C124.368 424.703 106.523 430.673 94.2681 437.798C76.853 448.004 67.6079 448.582 59.4378 440.109Z" fill="#07ED10"/>
</svg>
