<svg width="322" height="507" viewBox="0 0 322 507" fill="none" xmlns="http://www.w3.org/2000/svg">
<rect x="0.5" y="0.5" width="321" height="506" rx="29.5" fill="white" stroke="black"/>
<path d="M53.552 264.469L53.5523 264.457L53.5524 264.445C53.7608 249.889 57.9178 238.062 65.3756 229.27C72.8328 220.478 83.7711 214.507 97.9295 211.989C112.561 209.405 134.644 212.706 159.86 221.701C167.056 224.299 171.866 225.864 176.49 226.651C181.157 227.446 185.524 227.432 191.818 227.043L191.824 227.043C207.326 226.051 225.6 219.738 238.651 210.824C246.84 205.28 255.035 205.24 260.595 209.724C263.741 212.369 265.63 214.932 266.799 218.471C268.011 222.142 268.5 227.007 268.5 234.369C268.5 253.569 256.623 272.628 237.951 283.222C215.713 295.692 193.669 296.933 160.559 287.048L160.548 287.044C154.293 285.209 148.192 283.517 143.403 282.281C141.01 281.663 138.928 281.155 137.311 280.8C135.819 280.472 134.426 280.203 133.614 280.203C128.584 280.203 121.506 281.798 114.279 284.207C106.997 286.634 99.3113 289.974 93.0116 293.637L93.0041 293.641C84.3653 298.704 78.1223 301.142 73.2226 301.463C68.5759 301.768 64.9127 300.18 61.2505 296.387C55.2944 290.012 53.1261 282.206 53.552 264.469Z" fill="white" stroke="#4D0B5E" stroke-width="5"/>
<mask id="mask0" mask-type="alpha" maskUnits="userSpaceOnUse" x="51" y="204" width="220" height="100">
<path d="M51.5526 264.421L51.5526 264.416C51.7663 249.489 56.0378 237.187 63.8504 227.976C71.6629 218.765 83.0526 212.603 97.5804 210.02C112.719 207.346 135.196 210.779 160.535 219.819C167.736 222.418 172.396 223.925 176.826 224.679C181.264 225.435 185.448 225.433 191.695 225.047L191.696 225.047C206.837 224.078 224.768 217.886 237.526 209.17C246.216 203.286 255.423 202.97 261.867 208.18C265.248 211.02 267.389 213.882 268.698 217.844C270.015 221.833 270.5 226.965 270.5 234.369C270.5 254.384 258.149 274.064 238.934 284.964C216.082 297.779 193.441 298.952 159.987 288.964L159.985 288.963C153.746 287.133 147.666 285.446 142.903 284.217C140.522 283.603 138.466 283.101 136.882 282.754C135.323 282.411 134.163 282.203 133.614 282.203C128.91 282.203 122.076 283.716 114.911 286.104C107.736 288.496 100.179 291.783 94.0168 295.366L94.0153 295.367C85.3215 300.462 78.7408 303.106 73.3533 303.459C68.0165 303.809 63.8008 301.912 59.8002 297.764C53.2771 290.789 51.1234 282.296 51.5526 264.421Z" fill="white" stroke="#FF0000"/>
</mask>
<g mask="url(#mask0)">
<line x1="55.0747" y1="198.118" x2="55.0747" y2="298.949" stroke="#4D0B5E"/>
<line x1="59.8232" y1="198.118" x2="59.8232" y2="298.949" stroke="#4D0B5E"/>
<line x1="64.5723" y1="198.118" x2="64.5723" y2="298.949" stroke="#4D0B5E"/>
<line x1="69.321" y1="198.118" x2="69.321" y2="298.949" stroke="#4D0B5E"/>
<line x1="74.0701" y1="198.118" x2="74.0701" y2="298.949" stroke="#4D0B5E"/>
<line x1="78.8186" y1="198.118" x2="78.8186" y2="298.949" stroke="#4D0B5E"/>
<line x1="83.5674" y1="198.118" x2="83.5674" y2="298.949" stroke="#4D0B5E"/>
<line x1="88.3164" y1="198.118" x2="88.3164" y2="298.949" stroke="#4D0B5E"/>
<line x1="93.0652" y1="198.118" x2="93.0652" y2="298.949" stroke="#4D0B5E"/>
<line x1="97.814" y1="198.118" x2="97.814" y2="298.949" stroke="#4D0B5E"/>
<line x1="102.563" y1="198.118" x2="102.563" y2="298.949" stroke="#4D0B5E"/>
<line x1="107.312" y1="198.118" x2="107.312" y2="298.949" stroke="#4D0B5E"/>
<line x1="112.061" y1="198.118" x2="112.061" y2="298.949" stroke="#4D0B5E"/>
<line x1="116.809" y1="198.118" x2="116.809" y2="298.949" stroke="#4D0B5E"/>
<line x1="121.558" y1="198.118" x2="121.558" y2="298.949" stroke="#4D0B5E"/>
<line x1="126.307" y1="198.118" x2="126.307" y2="298.949" stroke="#4D0B5E"/>
<line x1="131.056" y1="198.118" x2="131.056" y2="298.949" stroke="#4D0B5E"/>
<line x1="135.804" y1="198.118" x2="135.804" y2="298.949" stroke="#4D0B5E"/>
<line x1="140.553" y1="198.118" x2="140.553" y2="298.949" stroke="#4D0B5E"/>
<line x1="145.302" y1="198.118" x2="145.302" y2="298.949" stroke="#4D0B5E"/>
<line x1="150.051" y1="198.118" x2="150.051" y2="298.949" stroke="#4D0B5E"/>
<line x1="154.8" y1="198.118" x2="154.8" y2="298.949" stroke="#4D0B5E"/>
<line x1="159.549" y1="198.118" x2="159.549" y2="298.949" stroke="#4D0B5E"/>
<line x1="164.298" y1="198.118" x2="164.298" y2="298.949" stroke="#4D0B5E"/>
<line x1="169.046" y1="198.118" x2="169.046" y2="298.949" stroke="#4D0B5E"/>
<line x1="173.795" y1="198.118" x2="173.795" y2="298.949" stroke="#4D0B5E"/>
<line x1="178.544" y1="198.118" x2="178.544" y2="298.949" stroke="#4D0B5E"/>
<line x1="183.293" y1="198.118" x2="183.293" y2="298.949" stroke="#4D0B5E"/>
<line x1="188.042" y1="198.118" x2="188.042" y2="298.949" stroke="#4D0B5E"/>
<line x1="192.79" y1="198.118" x2="192.79" y2="298.949" stroke="#4D0B5E"/>
<line x1="197.539" y1="198.118" x2="197.539" y2="298.949" stroke="#4D0B5E"/>
<line x1="202.288" y1="198.118" x2="202.288" y2="298.949" stroke="#4D0B5E"/>
<line x1="207.037" y1="198.118" x2="207.037" y2="298.949" stroke="#4D0B5E"/>
<line x1="211.786" y1="198.118" x2="211.786" y2="298.949" stroke="#4D0B5E"/>
<line x1="216.534" y1="198.118" x2="216.534" y2="298.949" stroke="#4D0B5E"/>
<line x1="221.283" y1="198.118" x2="221.283" y2="298.949" stroke="#4D0B5E"/>
<line x1="226.032" y1="198.118" x2="226.032" y2="298.949" stroke="#4D0B5E"/>
<line x1="230.781" y1="198.118" x2="230.781" y2="298.949" stroke="#4D0B5E"/>
<line x1="235.53" y1="198.118" x2="235.53" y2="298.949" stroke="#4D0B5E"/>
<line x1="240.279" y1="198.118" x2="240.279" y2="298.949" stroke="#4D0B5E"/>
<line x1="245.028" y1="198.118" x2="245.028" y2="298.949" stroke="#4D0B5E"/>
<line x1="249.776" y1="198.118" x2="249.776" y2="298.949" stroke="#4D0B5E"/>
<line x1="254.525" y1="198.118" x2="254.525" y2="298.949" stroke="#4D0B5E"/>
<line x1="259.274" y1="198.118" x2="259.274" y2="298.949" stroke="#4D0B5E"/>
<line x1="264.023" y1="198.118" x2="264.023" y2="298.949" stroke="#4D0B5E"/>
<line x1="268.771" y1="198.118" x2="268.771" y2="298.949" stroke="#4D0B5E"/>
<line x1="55.0747" y1="199.332" x2="55.0747" y2="300.164" stroke="#4D0B5E"/>
<line x1="59.8232" y1="199.332" x2="59.8232" y2="300.164" stroke="#4D0B5E"/>
<line x1="64.5723" y1="199.332" x2="64.5723" y2="300.164" stroke="#4D0B5E"/>
<line x1="69.321" y1="199.332" x2="69.321" y2="300.164" stroke="#4D0B5E"/>
<line x1="74.0698" y1="199.332" x2="74.0698" y2="300.164" stroke="#4D0B5E"/>
<line x1="78.8186" y1="199.332" x2="78.8186" y2="300.164" stroke="#4D0B5E"/>
<line x1="83.5674" y1="199.332" x2="83.5674" y2="300.164" stroke="#4D0B5E"/>
<line x1="88.3164" y1="199.332" x2="88.3164" y2="300.164" stroke="#4D0B5E"/>
<line x1="93.0652" y1="199.332" x2="93.0652" y2="300.164" stroke="#4D0B5E"/>
<line x1="97.814" y1="199.332" x2="97.814" y2="300.164" stroke="#4D0B5E"/>
<line x1="102.563" y1="199.332" x2="102.563" y2="300.164" stroke="#4D0B5E"/>
<line x1="107.312" y1="199.332" x2="107.312" y2="300.164" stroke="#4D0B5E"/>
<line x1="112.06" y1="199.332" x2="112.06" y2="300.164" stroke="#4D0B5E"/>
<line x1="116.809" y1="199.332" x2="116.809" y2="300.164" stroke="#4D0B5E"/>
<line x1="121.558" y1="199.332" x2="121.558" y2="300.164" stroke="#4D0B5E"/>
<line x1="126.307" y1="199.332" x2="126.307" y2="300.164" stroke="#4D0B5E"/>
<line x1="131.056" y1="199.332" x2="131.056" y2="300.164" stroke="#4D0B5E"/>
<line x1="135.804" y1="199.332" x2="135.804" y2="300.164" stroke="#4D0B5E"/>
<line x1="140.553" y1="199.332" x2="140.553" y2="300.164" stroke="#4D0B5E"/>
<line x1="145.302" y1="199.332" x2="145.302" y2="300.164" stroke="#4D0B5E"/>
<line x1="150.051" y1="199.332" x2="150.051" y2="300.164" stroke="#4D0B5E"/>
<line x1="154.8" y1="199.332" x2="154.8" y2="300.164" stroke="#4D0B5E"/>
<line x1="159.549" y1="199.332" x2="159.549" y2="300.164" stroke="#4D0B5E"/>
<line x1="164.298" y1="199.332" x2="164.298" y2="300.164" stroke="#4D0B5E"/>
<line x1="169.046" y1="199.332" x2="169.046" y2="300.164" stroke="#4D0B5E"/>
<line x1="173.795" y1="199.332" x2="173.795" y2="300.164" stroke="#4D0B5E"/>
<line x1="178.544" y1="199.332" x2="178.544" y2="300.164" stroke="#4D0B5E"/>
<line x1="183.293" y1="199.332" x2="183.293" y2="300.164" stroke="#4D0B5E"/>
<line x1="188.042" y1="199.332" x2="188.042" y2="300.164" stroke="#4D0B5E"/>
<line x1="192.79" y1="199.332" x2="192.79" y2="300.164" stroke="#4D0B5E"/>
<line x1="197.539" y1="199.332" x2="197.539" y2="300.164" stroke="#4D0B5E"/>
<line x1="202.288" y1="199.332" x2="202.288" y2="300.164" stroke="#4D0B5E"/>
<line x1="207.037" y1="199.332" x2="207.037" y2="300.164" stroke="#4D0B5E"/>
<line x1="211.786" y1="199.332" x2="211.786" y2="300.164" stroke="#4D0B5E"/>
<line x1="216.534" y1="199.332" x2="216.534" y2="300.164" stroke="#4D0B5E"/>
<line x1="221.283" y1="199.332" x2="221.283" y2="300.164" stroke="#4D0B5E"/>
<line x1="226.032" y1="199.332" x2="226.032" y2="300.164" stroke="#4D0B5E"/>
<line x1="230.781" y1="199.332" x2="230.781" y2="300.164" stroke="#4D0B5E"/>
<line x1="235.53" y1="199.332" x2="235.53" y2="300.164" stroke="#4D0B5E"/>
<line x1="240.279" y1="199.332" x2="240.279" y2="300.164" stroke="#4D0B5E"/>
<line x1="245.028" y1="199.332" x2="245.028" y2="300.164" stroke="#4D0B5E"/>
<line x1="249.776" y1="199.332" x2="249.776" y2="300.164" stroke="#4D0B5E"/>
<line x1="254.525" y1="199.332" x2="254.525" y2="300.164" stroke="#4D0B5E"/>
<line x1="259.274" y1="199.332" x2="259.274" y2="300.164" stroke="#4D0B5E"/>
<line x1="264.023" y1="199.332" x2="264.023" y2="300.164" stroke="#4D0B5E"/>
<line x1="268.771" y1="199.332" x2="268.771" y2="300.164" stroke="#4D0B5E"/>
<line x1="55.0747" y1="200.547" x2="55.0747" y2="301.379" stroke="#4D0B5E"/>
<line x1="59.8232" y1="200.547" x2="59.8232" y2="301.379" stroke="#4D0B5E"/>
<line x1="64.5723" y1="200.547" x2="64.5723" y2="301.379" stroke="#4D0B5E"/>
<line x1="69.321" y1="200.547" x2="69.321" y2="301.379" stroke="#4D0B5E"/>
<line x1="74.0698" y1="200.547" x2="74.0698" y2="301.379" stroke="#4D0B5E"/>
<line x1="78.8186" y1="200.547" x2="78.8186" y2="301.379" stroke="#4D0B5E"/>
<line x1="83.5674" y1="200.547" x2="83.5674" y2="301.379" stroke="#4D0B5E"/>
<line x1="88.3164" y1="200.547" x2="88.3164" y2="301.379" stroke="#4D0B5E"/>
<line x1="93.0652" y1="200.547" x2="93.0652" y2="301.379" stroke="#4D0B5E"/>
<line x1="97.814" y1="200.547" x2="97.814" y2="301.379" stroke="#4D0B5E"/>
<line x1="102.563" y1="200.547" x2="102.563" y2="301.379" stroke="#4D0B5E"/>
<line x1="107.312" y1="200.547" x2="107.312" y2="301.379" stroke="#4D0B5E"/>
<line x1="112.06" y1="200.547" x2="112.06" y2="301.379" stroke="#4D0B5E"/>
<line x1="116.809" y1="200.547" x2="116.809" y2="301.379" stroke="#4D0B5E"/>
<line x1="121.558" y1="200.547" x2="121.558" y2="301.379" stroke="#4D0B5E"/>
<line x1="126.307" y1="200.547" x2="126.307" y2="301.379" stroke="#4D0B5E"/>
<line x1="131.056" y1="200.547" x2="131.056" y2="301.379" stroke="#4D0B5E"/>
<line x1="135.804" y1="200.547" x2="135.804" y2="301.379" stroke="#4D0B5E"/>
<line x1="140.553" y1="200.547" x2="140.553" y2="301.379" stroke="#4D0B5E"/>
<line x1="145.302" y1="200.547" x2="145.302" y2="301.379" stroke="#4D0B5E"/>
<line x1="150.051" y1="200.547" x2="150.051" y2="301.379" stroke="#4D0B5E"/>
<line x1="154.8" y1="200.547" x2="154.8" y2="301.379" stroke="#4D0B5E"/>
<line x1="159.549" y1="200.547" x2="159.549" y2="301.379" stroke="#4D0B5E"/>
<line x1="164.298" y1="200.547" x2="164.298" y2="301.379" stroke="#4D0B5E"/>
<line x1="169.046" y1="200.547" x2="169.046" y2="301.379" stroke="#4D0B5E"/>
<line x1="173.795" y1="200.547" x2="173.795" y2="301.379" stroke="#4D0B5E"/>
<line x1="178.544" y1="200.547" x2="178.544" y2="301.379" stroke="#4D0B5E"/>
<line x1="183.293" y1="200.547" x2="183.293" y2="301.379" stroke="#4D0B5E"/>
<line x1="188.042" y1="200.547" x2="188.042" y2="301.379" stroke="#4D0B5E"/>
<line x1="192.79" y1="200.547" x2="192.79" y2="301.379" stroke="#4D0B5E"/>
<line x1="197.539" y1="200.547" x2="197.539" y2="301.379" stroke="#4D0B5E"/>
<line x1="202.288" y1="200.547" x2="202.288" y2="301.379" stroke="#4D0B5E"/>
<line x1="207.037" y1="200.547" x2="207.037" y2="301.379" stroke="#4D0B5E"/>
<line x1="211.786" y1="200.547" x2="211.786" y2="301.379" stroke="#4D0B5E"/>
<line x1="216.534" y1="200.547" x2="216.534" y2="301.379" stroke="#4D0B5E"/>
<line x1="221.283" y1="200.547" x2="221.283" y2="301.379" stroke="#4D0B5E"/>
<line x1="226.032" y1="200.547" x2="226.032" y2="301.379" stroke="#4D0B5E"/>
<line x1="230.781" y1="200.547" x2="230.781" y2="301.379" stroke="#4D0B5E"/>
<line x1="235.53" y1="200.547" x2="235.53" y2="301.379" stroke="#4D0B5E"/>
<line x1="240.279" y1="200.547" x2="240.279" y2="301.379" stroke="#4D0B5E"/>
<line x1="245.028" y1="200.547" x2="245.028" y2="301.379" stroke="#4D0B5E"/>
<line x1="249.776" y1="200.547" x2="249.776" y2="301.379" stroke="#4D0B5E"/>
<line x1="254.525" y1="200.547" x2="254.525" y2="301.379" stroke="#4D0B5E"/>
<line x1="259.274" y1="200.547" x2="259.274" y2="301.379" stroke="#4D0B5E"/>
<line x1="264.023" y1="200.547" x2="264.023" y2="301.379" stroke="#4D0B5E"/>
<line x1="268.771" y1="200.547" x2="268.771" y2="301.379" stroke="#4D0B5E"/>
<line x1="55.0747" y1="201.762" x2="55.0747" y2="302.593" stroke="#4D0B5E"/>
<line x1="59.8232" y1="201.762" x2="59.8232" y2="302.593" stroke="#4D0B5E"/>
<line x1="64.5723" y1="201.762" x2="64.5723" y2="302.593" stroke="#4D0B5E"/>
<line x1="69.321" y1="201.762" x2="69.321" y2="302.593" stroke="#4D0B5E"/>
<line x1="74.0698" y1="201.762" x2="74.0698" y2="302.593" stroke="#4D0B5E"/>
<line x1="78.8186" y1="201.762" x2="78.8186" y2="302.593" stroke="#4D0B5E"/>
<line x1="83.5674" y1="201.762" x2="83.5674" y2="302.593" stroke="#4D0B5E"/>
<line x1="88.3164" y1="201.762" x2="88.3164" y2="302.593" stroke="#4D0B5E"/>
<line x1="93.0652" y1="201.762" x2="93.0652" y2="302.593" stroke="#4D0B5E"/>
<line x1="97.814" y1="201.762" x2="97.814" y2="302.593" stroke="#4D0B5E"/>
<line x1="102.563" y1="201.762" x2="102.563" y2="302.593" stroke="#4D0B5E"/>
<line x1="107.312" y1="201.762" x2="107.312" y2="302.593" stroke="#4D0B5E"/>
<line x1="112.06" y1="201.762" x2="112.06" y2="302.593" stroke="#4D0B5E"/>
<line x1="116.809" y1="201.762" x2="116.809" y2="302.593" stroke="#4D0B5E"/>
<line x1="121.558" y1="201.762" x2="121.558" y2="302.593" stroke="#4D0B5E"/>
<line x1="126.307" y1="201.762" x2="126.307" y2="302.593" stroke="#4D0B5E"/>
<line x1="131.056" y1="201.762" x2="131.056" y2="302.593" stroke="#4D0B5E"/>
<line x1="135.804" y1="201.762" x2="135.804" y2="302.593" stroke="#4D0B5E"/>
<line x1="140.553" y1="201.762" x2="140.553" y2="302.593" stroke="#4D0B5E"/>
<line x1="145.302" y1="201.762" x2="145.302" y2="302.593" stroke="#4D0B5E"/>
<line x1="150.051" y1="201.762" x2="150.051" y2="302.593" stroke="#4D0B5E"/>
<line x1="154.8" y1="201.762" x2="154.8" y2="302.593" stroke="#4D0B5E"/>
<line x1="159.549" y1="201.762" x2="159.549" y2="302.593" stroke="#4D0B5E"/>
<line x1="164.298" y1="201.762" x2="164.298" y2="302.593" stroke="#4D0B5E"/>
<line x1="169.046" y1="201.762" x2="169.046" y2="302.593" stroke="#4D0B5E"/>
<line x1="173.795" y1="201.762" x2="173.795" y2="302.593" stroke="#4D0B5E"/>
<line x1="178.544" y1="201.762" x2="178.544" y2="302.593" stroke="#4D0B5E"/>
<line x1="183.293" y1="201.762" x2="183.293" y2="302.593" stroke="#4D0B5E"/>
<line x1="188.042" y1="201.762" x2="188.042" y2="302.593" stroke="#4D0B5E"/>
<line x1="192.79" y1="201.762" x2="192.79" y2="302.593" stroke="#4D0B5E"/>
<line x1="197.539" y1="201.762" x2="197.539" y2="302.593" stroke="#4D0B5E"/>
<line x1="202.288" y1="201.762" x2="202.288" y2="302.593" stroke="#4D0B5E"/>
<line x1="207.037" y1="201.762" x2="207.037" y2="302.593" stroke="#4D0B5E"/>
<line x1="211.786" y1="201.762" x2="211.786" y2="302.593" stroke="#4D0B5E"/>
<line x1="216.534" y1="201.762" x2="216.534" y2="302.593" stroke="#4D0B5E"/>
<line x1="221.283" y1="201.762" x2="221.283" y2="302.593" stroke="#4D0B5E"/>
<line x1="226.032" y1="201.762" x2="226.032" y2="302.593" stroke="#4D0B5E"/>
<line x1="230.781" y1="201.762" x2="230.781" y2="302.593" stroke="#4D0B5E"/>
<line x1="235.53" y1="201.762" x2="235.53" y2="302.593" stroke="#4D0B5E"/>
<line x1="240.279" y1="201.762" x2="240.279" y2="302.593" stroke="#4D0B5E"/>
<line x1="245.028" y1="201.762" x2="245.028" y2="302.593" stroke="#4D0B5E"/>
<line x1="249.776" y1="201.762" x2="249.776" y2="302.593" stroke="#4D0B5E"/>
<line x1="254.525" y1="201.762" x2="254.525" y2="302.593" stroke="#4D0B5E"/>
<line x1="259.274" y1="201.762" x2="259.274" y2="302.593" stroke="#4D0B5E"/>
<line x1="264.023" y1="201.762" x2="264.023" y2="302.593" stroke="#4D0B5E"/>
<line x1="268.771" y1="201.762" x2="268.771" y2="302.593" stroke="#4D0B5E"/>
<line x1="55.0747" y1="202.977" x2="55.0747" y2="303.808" stroke="#4D0B5E"/>
<line x1="59.8232" y1="202.977" x2="59.8232" y2="303.808" stroke="#4D0B5E"/>
<line x1="64.5723" y1="202.977" x2="64.5723" y2="303.808" stroke="#4D0B5E"/>
<line x1="69.321" y1="202.977" x2="69.321" y2="303.808" stroke="#4D0B5E"/>
<line x1="74.0698" y1="202.977" x2="74.0698" y2="303.808" stroke="#4D0B5E"/>
<line x1="78.8186" y1="202.977" x2="78.8186" y2="303.808" stroke="#4D0B5E"/>
<line x1="83.5674" y1="202.977" x2="83.5674" y2="303.808" stroke="#4D0B5E"/>
<line x1="88.3164" y1="202.977" x2="88.3164" y2="303.808" stroke="#4D0B5E"/>
<line x1="93.0652" y1="202.977" x2="93.0652" y2="303.808" stroke="#4D0B5E"/>
<line x1="97.814" y1="202.977" x2="97.814" y2="303.808" stroke="#4D0B5E"/>
<line x1="102.563" y1="202.977" x2="102.563" y2="303.808" stroke="#4D0B5E"/>
<line x1="107.312" y1="202.977" x2="107.312" y2="303.808" stroke="#4D0B5E"/>
<line x1="112.06" y1="202.977" x2="112.06" y2="303.808" stroke="#4D0B5E"/>
<line x1="116.809" y1="202.977" x2="116.809" y2="303.808" stroke="#4D0B5E"/>
<line x1="121.558" y1="202.977" x2="121.558" y2="303.808" stroke="#4D0B5E"/>
<line x1="126.307" y1="202.977" x2="126.307" y2="303.808" stroke="#4D0B5E"/>
<line x1="131.056" y1="202.977" x2="131.056" y2="303.808" stroke="#4D0B5E"/>
<line x1="135.804" y1="202.977" x2="135.804" y2="303.808" stroke="#4D0B5E"/>
<line x1="140.553" y1="202.977" x2="140.553" y2="303.808" stroke="#4D0B5E"/>
<line x1="145.302" y1="202.977" x2="145.302" y2="303.808" stroke="#4D0B5E"/>
<line x1="150.051" y1="202.977" x2="150.051" y2="303.808" stroke="#4D0B5E"/>
<line x1="154.8" y1="202.977" x2="154.8" y2="303.808" stroke="#4D0B5E"/>
<line x1="159.549" y1="202.977" x2="159.549" y2="303.808" stroke="#4D0B5E"/>
<line x1="164.298" y1="202.977" x2="164.298" y2="303.808" stroke="#4D0B5E"/>
<line x1="169.046" y1="202.977" x2="169.046" y2="303.808" stroke="#4D0B5E"/>
<line x1="173.795" y1="202.977" x2="173.795" y2="303.808" stroke="#4D0B5E"/>
<line x1="178.544" y1="202.977" x2="178.544" y2="303.808" stroke="#4D0B5E"/>
<line x1="183.293" y1="202.977" x2="183.293" y2="303.808" stroke="#4D0B5E"/>
<line x1="188.042" y1="202.977" x2="188.042" y2="303.808" stroke="#4D0B5E"/>
<line x1="192.79" y1="202.977" x2="192.79" y2="303.808" stroke="#4D0B5E"/>
<line x1="197.539" y1="202.977" x2="197.539" y2="303.808" stroke="#4D0B5E"/>
<line x1="202.288" y1="202.977" x2="202.288" y2="303.808" stroke="#4D0B5E"/>
<line x1="207.037" y1="202.977" x2="207.037" y2="303.808" stroke="#4D0B5E"/>
<line x1="211.786" y1="202.977" x2="211.786" y2="303.808" stroke="#4D0B5E"/>
<line x1="216.534" y1="202.977" x2="216.534" y2="303.808" stroke="#4D0B5E"/>
<line x1="221.283" y1="202.977" x2="221.283" y2="303.808" stroke="#4D0B5E"/>
<line x1="226.032" y1="202.977" x2="226.032" y2="303.808" stroke="#4D0B5E"/>
<line x1="230.781" y1="202.977" x2="230.781" y2="303.808" stroke="#4D0B5E"/>
<line x1="235.53" y1="202.977" x2="235.53" y2="303.808" stroke="#4D0B5E"/>
<line x1="240.279" y1="202.977" x2="240.279" y2="303.808" stroke="#4D0B5E"/>
<line x1="245.028" y1="202.977" x2="245.028" y2="303.808" stroke="#4D0B5E"/>
<line x1="249.776" y1="202.977" x2="249.776" y2="303.808" stroke="#4D0B5E"/>
<line x1="254.525" y1="202.977" x2="254.525" y2="303.808" stroke="#4D0B5E"/>
<line x1="259.274" y1="202.977" x2="259.274" y2="303.808" stroke="#4D0B5E"/>
<line x1="264.023" y1="202.977" x2="264.023" y2="303.808" stroke="#4D0B5E"/>
<line x1="268.771" y1="202.977" x2="268.771" y2="303.808" stroke="#4D0B5E"/>
<line x1="55.0747" y1="204.192" x2="55.0747" y2="305.023" stroke="#4D0B5E"/>
<line x1="59.8232" y1="204.192" x2="59.8232" y2="305.023" stroke="#4D0B5E"/>
<line x1="64.5723" y1="204.192" x2="64.5723" y2="305.023" stroke="#4D0B5E"/>
<line x1="69.321" y1="204.192" x2="69.321" y2="305.023" stroke="#4D0B5E"/>
<line x1="74.0698" y1="204.192" x2="74.0698" y2="305.023" stroke="#4D0B5E"/>
<line x1="78.8186" y1="204.192" x2="78.8186" y2="305.023" stroke="#4D0B5E"/>
<line x1="83.5674" y1="204.192" x2="83.5674" y2="305.023" stroke="#4D0B5E"/>
<line x1="88.3164" y1="204.192" x2="88.3164" y2="305.023" stroke="#4D0B5E"/>
<line x1="93.0652" y1="204.192" x2="93.0652" y2="305.023" stroke="#4D0B5E"/>
<line x1="97.814" y1="204.192" x2="97.814" y2="305.023" stroke="#4D0B5E"/>
<line x1="102.563" y1="204.192" x2="102.563" y2="305.023" stroke="#4D0B5E"/>
<line x1="107.312" y1="204.192" x2="107.312" y2="305.023" stroke="#4D0B5E"/>
<line x1="112.06" y1="204.192" x2="112.06" y2="305.023" stroke="#4D0B5E"/>
<line x1="116.809" y1="204.192" x2="116.809" y2="305.023" stroke="#4D0B5E"/>
<line x1="121.558" y1="204.192" x2="121.558" y2="305.023" stroke="#4D0B5E"/>
<line x1="126.307" y1="204.192" x2="126.307" y2="305.023" stroke="#4D0B5E"/>
<line x1="131.056" y1="204.192" x2="131.056" y2="305.023" stroke="#4D0B5E"/>
<line x1="135.804" y1="204.192" x2="135.804" y2="305.023" stroke="#4D0B5E"/>
<line x1="140.553" y1="204.192" x2="140.553" y2="305.023" stroke="#4D0B5E"/>
<line x1="145.302" y1="204.192" x2="145.302" y2="305.023" stroke="#4D0B5E"/>
<line x1="150.051" y1="204.192" x2="150.051" y2="305.023" stroke="#4D0B5E"/>
<line x1="154.8" y1="204.192" x2="154.8" y2="305.023" stroke="#4D0B5E"/>
<line x1="159.549" y1="204.192" x2="159.549" y2="305.023" stroke="#4D0B5E"/>
<line x1="164.298" y1="204.192" x2="164.298" y2="305.023" stroke="#4D0B5E"/>
<line x1="169.046" y1="204.192" x2="169.046" y2="305.023" stroke="#4D0B5E"/>
<line x1="173.795" y1="204.192" x2="173.795" y2="305.023" stroke="#4D0B5E"/>
<line x1="178.544" y1="204.192" x2="178.544" y2="305.023" stroke="#4D0B5E"/>
<line x1="183.293" y1="204.192" x2="183.293" y2="305.023" stroke="#4D0B5E"/>
<line x1="188.042" y1="204.192" x2="188.042" y2="305.023" stroke="#4D0B5E"/>
<line x1="192.79" y1="204.192" x2="192.79" y2="305.023" stroke="#4D0B5E"/>
<line x1="197.539" y1="204.192" x2="197.539" y2="305.023" stroke="#4D0B5E"/>
<line x1="202.288" y1="204.192" x2="202.288" y2="305.023" stroke="#4D0B5E"/>
<line x1="207.037" y1="204.192" x2="207.037" y2="305.023" stroke="#4D0B5E"/>
<line x1="211.786" y1="204.192" x2="211.786" y2="305.023" stroke="#4D0B5E"/>
<line x1="216.534" y1="204.192" x2="216.534" y2="305.023" stroke="#4D0B5E"/>
<line x1="221.283" y1="204.192" x2="221.283" y2="305.023" stroke="#4D0B5E"/>
<line x1="226.032" y1="204.192" x2="226.032" y2="305.023" stroke="#4D0B5E"/>
<line x1="230.781" y1="204.192" x2="230.781" y2="305.023" stroke="#4D0B5E"/>
<line x1="235.53" y1="204.192" x2="235.53" y2="305.023" stroke="#4D0B5E"/>
<line x1="240.279" y1="204.192" x2="240.279" y2="305.023" stroke="#4D0B5E"/>
<line x1="245.028" y1="204.192" x2="245.028" y2="305.023" stroke="#4D0B5E"/>
<line x1="249.776" y1="204.192" x2="249.776" y2="305.023" stroke="#4D0B5E"/>
<line x1="254.525" y1="204.192" x2="254.525" y2="305.023" stroke="#4D0B5E"/>
<line x1="259.274" y1="204.192" x2="259.274" y2="305.023" stroke="#4D0B5E"/>
<line x1="264.023" y1="204.192" x2="264.023" y2="305.023" stroke="#4D0B5E"/>
<line x1="268.771" y1="204.192" x2="268.771" y2="305.023" stroke="#4D0B5E"/>
<line x1="55.0747" y1="205.407" x2="55.0747" y2="306.238" stroke="#4D0B5E"/>
<line x1="59.8232" y1="205.407" x2="59.8232" y2="306.238" stroke="#4D0B5E"/>
<line x1="64.5723" y1="205.407" x2="64.5723" y2="306.238" stroke="#4D0B5E"/>
<line x1="69.321" y1="205.407" x2="69.321" y2="306.238" stroke="#4D0B5E"/>
<line x1="74.0698" y1="205.407" x2="74.0698" y2="306.238" stroke="#4D0B5E"/>
<line x1="78.8186" y1="205.407" x2="78.8186" y2="306.238" stroke="#4D0B5E"/>
<line x1="83.5674" y1="205.407" x2="83.5674" y2="306.238" stroke="#4D0B5E"/>
<line x1="88.3164" y1="205.407" x2="88.3164" y2="306.238" stroke="#4D0B5E"/>
<line x1="93.0652" y1="205.407" x2="93.0652" y2="306.238" stroke="#4D0B5E"/>
<line x1="97.814" y1="205.407" x2="97.814" y2="306.238" stroke="#4D0B5E"/>
<line x1="102.563" y1="205.407" x2="102.563" y2="306.238" stroke="#4D0B5E"/>
<line x1="107.312" y1="205.407" x2="107.312" y2="306.238" stroke="#4D0B5E"/>
<line x1="112.06" y1="205.407" x2="112.06" y2="306.238" stroke="#4D0B5E"/>
<line x1="116.809" y1="205.407" x2="116.809" y2="306.238" stroke="#4D0B5E"/>
<line x1="121.558" y1="205.407" x2="121.558" y2="306.238" stroke="#4D0B5E"/>
<line x1="126.307" y1="205.407" x2="126.307" y2="306.238" stroke="#4D0B5E"/>
<line x1="131.056" y1="205.407" x2="131.056" y2="306.238" stroke="#4D0B5E"/>
<line x1="135.804" y1="205.407" x2="135.804" y2="306.238" stroke="#4D0B5E"/>
<line x1="140.553" y1="205.407" x2="140.553" y2="306.238" stroke="#4D0B5E"/>
<line x1="145.302" y1="205.407" x2="145.302" y2="306.238" stroke="#4D0B5E"/>
<line x1="150.051" y1="205.407" x2="150.051" y2="306.238" stroke="#4D0B5E"/>
<line x1="154.8" y1="205.407" x2="154.8" y2="306.238" stroke="#4D0B5E"/>
<line x1="159.549" y1="205.407" x2="159.549" y2="306.238" stroke="#4D0B5E"/>
<line x1="164.298" y1="205.407" x2="164.298" y2="306.238" stroke="#4D0B5E"/>
<line x1="169.046" y1="205.407" x2="169.046" y2="306.238" stroke="#4D0B5E"/>
<line x1="173.795" y1="205.407" x2="173.795" y2="306.238" stroke="#4D0B5E"/>
<line x1="178.544" y1="205.407" x2="178.544" y2="306.238" stroke="#4D0B5E"/>
<line x1="183.293" y1="205.407" x2="183.293" y2="306.238" stroke="#4D0B5E"/>
<line x1="188.042" y1="205.407" x2="188.042" y2="306.238" stroke="#4D0B5E"/>
<line x1="192.79" y1="205.407" x2="192.79" y2="306.238" stroke="#4D0B5E"/>
<line x1="197.539" y1="205.407" x2="197.539" y2="306.238" stroke="#4D0B5E"/>
<line x1="202.288" y1="205.407" x2="202.288" y2="306.238" stroke="#4D0B5E"/>
<line x1="207.037" y1="205.407" x2="207.037" y2="306.238" stroke="#4D0B5E"/>
<line x1="211.786" y1="205.407" x2="211.786" y2="306.238" stroke="#4D0B5E"/>
<line x1="216.534" y1="205.407" x2="216.534" y2="306.238" stroke="#4D0B5E"/>
<line x1="221.283" y1="205.407" x2="221.283" y2="306.238" stroke="#4D0B5E"/>
<line x1="226.032" y1="205.407" x2="226.032" y2="306.238" stroke="#4D0B5E"/>
<line x1="230.781" y1="205.407" x2="230.781" y2="306.238" stroke="#4D0B5E"/>
<line x1="235.53" y1="205.407" x2="235.53" y2="306.238" stroke="#4D0B5E"/>
<line x1="240.279" y1="205.407" x2="240.279" y2="306.238" stroke="#4D0B5E"/>
<line x1="245.028" y1="205.407" x2="245.028" y2="306.238" stroke="#4D0B5E"/>
<line x1="249.776" y1="205.407" x2="249.776" y2="306.238" stroke="#4D0B5E"/>
<line x1="254.525" y1="205.407" x2="254.525" y2="306.238" stroke="#4D0B5E"/>
<line x1="259.274" y1="205.407" x2="259.274" y2="306.238" stroke="#4D0B5E"/>
<line x1="264.023" y1="205.407" x2="264.023" y2="306.238" stroke="#4D0B5E"/>
<line x1="268.771" y1="205.407" x2="268.771" y2="306.238" stroke="#4D0B5E"/>
<line x1="55.0747" y1="206.621" x2="55.0747" y2="307.453" stroke="#4D0B5E"/>
<line x1="59.8232" y1="206.621" x2="59.8232" y2="307.453" stroke="#4D0B5E"/>
<line x1="64.5723" y1="206.621" x2="64.5723" y2="307.453" stroke="#4D0B5E"/>
<line x1="69.321" y1="206.621" x2="69.321" y2="307.453" stroke="#4D0B5E"/>
<line x1="74.0698" y1="206.621" x2="74.0698" y2="307.453" stroke="#4D0B5E"/>
<line x1="78.8186" y1="206.621" x2="78.8186" y2="307.453" stroke="#4D0B5E"/>
<line x1="83.5674" y1="206.621" x2="83.5674" y2="307.453" stroke="#4D0B5E"/>
<line x1="88.3164" y1="206.621" x2="88.3164" y2="307.453" stroke="#4D0B5E"/>
<line x1="93.0652" y1="206.621" x2="93.0652" y2="307.453" stroke="#4D0B5E"/>
<line x1="97.814" y1="206.621" x2="97.814" y2="307.453" stroke="#4D0B5E"/>
<line x1="102.563" y1="206.621" x2="102.563" y2="307.453" stroke="#4D0B5E"/>
<line x1="107.312" y1="206.621" x2="107.312" y2="307.453" stroke="#4D0B5E"/>
<line x1="112.06" y1="206.621" x2="112.06" y2="307.453" stroke="#4D0B5E"/>
<line x1="116.809" y1="206.621" x2="116.809" y2="307.453" stroke="#4D0B5E"/>
<line x1="121.558" y1="206.621" x2="121.558" y2="307.453" stroke="#4D0B5E"/>
<line x1="126.307" y1="206.621" x2="126.307" y2="307.453" stroke="#4D0B5E"/>
<line x1="131.056" y1="206.621" x2="131.056" y2="307.453" stroke="#4D0B5E"/>
<line x1="135.804" y1="206.621" x2="135.804" y2="307.453" stroke="#4D0B5E"/>
<line x1="140.553" y1="206.621" x2="140.553" y2="307.453" stroke="#4D0B5E"/>
<line x1="145.302" y1="206.621" x2="145.302" y2="307.453" stroke="#4D0B5E"/>
<line x1="150.051" y1="206.621" x2="150.051" y2="307.453" stroke="#4D0B5E"/>
<line x1="154.8" y1="206.621" x2="154.8" y2="307.453" stroke="#4D0B5E"/>
<line x1="159.549" y1="206.621" x2="159.549" y2="307.453" stroke="#4D0B5E"/>
<line x1="164.298" y1="206.621" x2="164.298" y2="307.453" stroke="#4D0B5E"/>
<line x1="169.046" y1="206.621" x2="169.046" y2="307.453" stroke="#4D0B5E"/>
<line x1="173.795" y1="206.621" x2="173.795" y2="307.453" stroke="#4D0B5E"/>
<line x1="178.544" y1="206.621" x2="178.544" y2="307.453" stroke="#4D0B5E"/>
<line x1="183.293" y1="206.621" x2="183.293" y2="307.453" stroke="#4D0B5E"/>
<line x1="188.042" y1="206.621" x2="188.042" y2="307.453" stroke="#4D0B5E"/>
<line x1="192.79" y1="206.621" x2="192.79" y2="307.453" stroke="#4D0B5E"/>
<line x1="197.539" y1="206.621" x2="197.539" y2="307.453" stroke="#4D0B5E"/>
<line x1="202.288" y1="206.621" x2="202.288" y2="307.453" stroke="#4D0B5E"/>
<line x1="207.037" y1="206.621" x2="207.037" y2="307.453" stroke="#4D0B5E"/>
<line x1="211.786" y1="206.621" x2="211.786" y2="307.453" stroke="#4D0B5E"/>
<line x1="216.534" y1="206.621" x2="216.534" y2="307.453" stroke="#4D0B5E"/>
<line x1="221.283" y1="206.621" x2="221.283" y2="307.453" stroke="#4D0B5E"/>
<line x1="226.032" y1="206.621" x2="226.032" y2="307.453" stroke="#4D0B5E"/>
<line x1="230.781" y1="206.621" x2="230.781" y2="307.453" stroke="#4D0B5E"/>
<line x1="235.53" y1="206.621" x2="235.53" y2="307.453" stroke="#4D0B5E"/>
<line x1="240.279" y1="206.621" x2="240.279" y2="307.453" stroke="#4D0B5E"/>
<line x1="245.028" y1="206.621" x2="245.028" y2="307.453" stroke="#4D0B5E"/>
<line x1="249.776" y1="206.621" x2="249.776" y2="307.453" stroke="#4D0B5E"/>
<line x1="254.525" y1="206.621" x2="254.525" y2="307.453" stroke="#4D0B5E"/>
<line x1="259.274" y1="206.621" x2="259.274" y2="307.453" stroke="#4D0B5E"/>
<line x1="264.023" y1="206.621" x2="264.023" y2="307.453" stroke="#4D0B5E"/>
<line x1="268.771" y1="206.621" x2="268.771" y2="307.453" stroke="#4D0B5E"/>
<line x1="55.0747" y1="207.836" x2="55.0747" y2="308.668" stroke="#4D0B5E"/>
<line x1="59.8232" y1="207.836" x2="59.8232" y2="308.668" stroke="#4D0B5E"/>
<line x1="64.5723" y1="207.836" x2="64.5723" y2="308.668" stroke="#4D0B5E"/>
<line x1="69.321" y1="207.836" x2="69.321" y2="308.668" stroke="#4D0B5E"/>
<line x1="74.0698" y1="207.836" x2="74.0698" y2="308.668" stroke="#4D0B5E"/>
<line x1="78.8186" y1="207.836" x2="78.8186" y2="308.668" stroke="#4D0B5E"/>
<line x1="83.5674" y1="207.836" x2="83.5674" y2="308.668" stroke="#4D0B5E"/>
<line x1="88.3164" y1="207.836" x2="88.3164" y2="308.668" stroke="#4D0B5E"/>
<line x1="93.0652" y1="207.836" x2="93.0652" y2="308.668" stroke="#4D0B5E"/>
<line x1="97.814" y1="207.836" x2="97.814" y2="308.668" stroke="#4D0B5E"/>
<line x1="102.563" y1="207.836" x2="102.563" y2="308.668" stroke="#4D0B5E"/>
<line x1="107.312" y1="207.836" x2="107.312" y2="308.668" stroke="#4D0B5E"/>
<line x1="112.06" y1="207.836" x2="112.06" y2="308.668" stroke="#4D0B5E"/>
<line x1="116.809" y1="207.836" x2="116.809" y2="308.668" stroke="#4D0B5E"/>
<line x1="121.558" y1="207.836" x2="121.558" y2="308.668" stroke="#4D0B5E"/>
<line x1="126.307" y1="207.836" x2="126.307" y2="308.668" stroke="#4D0B5E"/>
<line x1="131.056" y1="207.836" x2="131.056" y2="308.668" stroke="#4D0B5E"/>
<line x1="135.804" y1="207.836" x2="135.804" y2="308.668" stroke="#4D0B5E"/>
<line x1="140.553" y1="207.836" x2="140.553" y2="308.668" stroke="#4D0B5E"/>
<line x1="145.302" y1="207.836" x2="145.302" y2="308.668" stroke="#4D0B5E"/>
<line x1="150.051" y1="207.836" x2="150.051" y2="308.668" stroke="#4D0B5E"/>
<line x1="154.8" y1="207.836" x2="154.8" y2="308.668" stroke="#4D0B5E"/>
<line x1="159.549" y1="207.836" x2="159.549" y2="308.668" stroke="#4D0B5E"/>
<line x1="164.298" y1="207.836" x2="164.298" y2="308.668" stroke="#4D0B5E"/>
<line x1="169.046" y1="207.836" x2="169.046" y2="308.668" stroke="#4D0B5E"/>
<line x1="173.795" y1="207.836" x2="173.795" y2="308.668" stroke="#4D0B5E"/>
<line x1="178.544" y1="207.836" x2="178.544" y2="308.668" stroke="#4D0B5E"/>
<line x1="183.293" y1="207.836" x2="183.293" y2="308.668" stroke="#4D0B5E"/>
<line x1="188.042" y1="207.836" x2="188.042" y2="308.668" stroke="#4D0B5E"/>
<line x1="192.79" y1="207.836" x2="192.79" y2="308.668" stroke="#4D0B5E"/>
<line x1="197.539" y1="207.836" x2="197.539" y2="308.668" stroke="#4D0B5E"/>
<line x1="202.288" y1="207.836" x2="202.288" y2="308.668" stroke="#4D0B5E"/>
<line x1="207.037" y1="207.836" x2="207.037" y2="308.668" stroke="#4D0B5E"/>
<line x1="211.786" y1="207.836" x2="211.786" y2="308.668" stroke="#4D0B5E"/>
<line x1="216.534" y1="207.836" x2="216.534" y2="308.668" stroke="#4D0B5E"/>
<line x1="221.283" y1="207.836" x2="221.283" y2="308.668" stroke="#4D0B5E"/>
<line x1="226.032" y1="207.836" x2="226.032" y2="308.668" stroke="#4D0B5E"/>
<line x1="230.781" y1="207.836" x2="230.781" y2="308.668" stroke="#4D0B5E"/>
<line x1="235.53" y1="207.836" x2="235.53" y2="308.668" stroke="#4D0B5E"/>
<line x1="240.279" y1="207.836" x2="240.279" y2="308.668" stroke="#4D0B5E"/>
<line x1="245.028" y1="207.836" x2="245.028" y2="308.668" stroke="#4D0B5E"/>
<line x1="249.776" y1="207.836" x2="249.776" y2="308.668" stroke="#4D0B5E"/>
<line x1="254.525" y1="207.836" x2="254.525" y2="308.668" stroke="#4D0B5E"/>
<line x1="259.274" y1="207.836" x2="259.274" y2="308.668" stroke="#4D0B5E"/>
<line x1="264.023" y1="207.836" x2="264.023" y2="308.668" stroke="#4D0B5E"/>
<line x1="268.771" y1="207.836" x2="268.771" y2="308.668" stroke="#4D0B5E"/>
<line x1="55.0747" y1="209.051" x2="55.0747" y2="309.882" stroke="#4D0B5E"/>
<line x1="59.8232" y1="209.051" x2="59.8232" y2="309.882" stroke="#4D0B5E"/>
<line x1="64.5723" y1="209.051" x2="64.5723" y2="309.882" stroke="#4D0B5E"/>
<line x1="69.321" y1="209.051" x2="69.321" y2="309.882" stroke="#4D0B5E"/>
<line x1="74.0698" y1="209.051" x2="74.0698" y2="309.882" stroke="#4D0B5E"/>
<line x1="78.8186" y1="209.051" x2="78.8186" y2="309.882" stroke="#4D0B5E"/>
<line x1="83.5674" y1="209.051" x2="83.5674" y2="309.882" stroke="#4D0B5E"/>
<line x1="88.3164" y1="209.051" x2="88.3164" y2="309.882" stroke="#4D0B5E"/>
<line x1="93.0652" y1="209.051" x2="93.0652" y2="309.882" stroke="#4D0B5E"/>
<line x1="97.814" y1="209.051" x2="97.814" y2="309.882" stroke="#4D0B5E"/>
<line x1="102.563" y1="209.051" x2="102.563" y2="309.882" stroke="#4D0B5E"/>
<line x1="107.312" y1="209.051" x2="107.312" y2="309.882" stroke="#4D0B5E"/>
<line x1="112.06" y1="209.051" x2="112.06" y2="309.882" stroke="#4D0B5E"/>
<line x1="116.809" y1="209.051" x2="116.809" y2="309.882" stroke="#4D0B5E"/>
<line x1="121.558" y1="209.051" x2="121.558" y2="309.882" stroke="#4D0B5E"/>
<line x1="126.307" y1="209.051" x2="126.307" y2="309.882" stroke="#4D0B5E"/>
<line x1="131.056" y1="209.051" x2="131.056" y2="309.882" stroke="#4D0B5E"/>
<line x1="135.804" y1="209.051" x2="135.804" y2="309.882" stroke="#4D0B5E"/>
<line x1="140.553" y1="209.051" x2="140.553" y2="309.882" stroke="#4D0B5E"/>
<line x1="145.302" y1="209.051" x2="145.302" y2="309.882" stroke="#4D0B5E"/>
<line x1="150.051" y1="209.051" x2="150.051" y2="309.882" stroke="#4D0B5E"/>
<line x1="154.8" y1="209.051" x2="154.8" y2="309.882" stroke="#4D0B5E"/>
<line x1="159.549" y1="209.051" x2="159.549" y2="309.882" stroke="#4D0B5E"/>
<line x1="164.298" y1="209.051" x2="164.298" y2="309.882" stroke="#4D0B5E"/>
<line x1="169.046" y1="209.051" x2="169.046" y2="309.882" stroke="#4D0B5E"/>
<line x1="173.795" y1="209.051" x2="173.795" y2="309.882" stroke="#4D0B5E"/>
<line x1="178.544" y1="209.051" x2="178.544" y2="309.882" stroke="#4D0B5E"/>
<line x1="183.293" y1="209.051" x2="183.293" y2="309.882" stroke="#4D0B5E"/>
<line x1="188.042" y1="209.051" x2="188.042" y2="309.882" stroke="#4D0B5E"/>
<line x1="192.79" y1="209.051" x2="192.79" y2="309.882" stroke="#4D0B5E"/>
<line x1="197.539" y1="209.051" x2="197.539" y2="309.882" stroke="#4D0B5E"/>
<line x1="202.288" y1="209.051" x2="202.288" y2="309.882" stroke="#4D0B5E"/>
<line x1="207.037" y1="209.051" x2="207.037" y2="309.882" stroke="#4D0B5E"/>
<line x1="211.786" y1="209.051" x2="211.786" y2="309.882" stroke="#4D0B5E"/>
<line x1="216.534" y1="209.051" x2="216.534" y2="309.882" stroke="#4D0B5E"/>
<line x1="221.283" y1="209.051" x2="221.283" y2="309.882" stroke="#4D0B5E"/>
<line x1="226.032" y1="209.051" x2="226.032" y2="309.882" stroke="#4D0B5E"/>
<line x1="230.781" y1="209.051" x2="230.781" y2="309.882" stroke="#4D0B5E"/>
<line x1="235.53" y1="209.051" x2="235.53" y2="309.882" stroke="#4D0B5E"/>
<line x1="240.279" y1="209.051" x2="240.279" y2="309.882" stroke="#4D0B5E"/>
<line x1="245.028" y1="209.051" x2="245.028" y2="309.882" stroke="#4D0B5E"/>
<line x1="249.776" y1="209.051" x2="249.776" y2="309.882" stroke="#4D0B5E"/>
<line x1="254.525" y1="209.051" x2="254.525" y2="309.882" stroke="#4D0B5E"/>
<line x1="259.274" y1="209.051" x2="259.274" y2="309.882" stroke="#4D0B5E"/>
<line x1="264.023" y1="209.051" x2="264.023" y2="309.882" stroke="#4D0B5E"/>
<line x1="268.771" y1="209.051" x2="268.771" y2="309.882" stroke="#4D0B5E"/>
</g>
</svg>
