<svg width="322" height="507" viewBox="0 0 322 507" fill="none" xmlns="http://www.w3.org/2000/svg">
<rect x="0.5" y="0.5" width="321" height="506" rx="29.5" fill="white" stroke="black"/>
<path d="M53.552 122.469L53.5523 122.457L53.5524 122.445C53.7608 107.889 57.9178 96.0625 65.3756 87.2699C72.8328 78.478 83.7711 72.5067 97.9295 69.9889C112.561 67.4053 134.644 70.7065 159.86 79.7015C167.056 82.2988 171.866 83.8635 176.49 84.6511C181.157 85.446 185.524 85.4317 191.818 85.0429L191.824 85.0425C207.326 84.0508 225.6 77.7382 238.651 68.824C246.84 63.2801 255.035 63.2399 260.595 67.7237C263.741 70.369 265.63 72.9323 266.799 76.4715C268.011 80.1419 268.5 85.0071 268.5 92.3686C268.5 111.569 256.623 130.628 237.951 141.222C215.713 153.692 193.669 154.933 160.559 145.048L160.548 145.044C154.293 143.209 148.192 141.517 143.403 140.281C141.01 139.663 138.928 139.155 137.311 138.8C135.819 138.472 134.426 138.203 133.614 138.203C128.584 138.203 121.506 139.798 114.279 142.207C106.997 144.634 99.3113 147.974 93.0116 151.637L93.0041 151.641C84.3653 156.704 78.1223 159.142 73.2226 159.463C68.5759 159.768 64.9127 158.18 61.2505 154.387C55.2944 148.012 53.1261 140.206 53.552 122.469Z" fill="white" stroke="#FF0000" stroke-width="5"/>
<path d="M53.552 264.469L53.5523 264.457L53.5524 264.445C53.7608 249.889 57.9178 238.062 65.3756 229.27C72.8328 220.478 83.7711 214.507 97.9295 211.989C112.561 209.405 134.644 212.706 159.86 221.701C167.056 224.299 171.866 225.864 176.49 226.651C181.157 227.446 185.524 227.432 191.818 227.043L191.824 227.043C207.326 226.051 225.6 219.738 238.651 210.824C246.84 205.28 255.035 205.24 260.595 209.724C263.741 212.369 265.63 214.932 266.799 218.471C268.011 222.142 268.5 227.007 268.5 234.369C268.5 253.569 256.623 272.628 237.951 283.222C215.713 295.692 193.669 296.933 160.559 287.048L160.548 287.044C154.293 285.209 148.192 283.517 143.403 282.281C141.01 281.663 138.928 281.155 137.311 280.8C135.819 280.472 134.426 280.203 133.614 280.203C128.584 280.203 121.506 281.798 114.279 284.207C106.997 286.634 99.3113 289.974 93.0116 293.637L93.0041 293.641C84.3653 298.704 78.1223 301.142 73.2226 301.463C68.5759 301.768 64.9127 300.18 61.2505 296.387C55.2944 290.012 53.1261 282.206 53.552 264.469Z" fill="white" stroke="#FF0000" stroke-width="5"/>
<path d="M53.552 405.469L53.5523 405.457L53.5524 405.445C53.7608 390.889 57.9178 379.062 65.3756 370.27C72.8328 361.478 83.7711 355.507 97.9295 352.989C112.561 350.405 134.644 353.706 159.86 362.701C167.056 365.299 171.866 366.864 176.49 367.651C181.157 368.446 185.524 368.432 191.818 368.043L191.824 368.043C207.326 367.051 225.6 360.738 238.651 351.824C246.84 346.28 255.035 346.24 260.595 350.724C263.741 353.369 265.63 355.932 266.799 359.471C268.011 363.142 268.5 368.007 268.5 375.369C268.5 394.569 256.623 413.628 237.951 424.222C215.713 436.692 193.669 437.933 160.559 428.048L160.548 428.044C154.293 426.209 148.192 424.517 143.403 423.281C141.01 422.663 138.928 422.155 137.311 421.8C135.819 421.472 134.426 421.203 133.614 421.203C128.584 421.203 121.506 422.798 114.279 425.207C106.997 427.634 99.3113 430.974 93.0116 434.637L93.0041 434.641C84.3653 439.704 78.1223 442.142 73.2226 442.463C68.5759 442.768 64.9127 441.18 61.2505 437.387C55.2944 431.012 53.1261 423.206 53.552 405.469Z" fill="white" stroke="#FF0000" stroke-width="5"/>
</svg>
