<svg width="322" height="507" viewBox="0 0 322 507" fill="none" xmlns="http://www.w3.org/2000/svg">
<rect x="0.5" y="0.5" width="321" height="506" rx="29.5" fill="white" stroke="black"/>
<path d="M53.552 193.469L53.5523 193.457L53.5524 193.445C53.7608 178.889 57.9178 167.062 65.3756 158.27C72.8328 149.478 83.7711 143.507 97.9295 140.989C112.561 138.405 134.644 141.706 159.86 150.701C167.056 153.299 171.866 154.864 176.49 155.651C181.157 156.446 185.524 156.432 191.818 156.043L191.824 156.043C207.326 155.051 225.6 148.738 238.651 139.824C246.84 134.28 255.035 134.24 260.595 138.724C263.741 141.369 265.63 143.932 266.799 147.471C268.011 151.142 268.5 156.007 268.5 163.369C268.5 182.569 256.623 201.628 237.951 212.222C215.713 224.692 193.669 225.933 160.559 216.048L160.548 216.044C154.293 214.209 148.192 212.517 143.403 211.281C141.01 210.663 138.928 210.155 137.311 209.8C135.819 209.472 134.426 209.203 133.614 209.203C128.584 209.203 121.506 210.798 114.279 213.207C106.997 215.634 99.3113 218.974 93.0116 222.637L93.0041 222.641C84.3653 227.704 78.1223 230.142 73.2226 230.463C68.5759 230.768 64.9127 229.18 61.2505 225.387C55.2944 219.012 53.1261 211.206 53.552 193.469Z" fill="white" stroke="#F32333" stroke-width="5"/>
<path d="M53.552 334.469L53.5523 334.457L53.5524 334.445C53.7608 319.889 57.9178 308.062 65.3756 299.27C72.8328 290.478 83.7711 284.507 97.9295 281.989C112.561 279.405 134.644 282.706 159.86 291.701C167.056 294.299 171.866 295.864 176.49 296.651C181.157 297.446 185.524 297.432 191.818 297.043L191.824 297.043C207.326 296.051 225.6 289.738 238.651 280.824C246.84 275.28 255.035 275.24 260.595 279.724C263.741 282.369 265.63 284.932 266.799 288.471C268.011 292.142 268.5 297.007 268.5 304.369C268.5 323.569 256.623 342.628 237.951 353.222C215.713 365.692 193.669 366.933 160.559 357.048L160.548 357.044C154.293 355.209 148.192 353.517 143.403 352.281C141.01 351.663 138.928 351.155 137.311 350.8C135.819 350.472 134.426 350.203 133.614 350.203C128.584 350.203 121.506 351.798 114.279 354.207C106.997 356.634 99.3113 359.974 93.0116 363.637L93.0041 363.641C84.3653 368.704 78.1223 371.142 73.2226 371.463C68.5759 371.768 64.9127 370.18 61.2505 366.387C55.2944 360.012 53.1261 352.206 53.552 334.469Z" fill="white" stroke="#F32333" stroke-width="5"/>
</svg>
