<svg width="322" height="507" viewBox="0 0 322 507" fill="none" xmlns="http://www.w3.org/2000/svg">
<rect x="0.5" y="0.5" width="321" height="506" rx="29.5" fill="white" stroke="black"/>
<path d="M59.4378 287.109C52.7727 279.984 50.6227 271.318 51.0527 253.409C51.4827 223.369 68.2529 203.727 97.4932 198.527C112.758 195.831 135.334 199.298 160.704 208.348C175.109 213.548 179.194 214.318 191.664 213.548C206.714 212.585 224.56 206.423 237.245 197.757C246.06 191.787 255.52 191.402 262.185 196.794C269.065 202.571 271 208.541 271 223.369C271 243.588 258.53 263.423 239.18 274.399C216.174 287.301 193.384 288.457 159.844 278.443C147.374 274.784 135.549 271.703 133.614 271.703C124.368 271.703 106.523 277.673 94.2681 284.798C76.853 295.004 67.6079 295.582 59.4378 287.109Z" fill="#F32333"/>
</svg>
