<svg width="322" height="507" viewBox="0 0 322 507" fill="none" xmlns="http://www.w3.org/2000/svg">
<rect x="0.5" y="0.5" width="321" height="506" rx="29.5" fill="white" stroke="black"/>
<path d="M53.552 238.469L53.5523 238.457L53.5524 238.445C53.7608 223.889 57.9178 212.062 65.3756 203.27C72.8328 194.478 83.7711 188.507 97.9295 185.989C112.561 183.405 134.644 186.706 159.86 195.701C167.056 198.299 171.866 199.864 176.49 200.651C181.157 201.446 185.524 201.432 191.818 201.043L191.824 201.043C207.326 200.051 225.6 193.738 238.651 184.824C246.84 179.28 255.035 179.24 260.595 183.724C263.741 186.369 265.63 188.932 266.799 192.471C268.011 196.142 268.5 201.007 268.5 208.369C268.5 227.569 256.623 246.628 237.951 257.222C215.713 269.692 193.669 270.933 160.559 261.048L160.548 261.044C154.293 259.209 148.192 257.517 143.403 256.281C141.01 255.663 138.928 255.155 137.311 254.8C135.819 254.472 134.426 254.203 133.614 254.203C128.584 254.203 121.506 255.798 114.279 258.207C106.997 260.634 99.3113 263.974 93.0116 267.637L93.0041 267.641C84.3653 272.704 78.1223 275.142 73.2226 275.463C68.5759 275.768 64.9127 274.18 61.2505 270.387C55.2944 264.012 53.1261 256.206 53.552 238.469Z" fill="white" stroke="#4D0B5E" stroke-width="5"/>
</svg>
