<svg width="322" height="507" viewBox="0 0 322 507" fill="none" xmlns="http://www.w3.org/2000/svg">
<rect x="0.5" y="0.5" width="321" height="506" rx="29.5" fill="white" stroke="black"/>
<path d="M59.4378 227.109C52.7727 219.984 50.6227 211.318 51.0527 193.409C51.4827 163.369 68.2529 143.727 97.4932 138.527C112.758 135.831 135.334 139.298 160.704 148.348C175.109 153.548 179.194 154.318 191.664 153.548C206.714 152.585 224.56 146.423 237.245 137.757C246.06 131.787 255.52 131.402 262.185 136.794C269.065 142.571 271 148.541 271 163.369C271 183.588 258.53 203.423 239.18 214.399C216.174 227.301 193.384 228.457 159.844 218.443C147.374 214.784 135.549 211.703 133.614 211.703C124.368 211.703 106.523 217.673 94.2681 224.798C76.853 235.004 67.6079 235.582 59.4378 227.109Z" fill="#07ED10"/>
<path d="M59.4378 368.109C52.7727 360.984 50.6227 352.318 51.0527 334.409C51.4827 304.369 68.2529 284.727 97.4932 279.527C112.758 276.831 135.334 280.298 160.704 289.348C175.109 294.548 179.194 295.318 191.664 294.548C206.714 293.585 224.56 287.423 237.245 278.757C246.06 272.787 255.52 272.402 262.185 277.794C269.065 283.571 271 289.541 271 304.369C271 324.588 258.53 344.423 239.18 355.399C216.174 368.301 193.384 369.457 159.844 359.443C147.374 355.784 135.549 352.703 133.614 352.703C124.368 352.703 106.523 358.673 94.2681 365.798C76.853 376.004 67.6079 376.582 59.4378 368.109Z" fill="#07ED10"/>
</svg>
